{"glyphs":{"0":{"ha":786,"x_min":69,"x_max":717,"o":"m 393 0 q 219 65 292 0 q 108 253 146 131 q 69 544 69 375 q 108 835 69 713 q 219 1023 146 957 q 393 1089 292 1089 q 568 1023 496 1089 q 678 834 640 957 q 717 544 717 711 q 632 144 717 289 q 393 0 547 0 m 393 83 q 572 209 511 83 q 632 544 632 335 q 571 878 632 753 q 393 1004 510 1004 q 215 878 276 1004 q 154 544 154 753 q 215 209 154 335 q 393 83 275 83 z "},"1":{"ha":511,"x_min":63,"x_max":372,"o":"m 331 0 q 300 12 313 0 q 288 42 288 24 l 288 985 l 122 931 q 104 926 113 926 q 74 938 86 926 q 63 968 63 950 q 89 1008 63 999 l 301 1079 q 331 1086 326 1086 q 360 1074 349 1086 q 372 1044 372 1063 l 372 42 q 360 12 372 24 q 331 0 349 0 z "},"2":{"ha":800,"x_min":90,"x_max":738,"o":"m 147 0 q 117 12 129 0 q 104 42 104 24 q 117 72 104 58 l 556 594 q 605 673 585 625 q 625 763 625 721 q 595 884 625 829 q 514 970 565 939 q 400 1001 463 1001 q 286 970 338 1001 q 205 884 235 939 q 175 763 175 829 q 163 733 175 744 q 133 721 151 721 q 103 733 115 721 q 90 763 90 744 q 131 928 90 854 q 242 1044 171 1001 q 400 1086 313 1086 q 558 1044 488 1086 q 669 928 629 1001 q 710 763 710 854 q 684 644 710 699 q 611 533 658 589 l 229 85 l 696 85 q 726 72 714 85 q 738 42 738 60 q 726 12 738 24 q 696 0 714 0 l 147 0 z "},"3":{"ha":800,"x_min":76,"x_max":738,"o":"m 404 -12 q 238 29 313 -12 q 119 144 163 71 q 76 307 76 218 q 88 340 76 326 q 119 353 100 353 q 150 340 139 353 q 161 307 161 326 q 193 187 161 240 q 281 102 225 133 q 404 71 338 71 q 586 137 519 71 q 653 306 653 203 q 621 432 653 378 q 534 515 589 486 q 411 544 479 544 q 381 556 393 544 q 369 586 369 568 q 381 616 369 604 q 411 628 393 628 q 510 654 465 628 q 580 726 554 681 q 606 822 606 771 q 552 960 606 907 q 407 1014 499 1014 q 256 963 314 1014 q 197 832 197 911 q 185 802 197 814 q 154 790 172 790 q 124 802 135 790 q 113 832 113 814 q 150 967 113 907 q 255 1061 188 1026 q 407 1096 322 1096 q 551 1060 486 1096 q 653 961 615 1024 q 690 822 690 899 q 642 688 690 757 q 525 590 594 619 q 682 484 626 564 q 738 306 738 404 q 694 143 738 215 q 575 29 651 71 q 404 -12 499 -12 z "},"4":{"ha":893,"x_min":14,"x_max":831,"o":"m 789 344 q 831 306 831 344 q 818 281 831 293 q 789 269 806 269 l 661 269 l 661 42 q 649 12 661 24 q 619 0 638 0 q 590 12 601 0 q 578 42 578 24 l 578 269 l 57 269 q 26 283 39 269 q 14 313 14 296 q 22 336 14 326 l 585 1069 q 599 1082 592 1078 q 619 1086 607 1086 q 649 1074 638 1086 q 661 1043 661 1061 l 661 344 l 789 344 m 129 344 l 578 344 l 578 925 l 129 344 z "},"5":{"ha":869,"x_min":90,"x_max":793,"o":"m 442 0 q 263 46 343 0 q 136 172 182 92 q 90 351 90 253 q 102 382 90 369 q 132 394 114 394 q 163 382 150 394 q 175 351 175 369 q 210 215 175 276 q 306 119 244 154 q 442 85 367 85 q 578 119 517 85 q 674 215 639 154 q 708 351 708 276 q 674 488 708 426 q 578 584 639 549 q 442 619 517 619 l 189 619 q 159 631 171 619 q 147 661 147 643 l 147 1044 q 159 1074 147 1063 q 189 1086 171 1086 l 694 1086 q 725 1074 713 1086 q 738 1044 738 1063 q 725 1014 738 1026 q 694 1001 713 1001 l 231 1001 l 231 703 l 442 703 q 621 657 540 703 q 747 531 701 611 q 793 351 793 450 q 747 172 793 253 q 621 46 701 92 q 442 0 540 0 z "},"6":{"ha":801,"x_min":90,"x_max":739,"o":"m 415 649 q 581 606 507 649 q 697 490 654 564 q 739 324 739 415 q 697 158 739 232 q 581 42 654 85 q 415 0 507 0 q 249 42 324 0 q 133 158 175 85 q 90 324 90 232 q 129 481 90 410 l 128 481 l 133 489 l 143 506 l 483 1063 q 522 1086 499 1086 q 553 1074 540 1086 q 565 1044 565 1061 q 558 1021 565 1035 l 319 635 q 415 649 363 649 m 415 82 q 538 114 483 82 q 625 201 593 146 q 657 324 657 256 q 625 447 657 392 q 538 535 593 503 q 415 567 483 567 q 292 535 347 567 q 204 447 236 503 q 172 324 172 392 q 204 201 172 256 q 292 114 236 146 q 415 82 347 82 z "},"7":{"ha":810,"x_min":76,"x_max":751,"o":"m 244 0 q 214 12 226 0 q 201 42 201 24 q 211 71 201 49 l 638 1001 l 119 1001 q 89 1014 101 1001 q 76 1044 76 1026 q 89 1074 76 1063 q 119 1086 101 1086 l 710 1086 q 740 1074 728 1086 q 751 1044 751 1063 q 744 1021 751 1039 l 283 25 q 267 7 278 14 q 244 0 257 0 z "},"8":{"ha":835,"x_min":90,"x_max":744,"o":"m 565 607 q 696 494 647 569 q 744 325 744 418 q 701 154 744 231 q 584 34 658 78 q 418 -10 510 -10 q 251 33 325 -10 q 133 152 176 76 q 90 321 90 228 q 139 493 90 417 q 269 607 188 569 q 185 701 215 643 q 154 831 154 760 q 189 960 154 901 q 285 1051 224 1018 q 421 1085 346 1085 q 553 1052 494 1085 q 647 962 613 1019 q 681 833 681 904 q 649 703 681 763 q 565 607 618 643 m 233 828 q 286 694 233 747 q 418 642 339 642 q 549 697 496 642 q 601 833 601 751 q 549 957 601 907 q 418 1007 496 1007 q 286 956 339 1007 q 233 828 233 904 m 657 324 q 626 447 657 392 q 540 533 594 501 q 418 564 485 564 q 295 532 350 564 q 209 444 240 500 q 178 318 178 388 q 209 190 178 247 q 295 99 240 132 q 418 65 350 65 q 540 99 486 65 q 626 192 594 133 q 657 324 657 251 z "},"9":{"ha":801,"x_min":63,"x_max":711,"o":"m 668 597 l 658 581 l 318 24 q 279 0 303 0 q 249 13 261 0 q 236 42 236 25 q 243 65 236 51 l 482 451 q 386 438 439 438 q 221 480 294 438 q 105 597 147 522 q 63 763 63 671 q 105 928 63 854 q 221 1044 147 1001 q 386 1086 294 1086 q 552 1044 478 1086 q 669 928 626 1001 q 711 763 711 854 q 672 606 711 676 l 674 606 l 668 597 m 144 763 q 176 639 144 694 q 263 551 208 583 q 386 519 318 519 q 510 551 454 519 q 597 639 565 583 q 629 763 629 694 q 597 885 629 831 q 510 972 565 940 q 386 1004 454 1004 q 263 972 318 1004 q 176 885 208 940 q 144 763 144 831 z "},"\u0000":{"ha":0,"x_min":0,"x_max":0,"o":""},"\r":{"ha":407,"x_min":0,"x_max":0,"o":""}," ":{"ha":407,"x_min":0,"x_max":0,"o":""},"A":{"ha":976,"x_min":26,"x_max":958,"o":"m 954 60 q 958 42 958 51 q 946 13 958 25 q 917 0 933 0 q 878 26 889 0 l 775 272 l 210 272 l 107 26 q 68 0 97 0 q 38 13 49 0 q 26 42 26 25 q 31 60 26 51 l 451 1056 q 492 1085 463 1085 q 532 1056 519 1085 l 954 60 m 242 347 l 743 347 l 492 947 l 242 347 z "},"Á":{"ha":976,"x_min":26,"x_max":958,"o":"m 954 60 q 958 42 958 51 q 946 13 958 25 q 917 0 933 0 q 878 26 889 0 l 775 272 l 210 272 l 107 26 q 68 0 97 0 q 38 13 49 0 q 26 42 26 25 q 31 60 26 51 l 451 1056 q 492 1085 463 1085 q 532 1056 519 1085 l 954 60 m 242 347 l 743 347 l 492 947 l 242 347 m 468 1197 q 438 1210 450 1197 q 425 1240 425 1222 q 435 1268 425 1256 l 606 1439 q 636 1451 618 1451 q 667 1439 654 1451 q 679 1408 679 1426 q 667 1379 679 1392 l 496 1208 q 468 1197 485 1197 z "},"Ă":{"ha":976,"x_min":26,"x_max":958,"o":"m 954 60 q 958 42 958 51 q 946 13 958 25 q 917 0 933 0 q 878 26 889 0 l 775 272 l 210 272 l 107 26 q 68 0 97 0 q 38 13 49 0 q 26 42 26 25 q 31 60 26 51 l 451 1056 q 492 1085 463 1085 q 532 1056 519 1085 l 954 60 m 242 347 l 743 347 l 492 947 l 242 347 m 488 1225 q 382 1246 431 1225 q 305 1302 333 1267 q 276 1379 276 1338 q 289 1410 276 1397 q 319 1422 301 1422 q 349 1410 338 1422 q 361 1379 361 1397 q 395 1323 361 1346 q 488 1300 429 1300 q 581 1323 546 1300 q 615 1379 615 1346 q 627 1410 615 1397 q 657 1422 639 1422 q 686 1410 674 1422 q 700 1381 699 1397 q 633 1268 694 1311 q 488 1225 572 1225 z "},"Ắ":{"ha":976,"x_min":26,"x_max":958,"o":"m 954 60 q 958 42 958 51 q 946 13 958 25 q 917 0 933 0 q 878 26 889 0 l 775 272 l 210 272 l 107 26 q 68 0 97 0 q 38 13 49 0 q 26 42 26 25 q 31 60 26 51 l 451 1056 q 492 1085 463 1085 q 532 1056 519 1085 l 954 60 m 242 347 l 743 347 l 492 947 l 242 347 m 488 1225 q 382 1246 431 1225 q 305 1302 333 1267 q 276 1379 276 1338 q 289 1410 276 1397 q 319 1422 301 1422 q 349 1410 338 1422 q 361 1379 361 1397 q 395 1323 361 1346 q 488 1300 429 1300 q 581 1323 546 1300 q 615 1379 615 1346 q 627 1410 615 1397 q 657 1422 639 1422 q 686 1410 674 1422 q 700 1381 699 1397 q 633 1268 694 1311 q 488 1225 572 1225 m 468 1424 q 438 1436 450 1424 q 425 1467 425 1449 q 435 1494 425 1482 l 606 1665 q 636 1678 618 1678 q 667 1665 654 1678 q 679 1635 679 1653 q 667 1606 679 1618 l 496 1435 q 468 1424 485 1424 z "},"Ặ":{"ha":976,"x_min":26,"x_max":958,"o":"m 954 60 q 958 42 958 51 q 946 13 958 25 q 917 0 933 0 q 878 26 889 0 l 775 272 l 210 272 l 107 26 q 68 0 97 0 q 38 13 49 0 q 26 42 26 25 q 31 60 26 51 l 451 1056 q 492 1085 463 1085 q 532 1056 519 1085 l 954 60 m 242 347 l 743 347 l 492 947 l 242 347 m 488 1225 q 382 1246 431 1225 q 305 1302 333 1267 q 276 1379 276 1338 q 289 1410 276 1397 q 319 1422 301 1422 q 349 1410 338 1422 q 361 1379 361 1397 q 395 1323 361 1346 q 488 1300 429 1300 q 581 1323 546 1300 q 615 1379 615 1346 q 627 1410 615 1397 q 657 1422 639 1422 q 686 1410 674 1422 q 700 1381 699 1397 q 633 1268 694 1311 q 488 1225 572 1225 m 488 -275 q 442 -256 460 -275 q 424 -210 424 -237 q 443 -162 424 -179 q 489 -146 463 -146 q 534 -162 515 -146 q 553 -210 553 -179 q 534 -256 553 -237 q 488 -275 515 -275 z "},"Ằ":{"ha":976,"x_min":26,"x_max":958,"o":"m 954 60 q 958 42 958 51 q 946 13 958 25 q 917 0 933 0 q 878 26 889 0 l 775 272 l 210 272 l 107 26 q 68 0 97 0 q 38 13 49 0 q 26 42 26 25 q 31 60 26 51 l 451 1056 q 492 1085 463 1085 q 532 1056 519 1085 l 954 60 m 242 347 l 743 347 l 492 947 l 242 347 m 488 1225 q 382 1246 431 1225 q 305 1302 333 1267 q 276 1379 276 1338 q 289 1410 276 1397 q 319 1422 301 1422 q 349 1410 338 1422 q 361 1379 361 1397 q 395 1323 361 1346 q 488 1300 429 1300 q 581 1323 546 1300 q 615 1379 615 1346 q 627 1410 615 1397 q 657 1422 639 1422 q 686 1410 674 1422 q 700 1381 699 1397 q 633 1268 694 1311 q 488 1225 572 1225 m 490 1439 q 461 1450 476 1439 l 290 1621 q 279 1650 279 1632 q 292 1681 279 1668 q 322 1693 304 1693 q 351 1681 339 1693 l 522 1510 q 532 1482 532 1500 q 520 1451 532 1464 q 490 1439 508 1439 z "},"Ẳ":{"ha":976,"x_min":26,"x_max":958,"o":"m 954 60 q 958 42 958 51 q 946 13 958 25 q 917 0 933 0 q 878 26 889 0 l 775 272 l 210 272 l 107 26 q 68 0 97 0 q 38 13 49 0 q 26 42 26 25 q 31 60 26 51 l 451 1056 q 492 1085 463 1085 q 532 1056 519 1085 l 954 60 m 242 347 l 743 347 l 492 947 l 242 347 m 488 1225 q 382 1246 431 1225 q 305 1302 333 1267 q 276 1379 276 1338 q 289 1410 276 1397 q 319 1422 301 1422 q 349 1410 338 1422 q 361 1379 361 1397 q 395 1323 361 1346 q 488 1300 429 1300 q 581 1323 546 1300 q 615 1379 615 1346 q 627 1410 615 1397 q 657 1422 639 1422 q 686 1410 674 1422 q 700 1381 699 1397 q 633 1268 694 1311 q 488 1225 572 1225 m 486 1379 q 458 1391 469 1379 q 446 1419 446 1403 l 446 1465 q 482 1510 446 1501 l 515 1517 q 560 1539 547 1524 q 574 1581 574 1554 q 552 1632 574 1613 q 497 1651 531 1651 q 439 1629 465 1651 q 413 1619 426 1619 q 384 1631 396 1619 q 372 1660 372 1643 q 386 1690 372 1679 q 497 1732 436 1732 q 610 1693 565 1732 q 654 1589 654 1654 q 618 1497 654 1531 q 526 1453 582 1463 l 526 1419 q 515 1391 526 1403 q 486 1379 503 1379 z "},"Ẵ":{"ha":976,"x_min":26,"x_max":958,"o":"m 954 60 q 958 42 958 51 q 946 13 958 25 q 917 0 933 0 q 878 26 889 0 l 775 272 l 210 272 l 107 26 q 68 0 97 0 q 38 13 49 0 q 26 42 26 25 q 31 60 26 51 l 451 1056 q 492 1085 463 1085 q 532 1056 519 1085 l 954 60 m 242 347 l 743 347 l 492 947 l 242 347 m 488 1225 q 382 1246 431 1225 q 305 1302 333 1267 q 276 1379 276 1338 q 289 1410 276 1397 q 319 1422 301 1422 q 349 1410 338 1422 q 361 1379 361 1397 q 395 1323 361 1346 q 488 1300 429 1300 q 581 1323 546 1300 q 615 1379 615 1346 q 627 1410 615 1397 q 657 1422 639 1422 q 686 1410 674 1422 q 700 1381 699 1397 q 633 1268 694 1311 q 488 1225 572 1225 m 574 1457 q 517 1472 544 1457 q 472 1504 490 1486 q 435 1535 450 1526 q 404 1544 421 1544 q 375 1530 388 1544 q 346 1485 363 1515 q 307 1460 333 1460 q 281 1469 290 1460 q 272 1493 272 1479 q 276 1513 272 1503 q 331 1591 300 1567 q 403 1615 361 1615 q 454 1605 435 1615 q 503 1569 474 1594 q 544 1538 531 1546 q 568 1531 557 1531 q 604 1572 589 1531 q 624 1597 610 1589 q 654 1601 639 1606 q 685 1567 685 1593 q 681 1550 685 1558 q 634 1478 660 1500 q 574 1457 608 1457 z "},"Â":{"ha":976,"x_min":26,"x_max":958,"o":"m 954 60 q 958 42 958 51 q 946 13 958 25 q 917 0 933 0 q 878 26 889 0 l 775 272 l 210 272 l 107 26 q 68 0 97 0 q 38 13 49 0 q 26 42 26 25 q 31 60 26 51 l 451 1056 q 492 1085 463 1085 q 532 1056 519 1085 l 954 60 m 242 347 l 743 347 l 492 947 l 242 347 m 322 1225 q 290 1237 303 1225 q 278 1267 278 1249 q 300 1304 278 1290 l 468 1417 q 489 1422 479 1422 q 510 1417 499 1422 l 678 1304 q 700 1267 700 1290 q 688 1237 700 1249 q 657 1225 675 1225 q 631 1233 643 1225 l 489 1328 l 347 1233 q 322 1225 335 1225 z "},"Ấ":{"ha":976,"x_min":26,"x_max":958,"o":"m 954 60 q 958 42 958 51 q 946 13 958 25 q 917 0 933 0 q 878 26 889 0 l 775 272 l 210 272 l 107 26 q 68 0 97 0 q 38 13 49 0 q 26 42 26 25 q 31 60 26 51 l 451 1056 q 492 1085 463 1085 q 532 1056 519 1085 l 954 60 m 242 347 l 743 347 l 492 947 l 242 347 m 322 1225 q 290 1237 303 1225 q 278 1267 278 1249 q 300 1304 278 1290 l 468 1417 q 489 1422 479 1422 q 510 1417 499 1422 l 678 1304 q 700 1267 700 1290 q 688 1237 700 1249 q 657 1225 675 1225 q 631 1233 643 1225 l 489 1328 l 347 1233 q 322 1225 335 1225 m 594 1456 q 564 1468 576 1456 q 551 1499 551 1481 q 561 1526 551 1514 l 732 1697 q 763 1710 744 1710 q 793 1697 781 1710 q 806 1667 806 1685 q 793 1638 806 1650 l 622 1467 q 594 1456 611 1456 z "},"Ậ":{"ha":976,"x_min":26,"x_max":958,"o":"m 954 60 q 958 42 958 51 q 946 13 958 25 q 917 0 933 0 q 878 26 889 0 l 775 272 l 210 272 l 107 26 q 68 0 97 0 q 38 13 49 0 q 26 42 26 25 q 31 60 26 51 l 451 1056 q 492 1085 463 1085 q 532 1056 519 1085 l 954 60 m 242 347 l 743 347 l 492 947 l 242 347 m 322 1225 q 290 1237 303 1225 q 278 1267 278 1249 q 300 1304 278 1290 l 468 1417 q 489 1422 479 1422 q 510 1417 499 1422 l 678 1304 q 700 1267 700 1290 q 688 1237 700 1249 q 657 1225 675 1225 q 631 1233 643 1225 l 489 1328 l 347 1233 q 322 1225 335 1225 m 488 -275 q 442 -256 460 -275 q 424 -210 424 -237 q 443 -162 424 -179 q 489 -146 463 -146 q 534 -162 515 -146 q 553 -210 553 -179 q 534 -256 553 -237 q 488 -275 515 -275 z "},"Ầ":{"ha":976,"x_min":26,"x_max":958,"o":"m 954 60 q 958 42 958 51 q 946 13 958 25 q 917 0 933 0 q 878 26 889 0 l 775 272 l 210 272 l 107 26 q 68 0 97 0 q 38 13 49 0 q 26 42 26 25 q 31 60 26 51 l 451 1056 q 492 1085 463 1085 q 532 1056 519 1085 l 954 60 m 242 347 l 743 347 l 492 947 l 242 347 m 322 1225 q 290 1237 303 1225 q 278 1267 278 1249 q 300 1304 278 1290 l 468 1417 q 489 1422 479 1422 q 510 1417 499 1422 l 678 1304 q 700 1267 700 1290 q 688 1237 700 1249 q 657 1225 675 1225 q 631 1233 643 1225 l 489 1328 l 347 1233 q 322 1225 335 1225 m 617 1471 q 588 1482 603 1471 l 417 1653 q 406 1682 406 1664 q 418 1713 406 1700 q 449 1725 431 1725 q 478 1713 465 1725 l 649 1542 q 658 1514 658 1532 q 647 1483 658 1496 q 617 1471 635 1471 z "},"Ẩ":{"ha":976,"x_min":26,"x_max":958,"o":"m 954 60 q 958 42 958 51 q 946 13 958 25 q 917 0 933 0 q 878 26 889 0 l 775 272 l 210 272 l 107 26 q 68 0 97 0 q 38 13 49 0 q 26 42 26 25 q 31 60 26 51 l 451 1056 q 492 1085 463 1085 q 532 1056 519 1085 l 954 60 m 242 347 l 743 347 l 492 947 l 242 347 m 324 1225 q 292 1237 304 1225 q 279 1267 279 1249 q 301 1304 279 1290 l 469 1417 q 490 1422 481 1422 q 511 1417 500 1422 l 679 1304 q 701 1267 701 1290 q 689 1237 701 1249 q 658 1225 676 1225 q 632 1233 644 1225 l 490 1328 l 349 1233 q 324 1225 336 1225 m 614 1411 q 585 1423 597 1411 q 574 1451 574 1435 l 574 1497 q 610 1542 574 1533 l 643 1549 q 688 1571 675 1556 q 701 1613 701 1586 q 680 1664 701 1644 q 625 1683 658 1683 q 567 1661 593 1683 q 540 1651 554 1651 q 512 1663 524 1651 q 500 1692 500 1675 q 514 1722 500 1711 q 625 1764 564 1764 q 738 1725 693 1764 q 782 1621 782 1686 q 746 1528 782 1563 q 654 1485 710 1494 l 654 1451 q 642 1423 654 1435 q 614 1411 631 1411 z "},"Ẫ":{"ha":976,"x_min":26,"x_max":958,"o":"m 954 60 q 958 42 958 51 q 946 13 958 25 q 917 0 933 0 q 878 26 889 0 l 775 272 l 210 272 l 107 26 q 68 0 97 0 q 38 13 49 0 q 26 42 26 25 q 31 60 26 51 l 451 1056 q 492 1085 463 1085 q 532 1056 519 1085 l 954 60 m 242 347 l 743 347 l 492 947 l 242 347 m 322 1225 q 290 1237 303 1225 q 278 1267 278 1249 q 300 1304 278 1290 l 468 1417 q 489 1422 479 1422 q 510 1417 499 1422 l 678 1304 q 700 1267 700 1290 q 688 1237 700 1249 q 657 1225 675 1225 q 631 1233 643 1225 l 489 1328 l 347 1233 q 322 1225 335 1225 m 572 1461 q 516 1476 543 1461 q 471 1508 489 1490 q 434 1540 449 1531 q 403 1549 419 1549 q 374 1534 386 1549 q 344 1489 361 1519 q 306 1464 332 1464 q 280 1474 289 1464 q 271 1497 271 1483 q 275 1517 271 1507 q 329 1595 299 1571 q 401 1619 360 1619 q 453 1609 433 1619 q 501 1574 472 1599 q 542 1542 529 1550 q 567 1535 556 1535 q 603 1576 588 1535 q 623 1601 608 1593 q 653 1606 638 1610 q 683 1571 683 1597 q 679 1554 683 1563 q 633 1483 658 1504 q 572 1461 607 1461 z "},"Ȁ":{"ha":976,"x_min":26,"x_max":958,"o":"m 954 60 q 958 42 958 51 q 946 13 958 25 q 917 0 933 0 q 878 26 889 0 l 775 272 l 210 272 l 107 26 q 68 0 97 0 q 38 13 49 0 q 26 42 26 25 q 31 60 26 51 l 451 1056 q 492 1085 463 1085 q 532 1056 519 1085 l 954 60 m 242 347 l 743 347 l 492 947 l 242 347 m 426 1199 q 399 1218 407 1199 l 308 1408 q 306 1424 306 1417 q 317 1453 306 1440 q 349 1465 329 1465 q 372 1458 361 1465 q 386 1439 382 1451 l 451 1239 q 453 1226 453 1236 q 445 1206 453 1214 q 426 1199 438 1199 m 644 1199 q 617 1218 626 1199 l 526 1408 q 524 1424 524 1417 q 535 1453 524 1440 q 567 1465 547 1465 q 590 1458 579 1465 q 606 1439 600 1451 l 669 1239 q 671 1226 671 1236 q 663 1206 671 1214 q 644 1199 656 1199 z "},"Ä":{"ha":976,"x_min":26,"x_max":958,"o":"m 954 60 q 958 42 958 51 q 946 13 958 25 q 917 0 933 0 q 878 26 889 0 l 775 272 l 210 272 l 107 26 q 68 0 97 0 q 38 13 49 0 q 26 42 26 25 q 31 60 26 51 l 451 1056 q 492 1085 463 1085 q 532 1056 519 1085 l 954 60 m 242 347 l 743 347 l 492 947 l 242 347 m 350 1238 q 299 1258 319 1238 q 278 1310 278 1279 q 299 1360 278 1339 q 350 1381 319 1381 q 401 1360 381 1381 q 421 1310 421 1339 q 401 1258 421 1279 q 350 1238 381 1238 m 628 1238 q 576 1258 597 1238 q 556 1310 556 1279 q 576 1360 556 1339 q 628 1381 597 1381 q 678 1360 658 1381 q 699 1310 699 1339 q 678 1258 699 1279 q 628 1238 658 1238 z "},"Ạ":{"ha":976,"x_min":26,"x_max":958,"o":"m 954 60 q 958 42 958 51 q 946 13 958 25 q 917 0 933 0 q 878 26 889 0 l 775 272 l 210 272 l 107 26 q 68 0 97 0 q 38 13 49 0 q 26 42 26 25 q 31 60 26 51 l 451 1056 q 492 1085 463 1085 q 532 1056 519 1085 l 954 60 m 242 347 l 743 347 l 492 947 l 242 347 m 488 -275 q 442 -256 460 -275 q 424 -210 424 -237 q 443 -162 424 -179 q 489 -146 463 -146 q 534 -162 515 -146 q 553 -210 553 -179 q 534 -256 553 -237 q 488 -275 515 -275 z "},"À":{"ha":976,"x_min":26,"x_max":958,"o":"m 954 60 q 958 42 958 51 q 946 13 958 25 q 917 0 933 0 q 878 26 889 0 l 775 272 l 210 272 l 107 26 q 68 0 97 0 q 38 13 49 0 q 26 42 26 25 q 31 60 26 51 l 451 1056 q 492 1085 463 1085 q 532 1056 519 1085 l 954 60 m 242 347 l 743 347 l 492 947 l 242 347 m 490 1213 q 461 1224 476 1213 l 290 1394 q 279 1424 279 1406 q 292 1454 279 1442 q 322 1467 304 1467 q 351 1454 339 1467 l 522 1283 q 532 1256 532 1274 q 520 1225 532 1238 q 490 1213 508 1213 z "},"Ả":{"ha":976,"x_min":26,"x_max":958,"o":"m 954 60 q 958 42 958 51 q 946 13 958 25 q 917 0 933 0 q 878 26 889 0 l 775 272 l 210 272 l 107 26 q 68 0 97 0 q 38 13 49 0 q 26 42 26 25 q 31 60 26 51 l 451 1056 q 492 1085 463 1085 q 532 1056 519 1085 l 954 60 m 242 347 l 743 347 l 492 947 l 242 347 m 486 1153 q 458 1165 469 1153 q 446 1193 446 1176 l 446 1239 q 482 1283 446 1275 l 515 1290 q 560 1313 547 1297 q 574 1354 574 1328 q 552 1406 574 1386 q 497 1425 531 1425 q 439 1403 465 1425 q 413 1393 426 1393 q 384 1405 396 1393 q 372 1433 372 1417 q 386 1464 372 1453 q 497 1506 436 1506 q 610 1467 565 1506 q 654 1363 654 1428 q 618 1270 654 1304 q 526 1226 582 1236 l 526 1193 q 515 1165 526 1176 q 486 1153 503 1153 z "},"Ȃ":{"ha":976,"x_min":26,"x_max":958,"o":"m 954 60 q 958 42 958 51 q 946 13 958 25 q 917 0 933 0 q 878 26 889 0 l 775 272 l 210 272 l 107 26 q 68 0 97 0 q 38 13 49 0 q 26 42 26 25 q 31 60 26 51 l 451 1056 q 492 1085 463 1085 q 532 1056 519 1085 l 954 60 m 242 347 l 743 347 l 492 947 l 242 347 m 488 1422 q 633 1379 572 1422 q 700 1267 694 1336 q 686 1238 699 1250 q 657 1225 674 1225 q 627 1238 639 1225 q 615 1268 615 1250 q 581 1324 615 1301 q 488 1347 546 1347 q 395 1324 429 1347 q 361 1268 361 1301 q 349 1238 361 1250 q 319 1225 338 1225 q 289 1238 301 1225 q 276 1268 276 1250 q 305 1345 276 1310 q 382 1401 333 1381 q 488 1422 431 1422 z "},"Ā":{"ha":976,"x_min":26,"x_max":958,"o":"m 954 60 q 958 42 958 51 q 946 13 958 25 q 917 0 933 0 q 878 26 889 0 l 775 272 l 210 272 l 107 26 q 68 0 97 0 q 38 13 49 0 q 26 42 26 25 q 31 60 26 51 l 451 1056 q 492 1085 463 1085 q 532 1056 519 1085 l 954 60 m 242 347 l 743 347 l 492 947 l 242 347 m 304 1243 q 274 1255 286 1243 q 263 1285 263 1267 q 274 1315 263 1303 q 304 1328 286 1328 l 672 1328 q 702 1315 690 1328 q 714 1285 714 1303 q 702 1255 714 1267 q 672 1243 690 1243 l 304 1243 z "},"Ą":{"ha":976,"x_min":26,"x_max":1069,"o":"m 1026 -182 q 1057 -194 1044 -182 q 1069 -225 1069 -207 q 1056 -257 1069 -246 l 999 -296 q 914 -322 960 -322 q 806 -277 851 -322 q 760 -168 760 -232 q 825 -42 760 -94 q 878 19 868 -7 l 879 22 l 878 26 l 775 272 l 210 272 l 107 26 q 68 0 97 0 q 38 13 49 0 q 26 42 26 25 q 31 60 26 51 l 451 1056 q 492 1085 463 1085 q 532 1056 519 1085 l 954 60 q 958 42 958 51 q 951 19 958 31 q 957 0 957 13 q 936 -53 957 -26 q 874 -111 915 -81 q 844 -168 844 -135 q 865 -217 844 -197 q 914 -237 885 -237 q 953 -226 936 -237 l 1001 -190 q 1026 -182 1014 -182 m 242 347 l 743 347 l 492 947 l 242 347 z "},"Å":{"ha":976,"x_min":26,"x_max":958,"o":"m 954 60 q 958 42 958 51 q 946 13 958 25 q 917 0 933 0 q 878 26 889 0 l 775 272 l 210 272 l 107 26 q 68 0 97 0 q 38 13 49 0 q 26 42 26 25 q 31 60 26 51 l 451 1056 q 492 1085 463 1085 q 532 1056 519 1085 l 954 60 m 242 347 l 743 347 l 492 947 l 242 347 m 489 1154 q 399 1192 436 1154 q 361 1282 361 1231 q 399 1372 361 1335 q 489 1410 438 1410 q 579 1372 542 1410 q 617 1282 617 1335 q 579 1192 617 1231 q 489 1154 542 1154 m 489 1208 q 542 1230 519 1208 q 564 1282 564 1251 q 542 1335 564 1314 q 489 1357 519 1357 q 437 1335 458 1357 q 415 1282 415 1313 q 437 1230 415 1251 q 489 1208 458 1208 z "},"Ǻ":{"ha":976,"x_min":26,"x_max":958,"o":"m 954 60 q 958 42 958 51 q 946 13 958 25 q 917 0 933 0 q 878 26 889 0 l 775 272 l 210 272 l 107 26 q 68 0 97 0 q 38 13 49 0 q 26 42 26 25 q 31 60 26 51 l 451 1056 q 492 1085 463 1085 q 532 1056 519 1085 l 954 60 m 242 347 l 743 347 l 492 947 l 242 347 m 489 1154 q 399 1192 436 1154 q 361 1282 361 1231 q 399 1372 361 1335 q 489 1410 438 1410 q 579 1372 542 1410 q 617 1282 617 1335 q 579 1192 617 1231 q 489 1154 542 1154 m 489 1208 q 542 1230 519 1208 q 564 1282 564 1251 q 542 1335 564 1314 q 489 1357 519 1357 q 437 1335 458 1357 q 415 1282 415 1313 q 437 1230 415 1251 q 489 1208 458 1208 m 468 1467 q 438 1479 450 1467 q 425 1510 425 1492 q 435 1538 425 1525 l 606 1708 q 636 1721 618 1721 q 667 1708 654 1721 q 679 1678 679 1696 q 667 1649 679 1661 l 496 1478 q 468 1467 485 1467 z "},"Ã":{"ha":976,"x_min":26,"x_max":958,"o":"m 954 60 q 958 42 958 51 q 946 13 958 25 q 917 0 933 0 q 878 26 889 0 l 775 272 l 210 272 l 107 26 q 68 0 97 0 q 38 13 49 0 q 26 42 26 25 q 31 60 26 51 l 451 1056 q 492 1085 463 1085 q 532 1056 519 1085 l 954 60 m 242 347 l 743 347 l 492 947 l 242 347 m 574 1231 q 517 1245 544 1231 q 472 1278 490 1260 q 435 1309 450 1300 q 404 1318 421 1318 q 375 1303 388 1318 q 346 1258 363 1289 q 307 1233 333 1233 q 281 1243 290 1233 q 272 1267 272 1253 q 276 1286 272 1276 q 331 1365 300 1340 q 403 1389 361 1389 q 454 1378 435 1389 q 503 1343 474 1368 q 544 1312 531 1319 q 568 1304 557 1304 q 604 1346 589 1304 q 624 1371 610 1363 q 654 1375 639 1379 q 685 1340 685 1367 q 681 1324 685 1332 q 634 1252 660 1274 q 574 1231 608 1231 z "},"Æ":{"ha":1293,"x_min":25,"x_max":1231,"o":"m 1189 83 q 1218 71 1206 83 q 1231 42 1231 58 q 1218 12 1231 24 q 1189 0 1206 0 l 660 0 q 630 12 642 0 q 618 42 618 24 l 618 272 l 251 272 l 107 26 q 68 0 97 0 q 37 13 49 0 q 25 42 25 25 q 31 60 25 49 l 611 1046 q 640 1076 624 1067 q 685 1085 657 1085 l 1189 1085 q 1218 1073 1206 1085 q 1231 1043 1231 1061 q 1218 1014 1231 1026 q 1189 1001 1206 1001 l 701 1001 l 701 585 l 1022 585 q 1052 573 1040 585 q 1064 543 1064 561 q 1052 513 1064 525 q 1022 500 1040 500 l 701 500 l 701 83 l 1189 83 m 296 347 l 618 347 l 618 894 l 296 347 z "},"Ǽ":{"ha":1293,"x_min":25,"x_max":1231,"o":"m 1189 83 q 1218 71 1206 83 q 1231 42 1231 58 q 1218 12 1231 24 q 1189 0 1206 0 l 660 0 q 630 12 642 0 q 618 42 618 24 l 618 272 l 251 272 l 107 26 q 68 0 97 0 q 37 13 49 0 q 25 42 25 25 q 31 60 25 49 l 611 1046 q 640 1076 624 1067 q 685 1085 657 1085 l 1189 1085 q 1218 1073 1206 1085 q 1231 1043 1231 1061 q 1218 1014 1231 1026 q 1189 1001 1206 1001 l 701 1001 l 701 585 l 1022 585 q 1052 573 1040 585 q 1064 543 1064 561 q 1052 513 1064 525 q 1022 500 1040 500 l 701 500 l 701 83 l 1189 83 m 296 347 l 618 347 l 618 894 l 296 347 m 765 1197 q 735 1210 747 1197 q 722 1240 722 1222 q 732 1268 722 1256 l 903 1439 q 933 1451 915 1451 q 964 1439 951 1451 q 976 1408 976 1426 q 964 1379 976 1392 l 793 1208 q 765 1197 782 1197 z "},"B":{"ha":938,"x_min":139,"x_max":861,"o":"m 193 0 q 153 10 168 0 q 139 42 139 21 l 139 1043 q 151 1074 139 1063 q 181 1085 163 1085 l 521 1085 q 663 1051 597 1085 q 766 957 728 1017 q 804 822 804 897 q 763 683 804 744 q 651 590 721 621 q 805 492 749 564 q 861 315 861 421 q 820 152 861 224 q 706 40 779 81 q 542 0 633 0 l 193 0 m 521 626 q 665 681 610 626 q 721 822 721 735 q 666 954 721 907 q 521 1001 611 1001 l 222 1001 l 222 626 l 521 626 m 542 83 q 663 113 610 83 q 747 196 717 143 q 778 315 778 249 q 747 433 778 381 q 663 514 717 485 q 542 543 610 543 l 222 543 l 222 83 l 542 83 z "},"C":{"ha":1065,"x_min":83,"x_max":982,"o":"m 626 -14 q 356 62 481 -14 q 157 266 231 138 q 83 543 83 394 q 156 819 83 692 q 353 1023 229 947 q 626 1099 478 1099 q 969 975 821 1099 q 982 947 982 965 q 971 917 982 931 q 940 904 960 904 q 906 921 925 904 q 626 1015 800 1015 q 398 950 504 1015 q 229 776 292 885 q 167 543 167 667 q 228 306 167 415 q 397 133 290 197 q 626 69 503 69 q 914 171 790 69 q 935 178 924 178 q 965 165 951 178 q 978 135 978 153 q 968 106 978 117 q 626 -14 849 -14 z "},"Ć":{"ha":1065,"x_min":83,"x_max":982,"o":"m 626 -14 q 356 62 481 -14 q 157 266 231 138 q 83 543 83 394 q 156 819 83 692 q 353 1023 229 947 q 626 1099 478 1099 q 969 975 821 1099 q 982 947 982 965 q 971 917 982 931 q 940 904 960 904 q 906 921 925 904 q 626 1015 800 1015 q 398 950 504 1015 q 229 776 292 885 q 167 543 167 667 q 228 306 167 415 q 397 133 290 197 q 626 69 503 69 q 914 171 790 69 q 935 178 924 178 q 965 165 951 178 q 978 135 978 153 q 968 106 978 117 q 626 -14 849 -14 m 596 1197 q 565 1210 578 1197 q 553 1240 553 1222 q 563 1268 553 1256 l 733 1439 q 764 1451 746 1451 q 794 1439 782 1451 q 807 1408 807 1426 q 794 1379 807 1392 l 624 1208 q 596 1197 613 1197 z "},"Č":{"ha":1065,"x_min":83,"x_max":982,"o":"m 626 -14 q 356 62 481 -14 q 157 266 231 138 q 83 543 83 394 q 156 819 83 692 q 353 1023 229 947 q 626 1099 478 1099 q 969 975 821 1099 q 982 947 982 965 q 971 917 982 931 q 940 904 960 904 q 906 921 925 904 q 626 1015 800 1015 q 398 950 504 1015 q 229 776 292 885 q 167 543 167 667 q 228 306 167 415 q 397 133 290 197 q 626 69 503 69 q 914 171 790 69 q 935 178 924 178 q 965 165 951 178 q 978 135 978 153 q 968 106 978 117 q 626 -14 849 -14 m 617 1225 q 596 1231 603 1225 l 428 1342 q 406 1379 406 1356 q 416 1406 406 1396 q 442 1417 426 1417 q 475 1406 458 1417 l 617 1308 l 758 1403 q 793 1415 776 1415 q 818 1405 808 1415 q 828 1379 828 1394 q 806 1342 828 1358 l 638 1231 q 617 1225 631 1225 z "},"Ç":{"ha":1065,"x_min":83,"x_max":982,"o":"m 914 171 q 935 178 924 178 q 965 165 951 178 q 978 135 978 153 q 968 106 978 117 q 678 -12 861 -1 l 663 -50 q 758 -101 732 -71 q 785 -178 785 -132 q 732 -281 785 -239 q 608 -322 679 -322 q 498 -294 542 -322 q 454 -231 454 -267 q 466 -200 454 -212 q 496 -187 478 -187 q 515 -192 507 -187 q 532 -203 524 -197 q 544 -214 540 -210 q 572 -231 558 -225 q 608 -237 585 -237 q 667 -222 644 -237 q 690 -181 690 -207 q 672 -138 690 -154 q 611 -110 654 -122 q 578 -96 589 -104 q 567 -72 567 -87 q 574 -46 567 -64 l 588 -12 q 335 75 450 -3 q 151 277 219 153 q 83 543 83 401 q 156 819 83 692 q 353 1023 229 947 q 626 1099 478 1099 q 969 975 821 1099 q 982 947 982 965 q 971 917 982 931 q 940 904 960 904 q 906 921 925 904 q 626 1015 800 1015 q 398 950 504 1015 q 229 776 292 885 q 167 543 167 667 q 228 306 167 415 q 397 133 290 197 q 626 69 503 69 q 914 171 790 69 z "},"Ĉ":{"ha":1065,"x_min":83,"x_max":982,"o":"m 626 -14 q 356 62 481 -14 q 157 266 231 138 q 83 543 83 394 q 156 819 83 692 q 353 1023 229 947 q 626 1099 478 1099 q 969 975 821 1099 q 982 947 982 965 q 971 917 982 931 q 940 904 960 904 q 906 921 925 904 q 626 1015 800 1015 q 398 950 504 1015 q 229 776 292 885 q 167 543 167 667 q 228 306 167 415 q 397 133 290 197 q 626 69 503 69 q 914 171 790 69 q 935 178 924 178 q 965 165 951 178 q 978 135 978 153 q 968 106 978 117 q 626 -14 849 -14 m 450 1225 q 418 1237 431 1225 q 406 1267 406 1249 q 428 1304 406 1290 l 596 1417 q 617 1422 607 1422 q 638 1417 626 1422 l 806 1304 q 828 1267 828 1290 q 815 1237 828 1249 q 785 1225 803 1225 q 758 1233 771 1225 l 617 1328 l 475 1233 q 450 1225 463 1225 z "},"Ċ":{"ha":1065,"x_min":83,"x_max":982,"o":"m 626 -14 q 356 62 481 -14 q 157 266 231 138 q 83 543 83 394 q 156 819 83 692 q 353 1023 229 947 q 626 1099 478 1099 q 969 975 821 1099 q 982 947 982 965 q 971 917 982 931 q 940 904 960 904 q 906 921 925 904 q 626 1015 800 1015 q 398 950 504 1015 q 229 776 292 885 q 167 543 167 667 q 228 306 167 415 q 397 133 290 197 q 626 69 503 69 q 914 171 790 69 q 935 178 924 178 q 965 165 951 178 q 978 135 978 153 q 968 106 978 117 q 626 -14 849 -14 m 615 1244 q 569 1263 588 1244 q 551 1310 551 1282 q 571 1357 551 1340 q 617 1374 590 1374 q 662 1357 643 1374 q 681 1310 681 1340 q 662 1263 681 1282 q 615 1244 643 1244 z "},"D":{"ha":1057,"x_min":139,"x_max":974,"o":"m 181 0 q 151 12 163 0 q 139 42 139 24 l 139 1043 q 151 1074 139 1063 q 181 1085 163 1085 l 431 1085 q 711 1015 588 1085 q 904 823 835 946 q 974 543 974 700 q 904 263 974 386 q 711 69 835 139 q 431 0 588 0 l 181 0 m 431 75 q 668 135 564 75 q 831 303 772 196 q 890 543 890 410 q 831 783 890 676 q 668 949 772 889 q 431 1010 564 1010 l 222 1010 l 222 75 l 431 75 z "},"Ð":{"ha":1057,"x_min":0,"x_max":974,"o":"m 431 1085 q 711 1015 588 1085 q 904 823 835 946 q 974 543 974 700 q 904 263 974 386 q 711 69 835 139 q 431 0 588 0 l 181 0 q 151 12 163 0 q 139 42 139 24 l 139 506 l 38 506 q 10 516 21 506 q 0 543 0 526 q 10 570 0 560 q 38 581 21 581 l 139 581 l 139 1043 q 151 1074 139 1063 q 181 1085 163 1085 l 431 1085 m 431 75 q 668 135 564 75 q 831 303 772 196 q 890 543 890 410 q 831 783 890 676 q 668 949 772 889 q 431 1010 564 1010 l 222 1010 l 222 581 l 451 581 q 478 570 468 581 q 489 543 489 560 q 478 516 489 526 q 451 506 468 506 l 222 506 l 222 75 l 431 75 z "},"Ď":{"ha":1057,"x_min":139,"x_max":974,"o":"m 181 0 q 151 12 163 0 q 139 42 139 24 l 139 1043 q 151 1074 139 1063 q 181 1085 163 1085 l 431 1085 q 711 1015 588 1085 q 904 823 835 946 q 974 543 974 700 q 904 263 974 386 q 711 69 835 139 q 431 0 588 0 l 181 0 m 431 75 q 668 135 564 75 q 831 303 772 196 q 890 543 890 410 q 831 783 890 676 q 668 949 772 889 q 431 1010 564 1010 l 222 1010 l 222 75 l 431 75 m 529 1225 q 508 1231 515 1225 l 340 1342 q 318 1379 318 1356 q 328 1406 318 1396 q 354 1417 339 1417 q 388 1406 371 1417 l 529 1308 l 671 1403 q 706 1415 689 1415 q 731 1405 721 1415 q 740 1379 740 1394 q 718 1342 740 1358 l 550 1231 q 529 1225 543 1225 z "},"Đ":{"ha":1057,"x_min":0,"x_max":974,"o":"m 431 1085 q 711 1015 588 1085 q 904 823 835 946 q 974 543 974 700 q 904 263 974 386 q 711 69 835 139 q 431 0 588 0 l 181 0 q 151 12 163 0 q 139 42 139 24 l 139 506 l 38 506 q 10 516 21 506 q 0 543 0 526 q 10 570 0 560 q 38 581 21 581 l 139 581 l 139 1043 q 151 1074 139 1063 q 181 1085 163 1085 l 431 1085 m 431 75 q 668 135 564 75 q 831 303 772 196 q 890 543 890 410 q 831 783 890 676 q 668 949 772 889 q 431 1010 564 1010 l 222 1010 l 222 581 l 451 581 q 478 570 468 581 q 489 543 489 560 q 478 516 489 526 q 451 506 468 506 l 222 506 l 222 75 l 431 75 z "},"E":{"ha":953,"x_min":139,"x_max":890,"o":"m 181 0 q 151 12 163 0 q 139 42 139 24 l 139 1043 q 151 1073 139 1061 q 181 1085 163 1085 l 849 1085 q 878 1073 865 1085 q 890 1043 890 1061 q 878 1014 890 1026 q 849 1001 865 1001 l 222 1001 l 222 585 l 682 585 q 712 573 700 585 q 724 543 724 561 q 712 513 724 525 q 682 500 700 500 l 222 500 l 222 83 l 849 83 q 878 71 865 83 q 890 42 890 58 q 878 12 890 24 q 849 0 865 0 l 181 0 z "},"É":{"ha":953,"x_min":139,"x_max":890,"o":"m 181 0 q 151 12 163 0 q 139 42 139 24 l 139 1043 q 151 1073 139 1061 q 181 1085 163 1085 l 849 1085 q 878 1073 865 1085 q 890 1043 890 1061 q 878 1014 890 1026 q 849 1001 865 1001 l 222 1001 l 222 585 l 682 585 q 712 573 700 585 q 724 543 724 561 q 712 513 724 525 q 682 500 700 500 l 222 500 l 222 83 l 849 83 q 878 71 865 83 q 890 42 890 58 q 878 12 890 24 q 849 0 865 0 l 181 0 m 499 1197 q 468 1210 481 1197 q 456 1240 456 1222 q 465 1268 456 1256 l 636 1439 q 667 1451 649 1451 q 697 1439 685 1451 q 710 1408 710 1426 q 697 1379 710 1392 l 526 1208 q 499 1197 515 1197 z "},"Ĕ":{"ha":953,"x_min":139,"x_max":890,"o":"m 181 0 q 151 12 163 0 q 139 42 139 24 l 139 1043 q 151 1073 139 1061 q 181 1085 163 1085 l 849 1085 q 878 1073 865 1085 q 890 1043 890 1061 q 878 1014 890 1026 q 849 1001 865 1001 l 222 1001 l 222 585 l 682 585 q 712 573 700 585 q 724 543 724 561 q 712 513 724 525 q 682 500 700 500 l 222 500 l 222 83 l 849 83 q 878 71 865 83 q 890 42 890 58 q 878 12 890 24 q 849 0 865 0 l 181 0 m 518 1225 q 413 1246 461 1225 q 335 1302 364 1267 q 307 1379 307 1338 q 319 1410 307 1397 q 350 1422 332 1422 q 380 1410 368 1422 q 392 1379 392 1397 q 426 1323 392 1346 q 518 1300 460 1300 q 611 1323 576 1300 q 646 1379 646 1346 q 658 1410 646 1397 q 688 1422 669 1422 q 717 1410 704 1422 q 731 1381 729 1397 q 664 1268 725 1311 q 518 1225 603 1225 z "},"Ě":{"ha":953,"x_min":139,"x_max":890,"o":"m 181 0 q 151 12 163 0 q 139 42 139 24 l 139 1043 q 151 1073 139 1061 q 181 1085 163 1085 l 849 1085 q 878 1073 865 1085 q 890 1043 890 1061 q 878 1014 890 1026 q 849 1001 865 1001 l 222 1001 l 222 585 l 682 585 q 712 573 700 585 q 724 543 724 561 q 712 513 724 525 q 682 500 700 500 l 222 500 l 222 83 l 849 83 q 878 71 865 83 q 890 42 890 58 q 878 12 890 24 q 849 0 865 0 l 181 0 m 519 1225 q 499 1231 506 1225 l 331 1342 q 308 1379 308 1356 q 319 1406 308 1396 q 344 1417 329 1417 q 378 1406 361 1417 l 519 1308 l 661 1403 q 696 1415 679 1415 q 721 1405 711 1415 q 731 1379 731 1394 q 708 1342 731 1358 l 540 1231 q 519 1225 533 1225 z "},"Ê":{"ha":953,"x_min":139,"x_max":890,"o":"m 181 0 q 151 12 163 0 q 139 42 139 24 l 139 1043 q 151 1073 139 1061 q 181 1085 163 1085 l 849 1085 q 878 1073 865 1085 q 890 1043 890 1061 q 878 1014 890 1026 q 849 1001 865 1001 l 222 1001 l 222 585 l 682 585 q 712 573 700 585 q 724 543 724 561 q 712 513 724 525 q 682 500 700 500 l 222 500 l 222 83 l 849 83 q 878 71 865 83 q 890 42 890 58 q 878 12 890 24 q 849 0 865 0 l 181 0 m 353 1225 q 321 1237 333 1225 q 308 1267 308 1249 q 331 1304 308 1290 l 499 1417 q 519 1422 510 1422 q 540 1417 529 1422 l 708 1304 q 731 1267 731 1290 q 718 1237 731 1249 q 688 1225 706 1225 q 661 1233 674 1225 l 519 1328 l 378 1233 q 353 1225 365 1225 z "},"Ế":{"ha":953,"x_min":139,"x_max":890,"o":"m 181 0 q 151 12 163 0 q 139 42 139 24 l 139 1043 q 151 1073 139 1061 q 181 1085 163 1085 l 849 1085 q 878 1073 865 1085 q 890 1043 890 1061 q 878 1014 890 1026 q 849 1001 865 1001 l 222 1001 l 222 585 l 682 585 q 712 573 700 585 q 724 543 724 561 q 712 513 724 525 q 682 500 700 500 l 222 500 l 222 83 l 849 83 q 878 71 865 83 q 890 42 890 58 q 878 12 890 24 q 849 0 865 0 l 181 0 m 353 1225 q 321 1237 333 1225 q 308 1267 308 1249 q 331 1304 308 1290 l 499 1417 q 519 1422 510 1422 q 540 1417 529 1422 l 708 1304 q 731 1267 731 1290 q 718 1237 731 1249 q 688 1225 706 1225 q 661 1233 674 1225 l 519 1328 l 378 1233 q 353 1225 365 1225 m 625 1456 q 594 1468 607 1456 q 582 1499 582 1481 q 592 1526 582 1514 l 763 1697 q 793 1710 775 1710 q 824 1697 811 1710 q 836 1667 836 1685 q 824 1638 836 1650 l 653 1467 q 625 1456 642 1456 z "},"Ệ":{"ha":953,"x_min":139,"x_max":890,"o":"m 181 0 q 151 12 163 0 q 139 42 139 24 l 139 1043 q 151 1073 139 1061 q 181 1085 163 1085 l 849 1085 q 878 1073 865 1085 q 890 1043 890 1061 q 878 1014 890 1026 q 849 1001 865 1001 l 222 1001 l 222 585 l 682 585 q 712 573 700 585 q 724 543 724 561 q 712 513 724 525 q 682 500 700 500 l 222 500 l 222 83 l 849 83 q 878 71 865 83 q 890 42 890 58 q 878 12 890 24 q 849 0 865 0 l 181 0 m 353 1225 q 321 1237 333 1225 q 308 1267 308 1249 q 331 1304 308 1290 l 499 1417 q 519 1422 510 1422 q 540 1417 529 1422 l 708 1304 q 731 1267 731 1290 q 718 1237 731 1249 q 688 1225 706 1225 q 661 1233 674 1225 l 519 1328 l 378 1233 q 353 1225 365 1225 m 490 -275 q 444 -256 463 -275 q 426 -210 426 -237 q 446 -162 426 -179 q 492 -146 465 -146 q 537 -162 518 -146 q 556 -210 556 -179 q 537 -256 556 -237 q 490 -275 518 -275 z "},"Ề":{"ha":953,"x_min":139,"x_max":890,"o":"m 181 0 q 151 12 163 0 q 139 42 139 24 l 139 1043 q 151 1073 139 1061 q 181 1085 163 1085 l 849 1085 q 878 1073 865 1085 q 890 1043 890 1061 q 878 1014 890 1026 q 849 1001 865 1001 l 222 1001 l 222 585 l 682 585 q 712 573 700 585 q 724 543 724 561 q 712 513 724 525 q 682 500 700 500 l 222 500 l 222 83 l 849 83 q 878 71 865 83 q 890 42 890 58 q 878 12 890 24 q 849 0 865 0 l 181 0 m 353 1225 q 321 1237 333 1225 q 308 1267 308 1249 q 331 1304 308 1290 l 499 1417 q 519 1422 510 1422 q 540 1417 529 1422 l 708 1304 q 731 1267 731 1290 q 718 1237 731 1249 q 688 1225 706 1225 q 661 1233 674 1225 l 519 1328 l 378 1233 q 353 1225 365 1225 m 647 1471 q 618 1482 633 1471 l 447 1653 q 436 1682 436 1664 q 449 1713 436 1700 q 479 1725 461 1725 q 508 1713 496 1725 l 679 1542 q 689 1514 689 1532 q 677 1483 689 1496 q 647 1471 665 1471 z "},"Ể":{"ha":953,"x_min":139,"x_max":890,"o":"m 181 0 q 151 12 163 0 q 139 42 139 24 l 139 1043 q 151 1073 139 1061 q 181 1085 163 1085 l 849 1085 q 878 1073 865 1085 q 890 1043 890 1061 q 878 1014 890 1026 q 849 1001 865 1001 l 222 1001 l 222 585 l 682 585 q 712 573 700 585 q 724 543 724 561 q 712 513 724 525 q 682 500 700 500 l 222 500 l 222 83 l 849 83 q 878 71 865 83 q 890 42 890 58 q 878 12 890 24 q 849 0 865 0 l 181 0 m 354 1225 q 322 1237 335 1225 q 310 1267 310 1249 q 332 1304 310 1290 l 500 1417 q 521 1422 511 1422 q 542 1417 531 1422 l 710 1304 q 732 1267 732 1290 q 719 1237 732 1249 q 689 1225 707 1225 q 663 1233 675 1225 l 521 1328 l 379 1233 q 354 1225 367 1225 m 644 1411 q 616 1423 628 1411 q 604 1451 604 1435 l 604 1497 q 640 1542 604 1533 l 674 1549 q 719 1571 706 1556 q 732 1613 732 1586 q 710 1664 732 1644 q 656 1683 689 1683 q 597 1661 624 1683 q 571 1651 585 1651 q 542 1663 554 1651 q 531 1692 531 1675 q 544 1722 531 1711 q 656 1764 594 1764 q 768 1725 724 1764 q 813 1621 813 1686 q 776 1528 813 1563 q 685 1485 740 1494 l 685 1451 q 673 1423 685 1435 q 644 1411 661 1411 z "},"Ễ":{"ha":953,"x_min":139,"x_max":890,"o":"m 181 0 q 151 12 163 0 q 139 42 139 24 l 139 1043 q 151 1073 139 1061 q 181 1085 163 1085 l 849 1085 q 878 1073 865 1085 q 890 1043 890 1061 q 878 1014 890 1026 q 849 1001 865 1001 l 222 1001 l 222 585 l 682 585 q 712 573 700 585 q 724 543 724 561 q 712 513 724 525 q 682 500 700 500 l 222 500 l 222 83 l 849 83 q 878 71 865 83 q 890 42 890 58 q 878 12 890 24 q 849 0 865 0 l 181 0 m 353 1225 q 321 1237 333 1225 q 308 1267 308 1249 q 331 1304 308 1290 l 499 1417 q 519 1422 510 1422 q 540 1417 529 1422 l 708 1304 q 731 1267 731 1290 q 718 1237 731 1249 q 688 1225 706 1225 q 661 1233 674 1225 l 519 1328 l 378 1233 q 353 1225 365 1225 m 603 1461 q 547 1476 574 1461 q 501 1508 519 1490 q 465 1540 479 1531 q 433 1549 450 1549 q 404 1534 417 1549 q 375 1489 392 1519 q 336 1464 363 1464 q 310 1474 319 1464 q 301 1497 301 1483 q 306 1517 301 1507 q 360 1595 329 1571 q 432 1619 390 1619 q 483 1609 464 1619 q 532 1574 503 1599 q 573 1542 560 1550 q 597 1535 586 1535 q 633 1576 618 1535 q 653 1601 639 1593 q 683 1606 668 1610 q 714 1571 714 1597 q 710 1554 714 1563 q 663 1483 689 1504 q 603 1461 638 1461 z "},"Ȅ":{"ha":953,"x_min":139,"x_max":890,"o":"m 181 0 q 151 12 163 0 q 139 42 139 24 l 139 1043 q 151 1073 139 1061 q 181 1085 163 1085 l 849 1085 q 878 1073 865 1085 q 890 1043 890 1061 q 878 1014 890 1026 q 849 1001 865 1001 l 222 1001 l 222 585 l 682 585 q 712 573 700 585 q 724 543 724 561 q 712 513 724 525 q 682 500 700 500 l 222 500 l 222 83 l 849 83 q 878 71 865 83 q 890 42 890 58 q 878 12 890 24 q 849 0 865 0 l 181 0 m 457 1199 q 429 1218 438 1199 l 339 1408 q 336 1424 336 1417 q 348 1453 336 1440 q 379 1465 360 1465 q 402 1458 392 1465 q 417 1439 413 1451 l 482 1239 q 483 1226 483 1236 q 476 1206 483 1214 q 457 1199 468 1199 m 675 1199 q 647 1218 657 1199 l 557 1408 q 554 1424 554 1417 q 566 1453 554 1440 q 597 1465 578 1465 q 620 1458 610 1465 q 636 1439 631 1451 l 700 1239 q 701 1226 701 1236 q 694 1206 701 1214 q 675 1199 686 1199 z "},"Ë":{"ha":953,"x_min":139,"x_max":890,"o":"m 181 0 q 151 12 163 0 q 139 42 139 24 l 139 1043 q 151 1073 139 1061 q 181 1085 163 1085 l 849 1085 q 878 1073 865 1085 q 890 1043 890 1061 q 878 1014 890 1026 q 849 1001 865 1001 l 222 1001 l 222 585 l 682 585 q 712 573 700 585 q 724 543 724 561 q 712 513 724 525 q 682 500 700 500 l 222 500 l 222 83 l 849 83 q 878 71 865 83 q 890 42 890 58 q 878 12 890 24 q 849 0 865 0 l 181 0 m 381 1238 q 329 1258 350 1238 q 308 1310 308 1279 q 329 1360 308 1339 q 381 1381 350 1381 q 431 1360 411 1381 q 451 1310 451 1339 q 431 1258 451 1279 q 381 1238 411 1238 m 658 1238 q 607 1258 628 1238 q 586 1310 586 1279 q 607 1360 586 1339 q 658 1381 628 1381 q 709 1360 689 1381 q 729 1310 729 1339 q 709 1258 729 1279 q 658 1238 689 1238 z "},"Ė":{"ha":953,"x_min":139,"x_max":890,"o":"m 181 0 q 151 12 163 0 q 139 42 139 24 l 139 1043 q 151 1073 139 1061 q 181 1085 163 1085 l 849 1085 q 878 1073 865 1085 q 890 1043 890 1061 q 878 1014 890 1026 q 849 1001 865 1001 l 222 1001 l 222 585 l 682 585 q 712 573 700 585 q 724 543 724 561 q 712 513 724 525 q 682 500 700 500 l 222 500 l 222 83 l 849 83 q 878 71 865 83 q 890 42 890 58 q 878 12 890 24 q 849 0 865 0 l 181 0 m 518 1244 q 472 1263 490 1244 q 454 1310 454 1282 q 474 1357 454 1340 q 519 1374 493 1374 q 565 1357 546 1374 q 583 1310 583 1340 q 565 1263 583 1282 q 518 1244 546 1244 z "},"Ẹ":{"ha":953,"x_min":139,"x_max":890,"o":"m 181 0 q 151 12 163 0 q 139 42 139 24 l 139 1043 q 151 1073 139 1061 q 181 1085 163 1085 l 849 1085 q 878 1073 865 1085 q 890 1043 890 1061 q 878 1014 890 1026 q 849 1001 865 1001 l 222 1001 l 222 585 l 682 585 q 712 573 700 585 q 724 543 724 561 q 712 513 724 525 q 682 500 700 500 l 222 500 l 222 83 l 849 83 q 878 71 865 83 q 890 42 890 58 q 878 12 890 24 q 849 0 865 0 l 181 0 m 490 -275 q 444 -256 463 -275 q 426 -210 426 -237 q 446 -162 426 -179 q 492 -146 465 -146 q 537 -162 518 -146 q 556 -210 556 -179 q 537 -256 556 -237 q 490 -275 518 -275 z "},"È":{"ha":953,"x_min":139,"x_max":890,"o":"m 181 0 q 151 12 163 0 q 139 42 139 24 l 139 1043 q 151 1073 139 1061 q 181 1085 163 1085 l 849 1085 q 878 1073 865 1085 q 890 1043 890 1061 q 878 1014 890 1026 q 849 1001 865 1001 l 222 1001 l 222 585 l 682 585 q 712 573 700 585 q 724 543 724 561 q 712 513 724 525 q 682 500 700 500 l 222 500 l 222 83 l 849 83 q 878 71 865 83 q 890 42 890 58 q 878 12 890 24 q 849 0 865 0 l 181 0 m 521 1213 q 492 1224 507 1213 l 321 1394 q 310 1424 310 1406 q 322 1454 310 1442 q 353 1467 335 1467 q 382 1454 369 1467 l 553 1283 q 563 1256 563 1274 q 551 1225 563 1238 q 521 1213 539 1213 z "},"Ẻ":{"ha":953,"x_min":139,"x_max":890,"o":"m 181 0 q 151 12 163 0 q 139 42 139 24 l 139 1043 q 151 1073 139 1061 q 181 1085 163 1085 l 849 1085 q 878 1073 865 1085 q 890 1043 890 1061 q 878 1014 890 1026 q 849 1001 865 1001 l 222 1001 l 222 585 l 682 585 q 712 573 700 585 q 724 543 724 561 q 712 513 724 525 q 682 500 700 500 l 222 500 l 222 83 l 849 83 q 878 71 865 83 q 890 42 890 58 q 878 12 890 24 q 849 0 865 0 l 181 0 m 517 1153 q 488 1165 500 1153 q 476 1193 476 1176 l 476 1239 q 513 1283 476 1275 l 546 1290 q 591 1313 578 1297 q 604 1354 604 1328 q 583 1406 604 1386 q 528 1425 561 1425 q 469 1403 496 1425 q 443 1393 457 1393 q 415 1405 426 1393 q 403 1433 403 1417 q 417 1464 403 1453 q 528 1506 467 1506 q 640 1467 596 1506 q 685 1363 685 1428 q 649 1270 685 1304 q 557 1226 613 1236 l 557 1193 q 545 1165 557 1176 q 517 1153 533 1153 z "},"Ȇ":{"ha":953,"x_min":139,"x_max":890,"o":"m 181 0 q 151 12 163 0 q 139 42 139 24 l 139 1043 q 151 1073 139 1061 q 181 1085 163 1085 l 849 1085 q 878 1073 865 1085 q 890 1043 890 1061 q 878 1014 890 1026 q 849 1001 865 1001 l 222 1001 l 222 585 l 682 585 q 712 573 700 585 q 724 543 724 561 q 712 513 724 525 q 682 500 700 500 l 222 500 l 222 83 l 849 83 q 878 71 865 83 q 890 42 890 58 q 878 12 890 24 q 849 0 865 0 l 181 0 m 518 1422 q 664 1379 603 1422 q 731 1267 725 1336 q 717 1238 729 1250 q 688 1225 704 1225 q 658 1238 669 1225 q 646 1268 646 1250 q 611 1324 646 1301 q 518 1347 576 1347 q 426 1324 460 1347 q 392 1268 392 1301 q 380 1238 392 1250 q 350 1225 368 1225 q 319 1238 332 1225 q 307 1268 307 1250 q 335 1345 307 1310 q 413 1401 364 1381 q 518 1422 461 1422 z "},"Ē":{"ha":953,"x_min":139,"x_max":890,"o":"m 181 0 q 151 12 163 0 q 139 42 139 24 l 139 1043 q 151 1073 139 1061 q 181 1085 163 1085 l 849 1085 q 878 1073 865 1085 q 890 1043 890 1061 q 878 1014 890 1026 q 849 1001 865 1001 l 222 1001 l 222 585 l 682 585 q 712 573 700 585 q 724 543 724 561 q 712 513 724 525 q 682 500 700 500 l 222 500 l 222 83 l 849 83 q 878 71 865 83 q 890 42 890 58 q 878 12 890 24 q 849 0 865 0 l 181 0 m 335 1243 q 305 1255 317 1243 q 293 1285 293 1267 q 305 1315 293 1303 q 335 1328 317 1328 l 703 1328 q 733 1315 721 1328 q 744 1285 744 1303 q 733 1255 744 1267 q 703 1243 721 1243 l 335 1243 z "},"Ę":{"ha":953,"x_min":139,"x_max":1021,"o":"m 978 -208 q 1008 -221 996 -208 q 1021 -251 1021 -233 q 1007 -283 1021 -272 l 950 -322 q 865 -349 911 -349 q 757 -303 803 -349 q 711 -194 711 -258 q 776 -68 711 -121 q 829 -7 819 -33 l 833 0 l 181 0 q 151 12 163 0 q 139 42 139 24 l 139 1043 q 151 1073 139 1061 q 181 1085 163 1085 l 849 1085 q 878 1073 865 1085 q 890 1043 890 1061 q 878 1014 890 1026 q 849 1001 865 1001 l 222 1001 l 222 585 l 682 585 q 712 573 700 585 q 724 543 724 561 q 712 513 724 525 q 682 500 700 500 l 222 500 l 222 83 l 849 83 q 878 71 865 83 q 890 42 890 58 q 878 13 890 24 q 900 -2 892 8 q 908 -26 908 -12 q 888 -80 908 -53 q 825 -137 867 -107 q 796 -194 796 -161 q 816 -244 796 -224 q 865 -264 836 -264 q 904 -253 888 -264 l 953 -217 q 978 -208 965 -208 z "},"Ẽ":{"ha":953,"x_min":139,"x_max":890,"o":"m 181 0 q 151 12 163 0 q 139 42 139 24 l 139 1043 q 151 1073 139 1061 q 181 1085 163 1085 l 849 1085 q 878 1073 865 1085 q 890 1043 890 1061 q 878 1014 890 1026 q 849 1001 865 1001 l 222 1001 l 222 585 l 682 585 q 712 573 700 585 q 724 543 724 561 q 712 513 724 525 q 682 500 700 500 l 222 500 l 222 83 l 849 83 q 878 71 865 83 q 890 42 890 58 q 878 12 890 24 q 849 0 865 0 l 181 0 m 665 1200 q 597 1213 626 1200 q 535 1249 568 1226 q 490 1274 507 1268 q 456 1281 474 1281 q 349 1224 399 1281 q 314 1207 336 1207 q 293 1213 300 1207 q 272 1244 272 1225 q 281 1268 272 1258 q 363 1337 318 1313 q 456 1361 408 1361 q 519 1349 492 1361 q 581 1315 546 1338 q 626 1288 610 1296 q 665 1281 642 1281 q 742 1311 713 1281 q 781 1331 758 1331 q 796 1326 790 1331 q 821 1293 821 1314 q 813 1271 821 1282 q 665 1200 758 1200 z "},"F":{"ha":868,"x_min":54,"x_max":806,"o":"m 96 0 q 66 12 78 0 q 54 42 54 24 l 54 1043 q 66 1073 54 1061 q 96 1085 78 1085 l 764 1085 q 793 1073 781 1085 q 806 1043 806 1061 q 793 1014 806 1026 q 764 1001 781 1001 l 138 1001 l 138 585 l 597 585 q 627 573 615 585 q 639 543 639 561 q 627 513 639 525 q 597 500 615 500 l 138 500 l 138 42 q 126 12 138 24 q 96 0 114 0 z "},"G":{"ha":1065,"x_min":83,"x_max":982,"o":"m 936 528 q 966 517 954 528 q 978 488 978 506 l 978 135 q 976 119 978 125 q 968 106 975 113 q 626 -14 849 -14 q 356 62 481 -14 q 157 266 231 138 q 83 543 83 394 q 156 819 83 692 q 353 1023 229 947 q 626 1099 478 1099 q 969 975 821 1099 q 982 947 982 965 q 971 917 982 931 q 940 904 960 904 q 906 921 925 904 q 626 1015 800 1015 q 398 950 504 1015 q 229 776 292 885 q 167 543 167 667 q 228 306 167 415 q 397 133 290 197 q 626 69 503 69 q 894 156 778 69 l 894 453 l 661 453 q 631 464 643 453 q 619 492 619 475 q 631 517 619 507 q 661 528 643 528 l 936 528 z "},"Ğ":{"ha":1065,"x_min":83,"x_max":982,"o":"m 936 528 q 966 517 954 528 q 978 488 978 506 l 978 135 q 976 119 978 125 q 968 106 975 113 q 626 -14 849 -14 q 356 62 481 -14 q 157 266 231 138 q 83 543 83 394 q 156 819 83 692 q 353 1023 229 947 q 626 1099 478 1099 q 969 975 821 1099 q 982 947 982 965 q 971 917 982 931 q 940 904 960 904 q 906 921 925 904 q 626 1015 800 1015 q 398 950 504 1015 q 229 776 292 885 q 167 543 167 667 q 228 306 167 415 q 397 133 290 197 q 626 69 503 69 q 894 156 778 69 l 894 453 l 661 453 q 631 464 643 453 q 619 492 619 475 q 631 517 619 507 q 661 528 643 528 l 936 528 m 601 1225 q 496 1246 544 1225 q 419 1302 447 1267 q 390 1379 390 1338 q 403 1410 390 1397 q 433 1422 415 1422 q 463 1410 451 1422 q 475 1379 475 1397 q 509 1323 475 1346 q 601 1300 543 1300 q 694 1323 660 1300 q 729 1379 729 1346 q 741 1410 729 1397 q 771 1422 753 1422 q 800 1410 788 1422 q 814 1381 813 1397 q 747 1268 808 1311 q 601 1225 686 1225 z "},"Ǧ":{"ha":1065,"x_min":83,"x_max":982,"o":"m 936 528 q 966 517 954 528 q 978 488 978 506 l 978 135 q 976 119 978 125 q 968 106 975 113 q 626 -14 849 -14 q 356 62 481 -14 q 157 266 231 138 q 83 543 83 394 q 156 819 83 692 q 353 1023 229 947 q 626 1099 478 1099 q 969 975 821 1099 q 982 947 982 965 q 971 917 982 931 q 940 904 960 904 q 906 921 925 904 q 626 1015 800 1015 q 398 950 504 1015 q 229 776 292 885 q 167 543 167 667 q 228 306 167 415 q 397 133 290 197 q 626 69 503 69 q 894 156 778 69 l 894 453 l 661 453 q 631 464 643 453 q 619 492 619 475 q 631 517 619 507 q 661 528 643 528 l 936 528 m 603 1225 q 582 1231 589 1225 l 414 1342 q 392 1379 392 1356 q 402 1406 392 1396 q 428 1417 413 1417 q 461 1406 444 1417 l 603 1308 l 744 1403 q 779 1415 763 1415 q 804 1405 794 1415 q 814 1379 814 1394 q 792 1342 814 1358 l 624 1231 q 603 1225 617 1225 z "},"Ĝ":{"ha":1065,"x_min":83,"x_max":982,"o":"m 936 528 q 966 517 954 528 q 978 488 978 506 l 978 135 q 976 119 978 125 q 968 106 975 113 q 626 -14 849 -14 q 356 62 481 -14 q 157 266 231 138 q 83 543 83 394 q 156 819 83 692 q 353 1023 229 947 q 626 1099 478 1099 q 969 975 821 1099 q 982 947 982 965 q 971 917 982 931 q 940 904 960 904 q 906 921 925 904 q 626 1015 800 1015 q 398 950 504 1015 q 229 776 292 885 q 167 543 167 667 q 228 306 167 415 q 397 133 290 197 q 626 69 503 69 q 894 156 778 69 l 894 453 l 661 453 q 631 464 643 453 q 619 492 619 475 q 631 517 619 507 q 661 528 643 528 l 936 528 m 436 1225 q 404 1237 417 1225 q 392 1267 392 1249 q 414 1304 392 1290 l 582 1417 q 603 1422 593 1422 q 624 1417 613 1422 l 792 1304 q 814 1267 814 1290 q 801 1237 814 1249 q 771 1225 789 1225 q 744 1233 757 1225 l 603 1328 l 461 1233 q 436 1225 449 1225 z "},"Ģ":{"ha":1065,"x_min":83,"x_max":982,"o":"m 936 528 q 966 517 954 528 q 978 488 978 506 l 978 135 q 976 119 978 125 q 968 106 975 113 q 626 -14 849 -14 q 356 62 481 -14 q 157 266 231 138 q 83 543 83 394 q 156 819 83 692 q 353 1023 229 947 q 626 1099 478 1099 q 969 975 821 1099 q 982 947 982 965 q 971 917 982 931 q 940 904 960 904 q 906 921 925 904 q 626 1015 800 1015 q 398 950 504 1015 q 229 776 292 885 q 167 543 167 667 q 228 306 167 415 q 397 133 290 197 q 626 69 503 69 q 894 156 778 69 l 894 453 l 661 453 q 631 464 643 453 q 619 492 619 475 q 631 517 619 507 q 661 528 643 528 l 936 528 m 613 -322 q 502 -294 556 -322 q 449 -231 449 -267 q 458 -206 449 -215 q 483 -197 467 -197 q 510 -202 499 -197 q 535 -218 521 -207 q 571 -240 553 -232 q 617 -247 589 -247 q 679 -229 656 -247 q 703 -181 703 -211 q 680 -138 703 -154 q 613 -122 657 -122 q 551 -89 551 -122 q 607 -54 551 -54 q 728 -91 681 -54 q 775 -185 775 -128 q 728 -283 775 -244 q 613 -322 681 -322 z "},"Ġ":{"ha":1065,"x_min":83,"x_max":982,"o":"m 936 528 q 966 517 954 528 q 978 488 978 506 l 978 135 q 976 119 978 125 q 968 106 975 113 q 626 -14 849 -14 q 356 62 481 -14 q 157 266 231 138 q 83 543 83 394 q 156 819 83 692 q 353 1023 229 947 q 626 1099 478 1099 q 969 975 821 1099 q 982 947 982 965 q 971 917 982 931 q 940 904 960 904 q 906 921 925 904 q 626 1015 800 1015 q 398 950 504 1015 q 229 776 292 885 q 167 543 167 667 q 228 306 167 415 q 397 133 290 197 q 626 69 503 69 q 894 156 778 69 l 894 453 l 661 453 q 631 464 643 453 q 619 492 619 475 q 631 517 619 507 q 661 528 643 528 l 936 528 m 601 1244 q 556 1263 574 1244 q 538 1310 538 1282 q 557 1357 538 1340 q 603 1374 576 1374 q 648 1357 629 1374 q 667 1310 667 1340 q 648 1263 667 1282 q 601 1244 629 1244 z "},"H":{"ha":1146,"x_min":139,"x_max":1007,"o":"m 181 0 q 151 12 163 0 q 139 42 139 24 l 139 1043 q 151 1073 139 1061 q 181 1085 163 1085 q 210 1073 199 1085 q 222 1043 222 1061 l 222 585 l 924 585 l 924 1043 q 935 1073 924 1061 q 965 1085 947 1085 q 994 1073 982 1085 q 1007 1043 1007 1061 l 1007 42 q 994 12 1007 24 q 965 0 982 0 q 935 12 947 0 q 924 42 924 24 l 924 510 l 222 510 l 222 42 q 210 12 222 24 q 181 0 199 0 z "},"Ħ":{"ha":1146,"x_min":31,"x_max":1131,"o":"m 1093 914 q 1120 903 1110 914 q 1131 876 1131 893 q 1120 849 1131 860 q 1093 839 1110 839 l 1007 839 l 1007 42 q 994 12 1007 24 q 965 0 982 0 q 935 12 947 0 q 924 42 924 24 l 924 510 l 222 510 l 222 42 q 210 12 222 24 q 181 0 199 0 q 151 12 163 0 q 139 42 139 24 l 139 839 l 68 839 q 41 849 51 839 q 31 876 31 860 q 41 903 31 893 q 68 914 51 914 l 139 914 l 139 1043 q 151 1073 139 1061 q 181 1085 163 1085 q 210 1073 199 1085 q 222 1043 222 1061 l 222 914 l 924 914 l 924 1043 q 935 1073 924 1061 q 965 1085 947 1085 q 994 1073 982 1085 q 1007 1043 1007 1061 l 1007 914 l 1093 914 m 924 585 l 924 839 l 222 839 l 222 585 l 924 585 z "},"Ĥ":{"ha":1146,"x_min":139,"x_max":1007,"o":"m 181 0 q 151 12 163 0 q 139 42 139 24 l 139 1043 q 151 1073 139 1061 q 181 1085 163 1085 q 210 1073 199 1085 q 222 1043 222 1061 l 222 585 l 924 585 l 924 1043 q 935 1073 924 1061 q 965 1085 947 1085 q 994 1073 982 1085 q 1007 1043 1007 1061 l 1007 42 q 994 12 1007 24 q 965 0 982 0 q 935 12 947 0 q 924 42 924 24 l 924 510 l 222 510 l 222 42 q 210 12 222 24 q 181 0 199 0 m 407 1225 q 375 1237 388 1225 q 363 1267 363 1249 q 385 1304 363 1290 l 553 1417 q 574 1422 564 1422 q 594 1417 583 1422 l 763 1304 q 785 1267 785 1290 q 772 1237 785 1249 q 742 1225 760 1225 q 715 1233 728 1225 l 574 1328 l 432 1233 q 407 1225 419 1225 z "},"I":{"ha":361,"x_min":139,"x_max":222,"o":"m 181 0 q 151 12 163 0 q 139 42 139 24 l 139 1043 q 151 1073 139 1061 q 181 1085 163 1085 q 210 1073 199 1085 q 222 1043 222 1061 l 222 42 q 210 12 222 24 q 181 0 199 0 z "},"Ĳ":{"ha":876,"x_min":139,"x_max":738,"o":"m 181 403 q 151 415 163 403 q 139 444 139 426 l 139 1043 q 151 1073 139 1061 q 181 1085 163 1085 q 210 1073 199 1085 q 222 1043 222 1061 l 222 444 q 210 415 222 426 q 181 403 199 403 m 446 -14 q 290 17 360 -14 q 179 106 219 47 q 139 250 139 165 q 151 280 139 268 q 181 292 163 292 q 210 280 199 292 q 222 250 222 268 q 284 113 222 157 q 446 69 346 69 q 551 101 503 69 q 626 188 599 133 q 654 306 654 243 l 654 1043 q 667 1073 654 1061 q 696 1085 679 1085 q 726 1073 714 1085 q 738 1043 738 1061 l 738 306 q 698 146 738 219 q 592 29 658 72 q 446 -14 525 -14 z "},"Í":{"ha":361,"x_min":117,"x_max":371,"o":"m 181 0 q 151 12 163 0 q 139 42 139 24 l 139 1043 q 151 1073 139 1061 q 181 1085 163 1085 q 210 1073 199 1085 q 222 1043 222 1061 l 222 42 q 210 12 222 24 q 181 0 199 0 m 160 1197 q 129 1210 142 1197 q 117 1240 117 1222 q 126 1268 117 1256 l 297 1439 q 328 1451 310 1451 q 358 1439 346 1451 q 371 1408 371 1426 q 358 1379 371 1392 l 188 1208 q 160 1197 176 1197 z "},"Ĭ":{"ha":361,"x_min":-32,"x_max":392,"o":"m 181 0 q 151 12 163 0 q 139 42 139 24 l 139 1043 q 151 1073 139 1061 q 181 1085 163 1085 q 210 1073 199 1085 q 222 1043 222 1061 l 222 42 q 210 12 222 24 q 181 0 199 0 m 179 1225 q 74 1246 122 1225 q -3 1302 25 1267 q -32 1379 -32 1338 q -19 1410 -32 1397 q 11 1422 -7 1422 q 41 1410 29 1422 q 53 1379 53 1397 q 87 1323 53 1346 q 179 1300 121 1300 q 272 1323 238 1300 q 307 1379 307 1346 q 319 1410 307 1397 q 349 1422 331 1422 q 378 1410 365 1422 q 392 1381 390 1397 q 325 1268 386 1311 q 179 1225 264 1225 z "},"Î":{"ha":361,"x_min":-31,"x_max":392,"o":"m 181 0 q 151 12 163 0 q 139 42 139 24 l 139 1043 q 151 1073 139 1061 q 181 1085 163 1085 q 210 1073 199 1085 q 222 1043 222 1061 l 222 42 q 210 12 222 24 q 181 0 199 0 m 14 1225 q -18 1237 -6 1225 q -31 1267 -31 1249 q -8 1304 -31 1290 l 160 1417 q 181 1422 171 1422 q 201 1417 190 1422 l 369 1304 q 392 1267 392 1290 q 379 1237 392 1249 q 349 1225 367 1225 q 322 1233 335 1225 l 181 1328 l 39 1233 q 14 1225 26 1225 z "},"Ȉ":{"ha":361,"x_min":-3,"x_max":363,"o":"m 181 0 q 151 12 163 0 q 139 42 139 24 l 139 1043 q 151 1073 139 1061 q 181 1085 163 1085 q 210 1073 199 1085 q 222 1043 222 1061 l 222 42 q 210 12 222 24 q 181 0 199 0 m 118 1199 q 90 1218 99 1199 l 0 1408 q -3 1424 -3 1417 q 9 1453 -3 1440 q 40 1465 21 1465 q 63 1458 53 1465 q 78 1439 74 1451 l 143 1239 q 144 1226 144 1236 q 137 1206 144 1214 q 118 1199 129 1199 m 336 1199 q 308 1218 318 1199 l 218 1408 q 215 1424 215 1417 q 227 1453 215 1440 q 258 1465 239 1465 q 281 1458 271 1465 q 297 1439 292 1451 l 361 1239 q 363 1226 363 1236 q 355 1206 363 1214 q 336 1199 347 1199 z "},"Ï":{"ha":361,"x_min":-31,"x_max":390,"o":"m 181 0 q 151 12 163 0 q 139 42 139 24 l 139 1043 q 151 1073 139 1061 q 181 1085 163 1085 q 210 1073 199 1085 q 222 1043 222 1061 l 222 42 q 210 12 222 24 q 181 0 199 0 m 42 1238 q -10 1258 11 1238 q -31 1310 -31 1279 q -10 1360 -31 1339 q 42 1381 11 1381 q 92 1360 72 1381 q 113 1310 113 1339 q 92 1258 113 1279 q 42 1238 72 1238 m 319 1238 q 268 1258 289 1238 q 247 1310 247 1279 q 268 1360 247 1339 q 319 1381 289 1381 q 370 1360 350 1381 q 390 1310 390 1339 q 370 1258 390 1279 q 319 1238 350 1238 z "},"İ":{"ha":361,"x_min":115,"x_max":244,"o":"m 181 0 q 151 12 163 0 q 139 42 139 24 l 139 1043 q 151 1073 139 1061 q 181 1085 163 1085 q 210 1073 199 1085 q 222 1043 222 1061 l 222 42 q 210 12 222 24 q 181 0 199 0 m 179 1244 q 133 1263 151 1244 q 115 1310 115 1282 q 135 1357 115 1340 q 181 1374 154 1374 q 226 1357 207 1374 q 244 1310 244 1340 q 226 1263 244 1282 q 179 1244 207 1244 z "},"Ị":{"ha":361,"x_min":115,"x_max":244,"o":"m 181 0 q 151 12 163 0 q 139 42 139 24 l 139 1043 q 151 1073 139 1061 q 181 1085 163 1085 q 210 1073 199 1085 q 222 1043 222 1061 l 222 42 q 210 12 222 24 q 181 0 199 0 m 179 -275 q 133 -256 151 -275 q 115 -210 115 -237 q 135 -162 115 -179 q 181 -146 154 -146 q 226 -162 207 -146 q 244 -210 244 -179 q 226 -256 244 -237 q 179 -275 207 -275 z "},"Ì":{"ha":361,"x_min":-29,"x_max":224,"o":"m 181 0 q 151 12 163 0 q 139 42 139 24 l 139 1043 q 151 1073 139 1061 q 181 1085 163 1085 q 210 1073 199 1085 q 222 1043 222 1061 l 222 42 q 210 12 222 24 q 181 0 199 0 m 182 1213 q 153 1224 168 1213 l -18 1394 q -29 1424 -29 1406 q -17 1454 -29 1442 q 14 1467 -4 1467 q 43 1454 31 1467 l 214 1283 q 224 1256 224 1274 q 212 1225 224 1238 q 182 1213 200 1213 z "},"Ỉ":{"ha":361,"x_min":64,"x_max":346,"o":"m 181 0 q 151 12 163 0 q 139 42 139 24 l 139 1043 q 151 1073 139 1061 q 181 1085 163 1085 q 210 1073 199 1085 q 222 1043 222 1061 l 222 42 q 210 12 222 24 q 181 0 199 0 m 178 1153 q 149 1165 161 1153 q 138 1193 138 1176 l 138 1239 q 174 1283 138 1275 l 207 1290 q 252 1313 239 1297 q 265 1354 265 1328 q 244 1406 265 1386 q 189 1425 222 1425 q 131 1403 157 1425 q 104 1393 118 1393 q 76 1405 88 1393 q 64 1433 64 1417 q 78 1464 64 1453 q 189 1506 128 1506 q 301 1467 257 1506 q 346 1363 346 1428 q 310 1270 346 1304 q 218 1226 274 1236 l 218 1193 q 206 1165 218 1176 q 178 1153 194 1153 z "},"Ȋ":{"ha":361,"x_min":-32,"x_max":392,"o":"m 181 0 q 151 12 163 0 q 139 42 139 24 l 139 1043 q 151 1073 139 1061 q 181 1085 163 1085 q 210 1073 199 1085 q 222 1043 222 1061 l 222 42 q 210 12 222 24 q 181 0 199 0 m 179 1422 q 325 1379 264 1422 q 392 1267 386 1336 q 378 1238 390 1250 q 349 1225 365 1225 q 319 1238 331 1225 q 307 1268 307 1250 q 272 1324 307 1301 q 179 1347 238 1347 q 87 1324 121 1347 q 53 1268 53 1301 q 41 1238 53 1250 q 11 1225 29 1225 q -19 1238 -7 1225 q -32 1268 -32 1250 q -3 1345 -32 1310 q 74 1401 25 1381 q 179 1422 122 1422 z "},"Ī":{"ha":361,"x_min":-46,"x_max":406,"o":"m 181 0 q 151 12 163 0 q 139 42 139 24 l 139 1043 q 151 1073 139 1061 q 181 1085 163 1085 q 210 1073 199 1085 q 222 1043 222 1061 l 222 42 q 210 12 222 24 q 181 0 199 0 m -4 1243 q -34 1255 -22 1243 q -46 1285 -46 1267 q -34 1315 -46 1303 q -4 1328 -22 1328 l 364 1328 q 394 1315 382 1328 q 406 1285 406 1303 q 394 1255 406 1267 q 364 1243 382 1243 l -4 1243 z "},"Į":{"ha":361,"x_min":26,"x_max":336,"o":"m 293 -208 q 324 -221 311 -208 q 336 -251 336 -233 q 322 -283 336 -272 l 265 -322 q 181 -349 226 -349 q 72 -303 118 -349 q 26 -194 26 -258 q 92 -68 26 -121 q 144 -7 135 -33 q 157 7 149 0 q 139 42 139 18 l 139 1043 q 151 1073 139 1061 q 181 1085 163 1085 q 210 1073 199 1085 q 222 1043 222 1061 l 222 42 q 206 7 222 21 q 224 -26 224 -4 q 203 -80 224 -53 q 140 -137 182 -107 q 111 -194 111 -161 q 131 -244 111 -224 q 181 -264 151 -264 q 219 -253 203 -264 l 268 -217 q 293 -208 281 -208 z "},"Ĩ":{"ha":361,"x_min":-36,"x_max":376,"o":"m 181 0 q 151 12 163 0 q 139 42 139 24 l 139 1043 q 151 1073 139 1061 q 181 1085 163 1085 q 210 1073 199 1085 q 222 1043 222 1061 l 222 42 q 210 12 222 24 q 181 0 199 0 m 265 1231 q 209 1245 236 1231 q 164 1278 182 1260 q 127 1309 142 1300 q 96 1318 113 1318 q 67 1303 79 1318 q 38 1258 54 1289 q -1 1233 25 1233 q -27 1243 -18 1233 q -36 1267 -36 1253 q -32 1286 -36 1276 q 22 1365 -8 1340 q 94 1389 53 1389 q 146 1378 126 1389 q 194 1343 165 1368 q 235 1312 222 1319 q 260 1304 249 1304 q 296 1346 281 1304 q 316 1371 301 1363 q 346 1375 331 1379 q 376 1340 376 1367 q 372 1324 376 1332 q 326 1252 351 1274 q 265 1231 300 1231 z "},"J":{"ha":842,"x_min":63,"x_max":703,"o":"m 383 -14 q 222 30 296 -14 q 106 147 149 74 q 63 306 63 219 q 74 335 63 324 q 104 347 86 347 q 134 335 122 347 q 146 306 146 324 q 178 188 146 242 q 265 101 211 133 q 383 69 319 69 q 501 101 447 69 q 588 188 556 133 q 619 306 619 243 l 619 1043 q 632 1073 619 1061 q 661 1085 644 1085 q 691 1073 679 1085 q 703 1043 703 1061 l 703 306 q 660 146 703 219 q 543 29 617 72 q 383 -14 469 -14 z "},"Ĵ":{"ha":842,"x_min":63,"x_max":872,"o":"m 383 -14 q 222 30 296 -14 q 106 147 149 74 q 63 306 63 219 q 74 335 63 324 q 104 347 86 347 q 134 335 122 347 q 146 306 146 324 q 178 188 146 242 q 265 101 211 133 q 383 69 319 69 q 501 101 447 69 q 588 188 556 133 q 619 306 619 243 l 619 1043 q 632 1073 619 1061 q 661 1085 644 1085 q 691 1073 679 1085 q 703 1043 703 1061 l 703 306 q 660 146 703 219 q 543 29 617 72 q 383 -14 469 -14 m 494 1225 q 463 1237 475 1225 q 450 1267 450 1249 q 472 1304 450 1290 l 640 1417 q 661 1422 651 1422 q 682 1417 671 1422 l 850 1304 q 872 1267 872 1290 q 860 1237 872 1249 q 829 1225 847 1225 q 803 1233 815 1225 l 661 1328 l 519 1233 q 494 1225 507 1225 z "},"K":{"ha":899,"x_min":139,"x_max":835,"o":"m 181 0 q 151 12 164 0 q 139 42 139 24 l 139 1043 q 151 1073 139 1061 q 181 1085 164 1085 q 210 1073 199 1085 q 222 1043 222 1061 l 222 533 l 761 1072 q 793 1085 776 1085 q 823 1072 811 1085 q 835 1043 835 1060 q 822 1013 835 1028 l 424 614 l 826 67 q 835 42 835 54 q 822 13 835 25 q 794 0 810 0 q 758 18 771 0 l 363 553 l 222 413 l 222 42 q 210 12 222 24 q 181 0 199 0 z "},"Ķ":{"ha":899,"x_min":139,"x_max":835,"o":"m 181 0 q 151 12 164 0 q 139 42 139 24 l 139 1043 q 151 1073 139 1061 q 181 1085 164 1085 q 210 1073 199 1085 q 222 1043 222 1061 l 222 533 l 761 1072 q 793 1085 776 1085 q 823 1072 811 1085 q 835 1043 835 1060 q 822 1013 835 1028 l 424 614 l 826 67 q 835 42 835 54 q 822 13 835 25 q 794 0 810 0 q 758 18 771 0 l 363 553 l 222 413 l 222 42 q 210 12 222 24 q 181 0 199 0 m 460 -322 q 349 -294 403 -322 q 296 -231 296 -267 q 305 -206 296 -215 q 331 -197 314 -197 q 357 -202 346 -197 q 382 -218 368 -207 q 418 -240 400 -232 q 464 -247 436 -247 q 526 -229 503 -247 q 550 -181 550 -211 q 527 -138 550 -154 q 460 -122 504 -122 q 399 -89 399 -122 q 454 -54 399 -54 q 575 -91 528 -54 q 622 -185 622 -128 q 575 -283 622 -244 q 460 -322 528 -322 z "},"L":{"ha":869,"x_min":139,"x_max":835,"o":"m 181 0 q 151 12 164 0 q 139 42 139 24 l 139 1043 q 151 1073 139 1061 q 181 1085 164 1085 q 210 1073 199 1085 q 222 1043 222 1061 l 222 75 l 793 75 q 823 65 811 75 q 835 38 835 54 q 823 10 835 21 q 793 0 811 0 l 181 0 z "},"Ĺ":{"ha":869,"x_min":117,"x_max":835,"o":"m 181 0 q 151 12 164 0 q 139 42 139 24 l 139 1043 q 151 1073 139 1061 q 181 1085 164 1085 q 210 1073 199 1085 q 222 1043 222 1061 l 222 75 l 793 75 q 823 65 811 75 q 835 38 835 54 q 823 10 835 21 q 793 0 811 0 l 181 0 m 160 1197 q 129 1210 142 1197 q 117 1240 117 1222 q 126 1268 117 1256 l 297 1439 q 328 1451 310 1451 q 358 1439 346 1451 q 371 1408 371 1426 q 358 1379 371 1392 l 188 1208 q 160 1197 176 1197 z "},"Ľ":{"ha":869,"x_min":139,"x_max":835,"o":"m 181 0 q 151 12 164 0 q 139 42 139 24 l 139 1043 q 151 1073 139 1061 q 181 1085 164 1085 q 210 1073 199 1085 q 222 1043 222 1061 l 222 75 l 793 75 q 823 65 811 75 q 835 38 835 54 q 823 10 835 21 q 793 0 811 0 l 181 0 m 538 749 q 519 756 526 749 q 513 775 513 764 q 526 810 513 785 q 551 863 542 838 q 563 922 560 888 q 561 951 564 939 q 551 978 558 963 q 544 996 550 981 q 539 1033 539 1011 q 599 1085 539 1085 q 646 1058 629 1085 q 663 989 663 1032 q 658 944 663 968 q 628 859 650 906 q 581 781 606 813 q 538 749 556 749 z "},"Ļ":{"ha":869,"x_min":139,"x_max":835,"o":"m 181 0 q 151 12 164 0 q 139 42 139 24 l 139 1043 q 151 1073 139 1061 q 181 1085 164 1085 q 210 1073 199 1085 q 222 1043 222 1061 l 222 75 l 793 75 q 823 65 811 75 q 835 38 835 54 q 823 10 835 21 q 793 0 811 0 l 181 0 m 458 -322 q 348 -294 401 -322 q 294 -231 294 -267 q 303 -206 294 -215 q 329 -197 313 -197 q 356 -202 344 -197 q 381 -218 367 -207 q 417 -240 399 -232 q 463 -247 435 -247 q 525 -229 501 -247 q 549 -181 549 -211 q 526 -138 549 -154 q 458 -122 503 -122 q 397 -89 397 -122 q 453 -54 397 -54 q 574 -91 526 -54 q 621 -185 621 -128 q 574 -283 621 -244 q 458 -322 526 -322 z "},"Ŀ":{"ha":814,"x_min":139,"x_max":835,"o":"m 181 0 q 151 12 164 0 q 139 42 139 24 l 139 1043 q 151 1073 139 1061 q 181 1085 164 1085 q 210 1073 199 1085 q 222 1043 222 1061 l 222 75 l 793 75 q 823 65 811 75 q 835 38 835 54 q 823 10 835 21 q 793 0 811 0 l 181 0 m 603 450 q 553 470 574 450 q 532 521 532 490 q 552 570 532 550 q 603 590 572 590 q 652 570 632 590 q 672 521 672 550 q 652 470 672 490 q 603 450 632 450 z "},"Ł":{"ha":922,"x_min":18,"x_max":863,"o":"m 208 0 q 178 12 190 0 q 167 42 167 24 l 167 444 l 88 367 q 58 354 78 354 q 30 367 42 354 q 18 397 18 379 q 29 426 18 413 l 167 563 l 167 1043 q 178 1073 167 1061 q 208 1085 190 1085 q 238 1073 226 1085 q 250 1043 250 1061 l 250 644 l 404 797 q 433 811 421 811 q 463 798 450 811 q 475 768 475 785 q 463 739 475 751 l 250 526 l 250 83 l 821 83 q 851 71 839 83 q 863 42 863 58 q 851 12 863 24 q 821 0 839 0 l 208 0 z "},"M":{"ha":1363,"x_min":139,"x_max":1224,"o":"m 1183 1085 q 1213 1073 1201 1085 q 1224 1043 1224 1061 l 1224 42 q 1213 12 1224 24 q 1183 0 1201 0 q 1153 12 1165 0 q 1140 42 1140 24 l 1140 893 l 718 33 q 682 14 708 14 q 643 40 657 14 l 222 881 l 222 42 q 210 12 222 24 q 181 0 199 0 q 151 12 163 0 q 139 42 139 24 l 139 1043 q 151 1073 139 1061 q 181 1085 163 1085 q 218 1064 208 1085 l 685 142 l 1146 1064 q 1183 1085 1158 1085 z "},"N":{"ha":1140,"x_min":139,"x_max":1001,"o":"m 181 0 q 151 12 163 0 q 139 42 139 24 l 139 1043 q 151 1073 139 1061 q 181 1085 163 1085 q 213 1071 200 1085 l 918 153 l 918 1043 q 930 1073 918 1061 q 960 1085 942 1085 q 989 1073 976 1085 q 1001 1043 1001 1061 l 1001 42 q 989 12 1001 24 q 960 0 976 0 q 929 13 940 0 l 222 932 l 222 42 q 210 12 222 24 q 181 0 199 0 z "},"Ń":{"ha":1140,"x_min":139,"x_max":1001,"o":"m 181 0 q 151 12 163 0 q 139 42 139 24 l 139 1043 q 151 1073 139 1061 q 181 1085 163 1085 q 213 1071 200 1085 l 918 153 l 918 1043 q 930 1073 918 1061 q 960 1085 942 1085 q 989 1073 976 1085 q 1001 1043 1001 1061 l 1001 42 q 989 12 1001 24 q 960 0 976 0 q 929 13 940 0 l 222 932 l 222 42 q 210 12 222 24 q 181 0 199 0 m 550 1197 q 519 1210 532 1197 q 507 1240 507 1222 q 517 1268 507 1256 l 688 1439 q 718 1451 700 1451 q 749 1439 736 1451 q 761 1408 761 1426 q 749 1379 761 1392 l 578 1208 q 550 1197 567 1197 z "},"Ň":{"ha":1140,"x_min":139,"x_max":1001,"o":"m 181 0 q 151 12 163 0 q 139 42 139 24 l 139 1043 q 151 1073 139 1061 q 181 1085 163 1085 q 213 1071 200 1085 l 918 153 l 918 1043 q 930 1073 918 1061 q 960 1085 942 1085 q 989 1073 976 1085 q 1001 1043 1001 1061 l 1001 42 q 989 12 1001 24 q 960 0 976 0 q 929 13 940 0 l 222 932 l 222 42 q 210 12 222 24 q 181 0 199 0 m 571 1225 q 550 1231 557 1225 l 382 1342 q 360 1379 360 1356 q 370 1406 360 1396 q 396 1417 381 1417 q 429 1406 413 1417 l 571 1308 l 713 1403 q 747 1415 731 1415 q 772 1405 763 1415 q 782 1379 782 1394 q 760 1342 782 1358 l 592 1231 q 571 1225 585 1225 z "},"Ņ":{"ha":1140,"x_min":139,"x_max":1001,"o":"m 181 0 q 151 12 163 0 q 139 42 139 24 l 139 1043 q 151 1073 139 1061 q 181 1085 163 1085 q 213 1071 200 1085 l 918 153 l 918 1043 q 930 1073 918 1061 q 960 1085 942 1085 q 989 1073 976 1085 q 1001 1043 1001 1061 l 1001 42 q 989 12 1001 24 q 960 0 976 0 q 929 13 940 0 l 222 932 l 222 42 q 210 12 222 24 q 181 0 199 0 m 581 -322 q 470 -294 524 -322 q 417 -231 417 -267 q 426 -206 417 -215 q 451 -197 435 -197 q 478 -202 467 -197 q 503 -218 489 -207 q 539 -240 521 -232 q 585 -247 557 -247 q 647 -229 624 -247 q 671 -181 671 -211 q 648 -138 671 -154 q 581 -122 625 -122 q 519 -89 519 -122 q 575 -54 519 -54 q 696 -91 649 -54 q 743 -185 743 -128 q 696 -283 743 -244 q 581 -322 649 -322 z "},"Ŋ":{"ha":963,"x_min":139,"x_max":865,"o":"m 500 1085 q 683 1035 600 1085 q 816 896 767 986 q 865 689 865 806 l 865 442 q 789 103 865 219 q 572 -12 713 -12 q 413 30 483 -12 q 326 136 342 72 q 331 165 322 154 q 360 176 340 176 q 384 167 372 176 q 403 143 396 158 q 469 88 419 110 q 572 65 519 65 q 782 442 782 65 l 782 675 q 707 911 782 821 q 500 1001 632 1001 q 356 974 419 1001 q 258 896 293 946 q 222 782 222 846 l 222 42 q 210 12 222 24 q 181 0 199 0 q 151 12 163 0 q 139 42 139 24 l 139 1043 q 151 1073 139 1061 q 181 1085 163 1085 q 210 1073 199 1085 q 222 1043 222 1061 l 222 953 q 340 1050 268 1015 q 500 1085 413 1085 z "},"Ñ":{"ha":1140,"x_min":139,"x_max":1001,"o":"m 181 0 q 151 12 163 0 q 139 42 139 24 l 139 1043 q 151 1073 139 1061 q 181 1085 163 1085 q 213 1071 200 1085 l 918 153 l 918 1043 q 930 1073 918 1061 q 960 1085 942 1085 q 989 1073 976 1085 q 1001 1043 1001 1061 l 1001 42 q 989 12 1001 24 q 960 0 976 0 q 929 13 940 0 l 222 932 l 222 42 q 210 12 222 24 q 181 0 199 0 m 717 1200 q 649 1213 678 1200 q 586 1249 619 1226 q 542 1274 558 1268 q 507 1281 525 1281 q 400 1224 450 1281 q 365 1207 388 1207 q 344 1213 351 1207 q 324 1244 324 1225 q 332 1268 324 1258 q 415 1337 369 1313 q 507 1361 460 1361 q 570 1349 543 1361 q 632 1315 597 1338 q 677 1288 661 1296 q 717 1281 693 1281 q 793 1311 764 1281 q 832 1331 810 1331 q 847 1326 842 1331 q 872 1293 872 1314 q 864 1271 872 1282 q 717 1200 810 1200 z "},"O":{"ha":1279,"x_min":83,"x_max":1196,"o":"m 640 -14 q 356 59 483 -14 q 156 259 229 132 q 83 543 83 386 q 156 826 83 699 q 356 1026 229 953 q 640 1099 483 1099 q 923 1026 796 1099 q 1123 826 1050 953 q 1196 543 1196 699 q 1123 259 1196 386 q 923 59 1050 132 q 640 -14 796 -14 m 640 69 q 881 131 772 69 q 1051 301 989 193 q 1113 543 1113 410 q 1051 783 1113 675 q 881 953 989 892 q 640 1015 772 1015 q 399 953 507 1015 q 228 783 290 892 q 167 543 167 675 q 228 301 167 410 q 399 131 290 193 q 640 69 507 69 z "},"Ó":{"ha":1279,"x_min":83,"x_max":1196,"o":"m 640 -14 q 356 59 483 -14 q 156 259 229 132 q 83 543 83 386 q 156 826 83 699 q 356 1026 229 953 q 640 1099 483 1099 q 923 1026 796 1099 q 1123 826 1050 953 q 1196 543 1196 699 q 1123 259 1196 386 q 923 59 1050 132 q 640 -14 796 -14 m 640 69 q 881 131 772 69 q 1051 301 989 193 q 1113 543 1113 410 q 1051 783 1113 675 q 881 953 989 892 q 640 1015 772 1015 q 399 953 507 1015 q 228 783 290 892 q 167 543 167 675 q 228 301 167 410 q 399 131 290 193 q 640 69 507 69 m 619 1197 q 589 1210 601 1197 q 576 1240 576 1222 q 586 1268 576 1256 l 757 1439 q 788 1451 769 1451 q 818 1439 806 1451 q 831 1408 831 1426 q 818 1379 831 1392 l 647 1208 q 619 1197 636 1197 z "},"Ŏ":{"ha":1279,"x_min":83,"x_max":1196,"o":"m 640 -14 q 356 59 483 -14 q 156 259 229 132 q 83 543 83 386 q 156 826 83 699 q 356 1026 229 953 q 640 1099 483 1099 q 923 1026 796 1099 q 1123 826 1050 953 q 1196 543 1196 699 q 1123 259 1196 386 q 923 59 1050 132 q 640 -14 796 -14 m 640 69 q 881 131 772 69 q 1051 301 989 193 q 1113 543 1113 410 q 1051 783 1113 675 q 881 953 989 892 q 640 1015 772 1015 q 399 953 507 1015 q 228 783 290 892 q 167 543 167 675 q 228 301 167 410 q 399 131 290 193 q 640 69 507 69 m 639 1225 q 533 1246 582 1225 q 456 1302 485 1267 q 428 1379 428 1338 q 440 1410 428 1397 q 471 1422 453 1422 q 501 1410 489 1422 q 513 1379 513 1397 q 547 1323 513 1346 q 639 1300 581 1300 q 732 1323 697 1300 q 767 1379 767 1346 q 778 1410 767 1397 q 808 1422 790 1422 q 838 1410 825 1422 q 851 1381 850 1397 q 785 1268 846 1311 q 639 1225 724 1225 z "},"Ô":{"ha":1279,"x_min":83,"x_max":1196,"o":"m 640 -14 q 356 59 483 -14 q 156 259 229 132 q 83 543 83 386 q 156 826 83 699 q 356 1026 229 953 q 640 1099 483 1099 q 923 1026 796 1099 q 1123 826 1050 953 q 1196 543 1196 699 q 1123 259 1196 386 q 923 59 1050 132 q 640 -14 796 -14 m 640 69 q 881 131 772 69 q 1051 301 989 193 q 1113 543 1113 410 q 1051 783 1113 675 q 881 953 989 892 q 640 1015 772 1015 q 399 953 507 1015 q 228 783 290 892 q 167 543 167 675 q 228 301 167 410 q 399 131 290 193 q 640 69 507 69 m 474 1225 q 442 1237 454 1225 q 429 1267 429 1249 q 451 1304 429 1290 l 619 1417 q 640 1422 631 1422 q 661 1417 650 1422 l 829 1304 q 851 1267 851 1290 q 839 1237 851 1249 q 808 1225 826 1225 q 782 1233 794 1225 l 640 1328 l 499 1233 q 474 1225 486 1225 z "},"Ố":{"ha":1279,"x_min":83,"x_max":1196,"o":"m 640 -14 q 356 59 483 -14 q 156 259 229 132 q 83 543 83 386 q 156 826 83 699 q 356 1026 229 953 q 640 1099 483 1099 q 923 1026 796 1099 q 1123 826 1050 953 q 1196 543 1196 699 q 1123 259 1196 386 q 923 59 1050 132 q 640 -14 796 -14 m 640 69 q 881 131 772 69 q 1051 301 989 193 q 1113 543 1113 410 q 1051 783 1113 675 q 881 953 989 892 q 640 1015 772 1015 q 399 953 507 1015 q 228 783 290 892 q 167 543 167 675 q 228 301 167 410 q 399 131 290 193 q 640 69 507 69 m 474 1225 q 442 1237 454 1225 q 429 1267 429 1249 q 451 1304 429 1290 l 619 1417 q 640 1422 631 1422 q 661 1417 650 1422 l 829 1304 q 851 1267 851 1290 q 839 1237 851 1249 q 808 1225 826 1225 q 782 1233 794 1225 l 640 1328 l 499 1233 q 474 1225 486 1225 m 746 1456 q 715 1468 728 1456 q 703 1499 703 1481 q 713 1526 703 1514 l 883 1697 q 914 1710 896 1710 q 944 1697 932 1710 q 957 1667 957 1685 q 944 1638 957 1650 l 774 1467 q 746 1456 763 1456 z "},"Ộ":{"ha":1279,"x_min":83,"x_max":1196,"o":"m 640 -14 q 356 59 483 -14 q 156 259 229 132 q 83 543 83 386 q 156 826 83 699 q 356 1026 229 953 q 640 1099 483 1099 q 923 1026 796 1099 q 1123 826 1050 953 q 1196 543 1196 699 q 1123 259 1196 386 q 923 59 1050 132 q 640 -14 796 -14 m 640 69 q 881 131 772 69 q 1051 301 989 193 q 1113 543 1113 410 q 1051 783 1113 675 q 881 953 989 892 q 640 1015 772 1015 q 399 953 507 1015 q 228 783 290 892 q 167 543 167 675 q 228 301 167 410 q 399 131 290 193 q 640 69 507 69 m 474 1225 q 442 1237 454 1225 q 429 1267 429 1249 q 451 1304 429 1290 l 619 1417 q 640 1422 631 1422 q 661 1417 650 1422 l 829 1304 q 851 1267 851 1290 q 839 1237 851 1249 q 808 1225 826 1225 q 782 1233 794 1225 l 640 1328 l 499 1233 q 474 1225 486 1225 m 639 -275 q 593 -256 611 -275 q 575 -210 575 -237 q 594 -162 575 -179 q 640 -146 614 -146 q 685 -162 667 -146 q 704 -210 704 -179 q 685 -256 704 -237 q 639 -275 667 -275 z "},"Ồ":{"ha":1279,"x_min":83,"x_max":1196,"o":"m 640 -14 q 356 59 483 -14 q 156 259 229 132 q 83 543 83 386 q 156 826 83 699 q 356 1026 229 953 q 640 1099 483 1099 q 923 1026 796 1099 q 1123 826 1050 953 q 1196 543 1196 699 q 1123 259 1196 386 q 923 59 1050 132 q 640 -14 796 -14 m 640 69 q 881 131 772 69 q 1051 301 989 193 q 1113 543 1113 410 q 1051 783 1113 675 q 881 953 989 892 q 640 1015 772 1015 q 399 953 507 1015 q 228 783 290 892 q 167 543 167 675 q 228 301 167 410 q 399 131 290 193 q 640 69 507 69 m 474 1225 q 442 1237 454 1225 q 429 1267 429 1249 q 451 1304 429 1290 l 619 1417 q 640 1422 631 1422 q 661 1417 650 1422 l 829 1304 q 851 1267 851 1290 q 839 1237 851 1249 q 808 1225 826 1225 q 782 1233 794 1225 l 640 1328 l 499 1233 q 474 1225 486 1225 m 768 1471 q 739 1482 754 1471 l 568 1653 q 557 1682 557 1664 q 569 1713 557 1700 q 600 1725 582 1725 q 629 1713 617 1725 l 800 1542 q 810 1514 810 1532 q 798 1483 810 1496 q 768 1471 786 1471 z "},"Ổ":{"ha":1279,"x_min":83,"x_max":1196,"o":"m 640 -14 q 356 59 483 -14 q 156 259 229 132 q 83 543 83 386 q 156 826 83 699 q 356 1026 229 953 q 640 1099 483 1099 q 923 1026 796 1099 q 1123 826 1050 953 q 1196 543 1196 699 q 1123 259 1196 386 q 923 59 1050 132 q 640 -14 796 -14 m 640 69 q 881 131 772 69 q 1051 301 989 193 q 1113 543 1113 410 q 1051 783 1113 675 q 881 953 989 892 q 640 1015 772 1015 q 399 953 507 1015 q 228 783 290 892 q 167 543 167 675 q 228 301 167 410 q 399 131 290 193 q 640 69 507 69 m 475 1225 q 443 1237 456 1225 q 431 1267 431 1249 q 453 1304 431 1290 l 621 1417 q 642 1422 632 1422 q 663 1417 651 1422 l 831 1304 q 853 1267 853 1290 q 840 1237 853 1249 q 810 1225 828 1225 q 783 1233 796 1225 l 642 1328 l 500 1233 q 475 1225 488 1225 m 765 1411 q 737 1423 749 1411 q 725 1451 725 1435 l 725 1497 q 761 1542 725 1533 l 794 1549 q 840 1571 826 1556 q 853 1613 853 1586 q 831 1664 853 1644 q 776 1683 810 1683 q 718 1661 744 1683 q 692 1651 706 1651 q 663 1663 675 1651 q 651 1692 651 1675 q 665 1722 651 1711 q 776 1764 715 1764 q 889 1725 844 1764 q 933 1621 933 1686 q 897 1528 933 1563 q 806 1485 861 1494 l 806 1451 q 794 1423 806 1435 q 765 1411 782 1411 z "},"Ỗ":{"ha":1279,"x_min":83,"x_max":1196,"o":"m 640 -14 q 356 59 483 -14 q 156 259 229 132 q 83 543 83 386 q 156 826 83 699 q 356 1026 229 953 q 640 1099 483 1099 q 923 1026 796 1099 q 1123 826 1050 953 q 1196 543 1196 699 q 1123 259 1196 386 q 923 59 1050 132 q 640 -14 796 -14 m 640 69 q 881 131 772 69 q 1051 301 989 193 q 1113 543 1113 410 q 1051 783 1113 675 q 881 953 989 892 q 640 1015 772 1015 q 399 953 507 1015 q 228 783 290 892 q 167 543 167 675 q 228 301 167 410 q 399 131 290 193 q 640 69 507 69 m 474 1225 q 442 1237 454 1225 q 429 1267 429 1249 q 451 1304 429 1290 l 619 1417 q 640 1422 631 1422 q 661 1417 650 1422 l 829 1304 q 851 1267 851 1290 q 839 1237 851 1249 q 808 1225 826 1225 q 782 1233 794 1225 l 640 1328 l 499 1233 q 474 1225 486 1225 m 724 1461 q 667 1476 694 1461 q 622 1508 640 1490 q 585 1540 600 1531 q 554 1549 571 1549 q 525 1534 538 1549 q 496 1489 513 1519 q 457 1464 483 1464 q 431 1474 440 1464 q 422 1497 422 1483 q 426 1517 422 1507 q 481 1595 450 1571 q 553 1619 511 1619 q 604 1609 585 1619 q 653 1574 624 1599 q 694 1542 681 1550 q 718 1535 707 1535 q 754 1576 739 1535 q 774 1601 760 1593 q 804 1606 789 1610 q 835 1571 835 1597 q 831 1554 835 1563 q 784 1483 810 1504 q 724 1461 758 1461 z "},"Ȍ":{"ha":1279,"x_min":83,"x_max":1196,"o":"m 640 -14 q 356 59 483 -14 q 156 259 229 132 q 83 543 83 386 q 156 826 83 699 q 356 1026 229 953 q 640 1099 483 1099 q 923 1026 796 1099 q 1123 826 1050 953 q 1196 543 1196 699 q 1123 259 1196 386 q 923 59 1050 132 q 640 -14 796 -14 m 640 69 q 881 131 772 69 q 1051 301 989 193 q 1113 543 1113 410 q 1051 783 1113 675 q 881 953 989 892 q 640 1015 772 1015 q 399 953 507 1015 q 228 783 290 892 q 167 543 167 675 q 228 301 167 410 q 399 131 290 193 q 640 69 507 69 m 578 1199 q 550 1218 558 1199 l 460 1408 q 457 1424 457 1417 q 469 1453 457 1440 q 500 1465 481 1465 q 523 1458 513 1465 q 538 1439 533 1451 l 603 1239 q 604 1226 604 1236 q 597 1206 604 1214 q 578 1199 589 1199 m 796 1199 q 768 1218 778 1199 l 678 1408 q 675 1424 675 1417 q 687 1453 675 1440 q 718 1465 699 1465 q 741 1458 731 1465 q 757 1439 751 1451 l 821 1239 q 822 1226 822 1236 q 815 1206 822 1214 q 796 1199 807 1199 z "},"Ö":{"ha":1279,"x_min":83,"x_max":1196,"o":"m 640 -14 q 356 59 483 -14 q 156 259 229 132 q 83 543 83 386 q 156 826 83 699 q 356 1026 229 953 q 640 1099 483 1099 q 923 1026 796 1099 q 1123 826 1050 953 q 1196 543 1196 699 q 1123 259 1196 386 q 923 59 1050 132 q 640 -14 796 -14 m 640 69 q 881 131 772 69 q 1051 301 989 193 q 1113 543 1113 410 q 1051 783 1113 675 q 881 953 989 892 q 640 1015 772 1015 q 399 953 507 1015 q 228 783 290 892 q 167 543 167 675 q 228 301 167 410 q 399 131 290 193 q 640 69 507 69 m 501 1238 q 450 1258 471 1238 q 429 1310 429 1279 q 450 1360 429 1339 q 501 1381 471 1381 q 552 1360 532 1381 q 572 1310 572 1339 q 552 1258 572 1279 q 501 1238 532 1238 m 779 1238 q 728 1258 749 1238 q 707 1310 707 1279 q 728 1360 707 1339 q 779 1381 749 1381 q 830 1360 810 1381 q 850 1310 850 1339 q 830 1258 850 1279 q 779 1238 810 1238 z "},"Ȫ":{"ha":1279,"x_min":83,"x_max":1196,"o":"m 640 -14 q 356 59 483 -14 q 156 259 229 132 q 83 543 83 386 q 156 826 83 699 q 356 1026 229 953 q 640 1099 483 1099 q 923 1026 796 1099 q 1123 826 1050 953 q 1196 543 1196 699 q 1123 259 1196 386 q 923 59 1050 132 q 640 -14 796 -14 m 640 69 q 881 131 772 69 q 1051 301 989 193 q 1113 543 1113 410 q 1051 783 1113 675 q 881 953 989 892 q 640 1015 772 1015 q 399 953 507 1015 q 228 783 290 892 q 167 543 167 675 q 228 301 167 410 q 399 131 290 193 q 640 69 507 69 m 501 1238 q 450 1258 471 1238 q 429 1310 429 1279 q 450 1360 429 1339 q 501 1381 471 1381 q 552 1360 532 1381 q 572 1310 572 1339 q 552 1258 572 1279 q 501 1238 532 1238 m 779 1238 q 728 1258 749 1238 q 707 1310 707 1279 q 728 1360 707 1339 q 779 1381 749 1381 q 830 1360 810 1381 q 850 1310 850 1339 q 830 1258 850 1279 q 779 1238 810 1238 m 456 1497 q 426 1509 438 1497 q 414 1539 414 1521 q 426 1569 414 1557 q 456 1582 438 1582 l 824 1582 q 853 1569 842 1582 q 865 1539 865 1557 q 853 1509 865 1521 q 824 1497 842 1497 l 456 1497 z "},"Ȱ":{"ha":1279,"x_min":83,"x_max":1196,"o":"m 640 -14 q 356 59 483 -14 q 156 259 229 132 q 83 543 83 386 q 156 826 83 699 q 356 1026 229 953 q 640 1099 483 1099 q 923 1026 796 1099 q 1123 826 1050 953 q 1196 543 1196 699 q 1123 259 1196 386 q 923 59 1050 132 q 640 -14 796 -14 m 640 69 q 881 131 772 69 q 1051 301 989 193 q 1113 543 1113 410 q 1051 783 1113 675 q 881 953 989 892 q 640 1015 772 1015 q 399 953 507 1015 q 228 783 290 892 q 167 543 167 675 q 228 301 167 410 q 399 131 290 193 q 640 69 507 69 m 639 1244 q 593 1263 611 1244 q 575 1310 575 1282 q 594 1357 575 1340 q 640 1374 614 1374 q 685 1357 667 1374 q 704 1310 704 1340 q 685 1263 704 1282 q 639 1244 667 1244 m 456 1463 q 426 1474 438 1463 q 414 1504 414 1486 q 426 1535 414 1522 q 456 1547 438 1547 l 824 1547 q 853 1535 842 1547 q 865 1504 865 1522 q 853 1474 865 1486 q 824 1463 842 1463 l 456 1463 z "},"Ọ":{"ha":1279,"x_min":83,"x_max":1196,"o":"m 640 -14 q 356 59 483 -14 q 156 259 229 132 q 83 543 83 386 q 156 826 83 699 q 356 1026 229 953 q 640 1099 483 1099 q 923 1026 796 1099 q 1123 826 1050 953 q 1196 543 1196 699 q 1123 259 1196 386 q 923 59 1050 132 q 640 -14 796 -14 m 640 69 q 881 131 772 69 q 1051 301 989 193 q 1113 543 1113 410 q 1051 783 1113 675 q 881 953 989 892 q 640 1015 772 1015 q 399 953 507 1015 q 228 783 290 892 q 167 543 167 675 q 228 301 167 410 q 399 131 290 193 q 640 69 507 69 m 639 -275 q 593 -256 611 -275 q 575 -210 575 -237 q 594 -162 575 -179 q 640 -146 614 -146 q 685 -162 667 -146 q 704 -210 704 -179 q 685 -256 704 -237 q 639 -275 667 -275 z "},"Ò":{"ha":1279,"x_min":83,"x_max":1196,"o":"m 640 -14 q 356 59 483 -14 q 156 259 229 132 q 83 543 83 386 q 156 826 83 699 q 356 1026 229 953 q 640 1099 483 1099 q 923 1026 796 1099 q 1123 826 1050 953 q 1196 543 1196 699 q 1123 259 1196 386 q 923 59 1050 132 q 640 -14 796 -14 m 640 69 q 881 131 772 69 q 1051 301 989 193 q 1113 543 1113 410 q 1051 783 1113 675 q 881 953 989 892 q 640 1015 772 1015 q 399 953 507 1015 q 228 783 290 892 q 167 543 167 675 q 228 301 167 410 q 399 131 290 193 q 640 69 507 69 m 642 1213 q 613 1224 628 1213 l 442 1394 q 431 1424 431 1406 q 443 1454 431 1442 q 474 1467 456 1467 q 503 1454 490 1467 l 674 1283 q 683 1256 683 1274 q 672 1225 683 1238 q 642 1213 660 1213 z "},"Ỏ":{"ha":1279,"x_min":83,"x_max":1196,"o":"m 640 -14 q 356 59 483 -14 q 156 259 229 132 q 83 543 83 386 q 156 826 83 699 q 356 1026 229 953 q 640 1099 483 1099 q 923 1026 796 1099 q 1123 826 1050 953 q 1196 543 1196 699 q 1123 259 1196 386 q 923 59 1050 132 q 640 -14 796 -14 m 640 69 q 881 131 772 69 q 1051 301 989 193 q 1113 543 1113 410 q 1051 783 1113 675 q 881 953 989 892 q 640 1015 772 1015 q 399 953 507 1015 q 228 783 290 892 q 167 543 167 675 q 228 301 167 410 q 399 131 290 193 q 640 69 507 69 m 638 1153 q 609 1165 621 1153 q 597 1193 597 1176 l 597 1239 q 633 1283 597 1275 l 667 1290 q 712 1313 699 1297 q 725 1354 725 1328 q 703 1406 725 1386 q 649 1425 682 1425 q 590 1403 617 1425 q 564 1393 578 1393 q 535 1405 547 1393 q 524 1433 524 1417 q 538 1464 524 1453 q 649 1506 588 1506 q 761 1467 717 1506 q 806 1363 806 1428 q 769 1270 806 1304 q 678 1226 733 1236 l 678 1193 q 666 1165 678 1176 q 638 1153 654 1153 z "},"Ơ":{"ha":1279,"x_min":83,"x_max":1196,"o":"m 1003 971 q 1145 783 1094 893 q 1196 543 1196 672 q 1123 259 1196 386 q 923 59 1050 132 q 640 -14 796 -14 q 356 59 483 -14 q 156 259 229 132 q 83 543 83 386 q 156 826 83 699 q 356 1026 229 953 q 640 1099 483 1099 q 896 1040 779 1099 l 950 1040 q 991 1058 975 1040 q 1007 1104 1007 1076 l 1007 1136 q 1017 1165 1007 1154 q 1047 1176 1028 1176 q 1077 1163 1067 1176 q 1088 1129 1088 1150 l 1088 1104 q 1065 1022 1088 1058 q 1003 971 1042 986 m 640 69 q 881 131 772 69 q 1051 301 989 193 q 1113 543 1113 410 q 1051 783 1113 675 q 881 953 989 892 q 640 1015 772 1015 q 399 953 507 1015 q 228 783 290 892 q 167 543 167 675 q 228 301 167 410 q 399 131 290 193 q 640 69 507 69 z "},"Ớ":{"ha":1279,"x_min":83,"x_max":1196,"o":"m 1003 971 q 1145 783 1094 893 q 1196 543 1196 672 q 1123 259 1196 386 q 923 59 1050 132 q 640 -14 796 -14 q 356 59 483 -14 q 156 259 229 132 q 83 543 83 386 q 156 826 83 699 q 356 1026 229 953 q 640 1099 483 1099 q 896 1040 779 1099 l 950 1040 q 991 1058 975 1040 q 1007 1104 1007 1076 l 1007 1136 q 1017 1165 1007 1154 q 1047 1176 1028 1176 q 1077 1163 1067 1176 q 1088 1129 1088 1150 l 1088 1104 q 1065 1022 1088 1058 q 1003 971 1042 986 m 640 69 q 881 131 772 69 q 1051 301 989 193 q 1113 543 1113 410 q 1051 783 1113 675 q 881 953 989 892 q 640 1015 772 1015 q 399 953 507 1015 q 228 783 290 892 q 167 543 167 675 q 228 301 167 410 q 399 131 290 193 q 640 69 507 69 m 619 1197 q 589 1210 601 1197 q 576 1240 576 1222 q 586 1268 576 1256 l 757 1439 q 788 1451 769 1451 q 818 1439 806 1451 q 831 1408 831 1426 q 818 1379 831 1392 l 647 1208 q 619 1197 636 1197 z "},"Ợ":{"ha":1279,"x_min":83,"x_max":1196,"o":"m 1003 971 q 1145 783 1094 893 q 1196 543 1196 672 q 1123 259 1196 386 q 923 59 1050 132 q 640 -14 796 -14 q 356 59 483 -14 q 156 259 229 132 q 83 543 83 386 q 156 826 83 699 q 356 1026 229 953 q 640 1099 483 1099 q 896 1040 779 1099 l 950 1040 q 991 1058 975 1040 q 1007 1104 1007 1076 l 1007 1136 q 1017 1165 1007 1154 q 1047 1176 1028 1176 q 1077 1163 1067 1176 q 1088 1129 1088 1150 l 1088 1104 q 1065 1022 1088 1058 q 1003 971 1042 986 m 640 69 q 881 131 772 69 q 1051 301 989 193 q 1113 543 1113 410 q 1051 783 1113 675 q 881 953 989 892 q 640 1015 772 1015 q 399 953 507 1015 q 228 783 290 892 q 167 543 167 675 q 228 301 167 410 q 399 131 290 193 q 640 69 507 69 m 639 -275 q 593 -256 611 -275 q 575 -210 575 -237 q 594 -162 575 -179 q 640 -146 614 -146 q 685 -162 667 -146 q 704 -210 704 -179 q 685 -256 704 -237 q 639 -275 667 -275 z "},"Ờ":{"ha":1279,"x_min":83,"x_max":1196,"o":"m 1003 971 q 1145 783 1094 893 q 1196 543 1196 672 q 1123 259 1196 386 q 923 59 1050 132 q 640 -14 796 -14 q 356 59 483 -14 q 156 259 229 132 q 83 543 83 386 q 156 826 83 699 q 356 1026 229 953 q 640 1099 483 1099 q 896 1040 779 1099 l 950 1040 q 991 1058 975 1040 q 1007 1104 1007 1076 l 1007 1136 q 1017 1165 1007 1154 q 1047 1176 1028 1176 q 1077 1163 1067 1176 q 1088 1129 1088 1150 l 1088 1104 q 1065 1022 1088 1058 q 1003 971 1042 986 m 640 69 q 881 131 772 69 q 1051 301 989 193 q 1113 543 1113 410 q 1051 783 1113 675 q 881 953 989 892 q 640 1015 772 1015 q 399 953 507 1015 q 228 783 290 892 q 167 543 167 675 q 228 301 167 410 q 399 131 290 193 q 640 69 507 69 m 642 1213 q 613 1224 628 1213 l 442 1394 q 431 1424 431 1406 q 443 1454 431 1442 q 474 1467 456 1467 q 503 1454 490 1467 l 674 1283 q 683 1256 683 1274 q 672 1225 683 1238 q 642 1213 660 1213 z "},"Ở":{"ha":1279,"x_min":83,"x_max":1196,"o":"m 1003 971 q 1145 783 1094 893 q 1196 543 1196 672 q 1123 259 1196 386 q 923 59 1050 132 q 640 -14 796 -14 q 356 59 483 -14 q 156 259 229 132 q 83 543 83 386 q 156 826 83 699 q 356 1026 229 953 q 640 1099 483 1099 q 896 1040 779 1099 l 950 1040 q 991 1058 975 1040 q 1007 1104 1007 1076 l 1007 1136 q 1017 1165 1007 1154 q 1047 1176 1028 1176 q 1077 1163 1067 1176 q 1088 1129 1088 1150 l 1088 1104 q 1065 1022 1088 1058 q 1003 971 1042 986 m 640 69 q 881 131 772 69 q 1051 301 989 193 q 1113 543 1113 410 q 1051 783 1113 675 q 881 953 989 892 q 640 1015 772 1015 q 399 953 507 1015 q 228 783 290 892 q 167 543 167 675 q 228 301 167 410 q 399 131 290 193 q 640 69 507 69 m 638 1153 q 609 1165 621 1153 q 597 1193 597 1176 l 597 1239 q 633 1283 597 1275 l 667 1290 q 712 1313 699 1297 q 725 1354 725 1328 q 703 1406 725 1386 q 649 1425 682 1425 q 590 1403 617 1425 q 564 1393 578 1393 q 535 1405 547 1393 q 524 1433 524 1417 q 538 1464 524 1453 q 649 1506 588 1506 q 761 1467 717 1506 q 806 1363 806 1428 q 769 1270 806 1304 q 678 1226 733 1236 l 678 1193 q 666 1165 678 1176 q 638 1153 654 1153 z "},"Ỡ":{"ha":1279,"x_min":83,"x_max":1196,"o":"m 1003 971 q 1145 783 1094 893 q 1196 543 1196 672 q 1123 259 1196 386 q 923 59 1050 132 q 640 -14 796 -14 q 356 59 483 -14 q 156 259 229 132 q 83 543 83 386 q 156 826 83 699 q 356 1026 229 953 q 640 1099 483 1099 q 896 1040 779 1099 l 950 1040 q 991 1058 975 1040 q 1007 1104 1007 1076 l 1007 1136 q 1017 1165 1007 1154 q 1047 1176 1028 1176 q 1077 1163 1067 1176 q 1088 1129 1088 1150 l 1088 1104 q 1065 1022 1088 1058 q 1003 971 1042 986 m 640 69 q 881 131 772 69 q 1051 301 989 193 q 1113 543 1113 410 q 1051 783 1113 675 q 881 953 989 892 q 640 1015 772 1015 q 399 953 507 1015 q 228 783 290 892 q 167 543 167 675 q 228 301 167 410 q 399 131 290 193 q 640 69 507 69 m 786 1200 q 718 1213 747 1200 q 656 1249 689 1226 q 611 1274 628 1268 q 576 1281 594 1281 q 469 1224 519 1281 q 435 1207 457 1207 q 414 1213 421 1207 q 393 1244 393 1225 q 401 1268 393 1258 q 484 1337 439 1313 q 576 1361 529 1361 q 640 1349 613 1361 q 701 1315 667 1338 q 747 1288 731 1296 q 786 1281 763 1281 q 863 1311 833 1281 q 901 1331 879 1331 q 917 1326 911 1331 q 942 1293 942 1314 q 933 1271 942 1282 q 786 1200 879 1200 z "},"Ő":{"ha":1279,"x_min":83,"x_max":1196,"o":"m 640 -14 q 356 59 483 -14 q 156 259 229 132 q 83 543 83 386 q 156 826 83 699 q 356 1026 229 953 q 640 1099 483 1099 q 923 1026 796 1099 q 1123 826 1050 953 q 1196 543 1196 699 q 1123 259 1196 386 q 923 59 1050 132 q 640 -14 796 -14 m 640 69 q 881 131 772 69 q 1051 301 989 193 q 1113 543 1113 410 q 1051 783 1113 675 q 881 953 989 892 q 640 1015 772 1015 q 399 953 507 1015 q 228 783 290 892 q 167 543 167 675 q 228 301 167 410 q 399 131 290 193 q 640 69 507 69 m 525 1199 q 506 1206 514 1199 q 499 1226 499 1214 q 500 1239 499 1236 l 564 1439 q 580 1458 569 1451 q 603 1465 590 1465 q 634 1453 622 1465 q 646 1424 646 1440 q 643 1408 646 1417 l 553 1218 q 525 1199 543 1199 m 743 1199 q 724 1206 732 1199 q 717 1226 717 1214 q 718 1239 717 1236 l 783 1439 q 798 1458 788 1451 q 821 1465 808 1465 q 852 1453 840 1465 q 864 1424 864 1440 q 861 1408 864 1417 l 771 1218 q 743 1199 763 1199 z "},"Ȏ":{"ha":1279,"x_min":83,"x_max":1196,"o":"m 640 -14 q 356 59 483 -14 q 156 259 229 132 q 83 543 83 386 q 156 826 83 699 q 356 1026 229 953 q 640 1099 483 1099 q 923 1026 796 1099 q 1123 826 1050 953 q 1196 543 1196 699 q 1123 259 1196 386 q 923 59 1050 132 q 640 -14 796 -14 m 640 69 q 881 131 772 69 q 1051 301 989 193 q 1113 543 1113 410 q 1051 783 1113 675 q 881 953 989 892 q 640 1015 772 1015 q 399 953 507 1015 q 228 783 290 892 q 167 543 167 675 q 228 301 167 410 q 399 131 290 193 q 640 69 507 69 m 639 1422 q 785 1379 724 1422 q 851 1267 846 1336 q 838 1238 850 1250 q 808 1225 825 1225 q 778 1238 790 1225 q 767 1268 767 1250 q 732 1324 767 1301 q 639 1347 697 1347 q 547 1324 581 1347 q 513 1268 513 1301 q 501 1238 513 1250 q 471 1225 489 1225 q 440 1238 453 1225 q 428 1268 428 1250 q 456 1345 428 1310 q 533 1401 485 1381 q 639 1422 582 1422 z "},"Ō":{"ha":1279,"x_min":83,"x_max":1196,"o":"m 640 -14 q 356 59 483 -14 q 156 259 229 132 q 83 543 83 386 q 156 826 83 699 q 356 1026 229 953 q 640 1099 483 1099 q 923 1026 796 1099 q 1123 826 1050 953 q 1196 543 1196 699 q 1123 259 1196 386 q 923 59 1050 132 q 640 -14 796 -14 m 640 69 q 881 131 772 69 q 1051 301 989 193 q 1113 543 1113 410 q 1051 783 1113 675 q 881 953 989 892 q 640 1015 772 1015 q 399 953 507 1015 q 228 783 290 892 q 167 543 167 675 q 228 301 167 410 q 399 131 290 193 q 640 69 507 69 m 456 1243 q 426 1255 438 1243 q 414 1285 414 1267 q 426 1315 414 1303 q 456 1328 438 1328 l 824 1328 q 853 1315 842 1328 q 865 1285 865 1303 q 853 1255 865 1267 q 824 1243 842 1243 l 456 1243 z "},"Ǫ":{"ha":1279,"x_min":83,"x_max":1196,"o":"m 1196 543 q 1129 269 1196 393 q 945 72 1063 146 q 681 -12 828 -3 q 683 -26 683 -21 q 663 -80 683 -53 q 600 -137 642 -107 q 571 -194 571 -161 q 591 -244 571 -224 q 640 -264 611 -264 q 679 -253 663 -264 l 728 -217 q 753 -208 740 -208 q 783 -221 771 -208 q 796 -251 796 -233 q 782 -283 796 -272 l 725 -322 q 640 -349 686 -349 q 532 -303 578 -349 q 486 -194 486 -258 q 551 -68 486 -121 q 601 -12 589 -39 q 336 71 454 -4 q 151 269 218 146 q 83 543 83 393 q 156 826 83 699 q 356 1026 229 953 q 640 1099 483 1099 q 923 1026 796 1099 q 1123 826 1050 953 q 1196 543 1196 699 m 640 69 q 881 131 772 69 q 1051 301 989 193 q 1113 543 1113 410 q 1051 783 1113 675 q 881 953 989 892 q 640 1015 772 1015 q 399 953 507 1015 q 228 783 290 892 q 167 543 167 675 q 228 301 167 410 q 399 131 290 193 q 640 69 507 69 z "},"Ø":{"ha":1193,"x_min":81,"x_max":1196,"o":"m 1068 906 q 1163 740 1129 832 q 1196 543 1196 647 q 1123 259 1196 386 q 923 59 1050 132 q 640 -14 796 -14 q 435 22 532 -14 q 265 124 339 58 l 153 11 q 124 0 142 0 q 92 13 104 0 q 81 43 81 25 q 92 71 81 60 l 207 186 q 115 349 147 258 q 83 543 83 440 q 156 826 83 699 q 356 1026 229 953 q 640 1099 483 1099 q 840 1065 746 1099 q 1008 967 935 1031 l 1117 1074 q 1146 1085 1128 1085 q 1177 1072 1164 1085 q 1190 1043 1190 1060 q 1178 1015 1190 1028 l 1068 906 m 640 1015 q 399 953 507 1015 q 228 783 290 892 q 167 543 167 675 q 194 378 167 456 q 271 239 221 301 l 943 911 q 803 988 881 961 q 640 1015 726 1015 m 640 69 q 881 131 772 69 q 1051 301 989 193 q 1113 543 1113 410 q 1084 710 1113 631 q 1004 851 1056 789 l 332 179 q 473 98 394 126 q 640 69 551 69 z "},"Ǿ":{"ha":1193,"x_min":81,"x_max":1196,"o":"m 1068 906 q 1163 740 1129 832 q 1196 543 1196 647 q 1123 259 1196 386 q 923 59 1050 132 q 640 -14 796 -14 q 435 22 532 -14 q 265 124 339 58 l 153 11 q 124 0 142 0 q 92 13 104 0 q 81 43 81 25 q 92 71 81 60 l 207 186 q 115 349 147 258 q 83 543 83 440 q 156 826 83 699 q 356 1026 229 953 q 640 1099 483 1099 q 840 1065 746 1099 q 1008 967 935 1031 l 1117 1074 q 1146 1085 1128 1085 q 1177 1072 1164 1085 q 1190 1043 1190 1060 q 1178 1015 1190 1028 l 1068 906 m 640 1015 q 399 953 507 1015 q 228 783 290 892 q 167 543 167 675 q 194 378 167 456 q 271 239 221 301 l 943 911 q 803 988 881 961 q 640 1015 726 1015 m 640 69 q 881 131 772 69 q 1051 301 989 193 q 1113 543 1113 410 q 1084 710 1113 631 q 1004 851 1056 789 l 332 179 q 473 98 394 126 q 640 69 551 69 m 619 1197 q 589 1210 601 1197 q 576 1240 576 1222 q 586 1268 576 1256 l 757 1439 q 788 1451 769 1451 q 818 1439 806 1451 q 831 1408 831 1426 q 818 1379 831 1392 l 647 1208 q 619 1197 636 1197 z "},"Õ":{"ha":1279,"x_min":83,"x_max":1196,"o":"m 640 -14 q 356 59 483 -14 q 156 259 229 132 q 83 543 83 386 q 156 826 83 699 q 356 1026 229 953 q 640 1099 483 1099 q 923 1026 796 1099 q 1123 826 1050 953 q 1196 543 1196 699 q 1123 259 1196 386 q 923 59 1050 132 q 640 -14 796 -14 m 640 69 q 881 131 772 69 q 1051 301 989 193 q 1113 543 1113 410 q 1051 783 1113 675 q 881 953 989 892 q 640 1015 772 1015 q 399 953 507 1015 q 228 783 290 892 q 167 543 167 675 q 228 301 167 410 q 399 131 290 193 q 640 69 507 69 m 786 1200 q 718 1213 747 1200 q 656 1249 689 1226 q 611 1274 628 1268 q 576 1281 594 1281 q 469 1224 519 1281 q 435 1207 457 1207 q 414 1213 421 1207 q 393 1244 393 1225 q 401 1268 393 1258 q 484 1337 439 1313 q 576 1361 529 1361 q 640 1349 613 1361 q 701 1315 667 1338 q 747 1288 731 1296 q 786 1281 763 1281 q 863 1311 833 1281 q 901 1331 879 1331 q 917 1326 911 1331 q 942 1293 942 1314 q 933 1271 942 1282 q 786 1200 879 1200 z "},"Ȭ":{"ha":1279,"x_min":83,"x_max":1196,"o":"m 640 -14 q 356 59 483 -14 q 156 259 229 132 q 83 543 83 386 q 156 826 83 699 q 356 1026 229 953 q 640 1099 483 1099 q 923 1026 796 1099 q 1123 826 1050 953 q 1196 543 1196 699 q 1123 259 1196 386 q 923 59 1050 132 q 640 -14 796 -14 m 640 69 q 881 131 772 69 q 1051 301 989 193 q 1113 543 1113 410 q 1051 783 1113 675 q 881 953 989 892 q 640 1015 772 1015 q 399 953 507 1015 q 228 783 290 892 q 167 543 167 675 q 228 301 167 410 q 399 131 290 193 q 640 69 507 69 m 786 1200 q 718 1213 747 1200 q 656 1249 689 1226 q 611 1274 628 1268 q 576 1281 594 1281 q 469 1224 519 1281 q 435 1207 457 1207 q 414 1213 421 1207 q 393 1244 393 1225 q 401 1268 393 1258 q 484 1337 439 1313 q 576 1361 529 1361 q 640 1349 613 1361 q 701 1315 667 1338 q 747 1288 731 1296 q 786 1281 763 1281 q 863 1311 833 1281 q 901 1331 879 1331 q 917 1326 911 1331 q 942 1293 942 1314 q 933 1271 942 1282 q 786 1200 879 1200 m 469 1447 q 440 1459 451 1447 q 428 1489 428 1471 q 440 1519 428 1507 q 469 1532 451 1532 l 838 1532 q 867 1519 856 1532 q 879 1489 879 1507 q 867 1459 879 1471 q 838 1447 856 1447 l 469 1447 z "},"Œ":{"ha":1593,"x_min":83,"x_max":1531,"o":"m 1489 83 q 1518 71 1506 83 q 1531 42 1531 58 q 1518 12 1531 24 q 1489 0 1506 0 l 876 0 q 868 1 871 0 q 779 -6 842 0 q 640 -14 690 -14 q 356 59 483 -14 q 156 259 229 132 q 83 543 83 386 q 156 826 83 699 q 356 1026 229 953 q 640 1099 483 1099 q 778 1092 669 1099 q 893 1085 844 1085 l 1489 1085 q 1518 1073 1506 1085 q 1531 1043 1531 1061 q 1518 1014 1531 1026 q 1489 1001 1506 1001 l 918 1001 l 918 585 l 1322 585 q 1352 573 1340 585 q 1364 543 1364 561 q 1352 513 1364 525 q 1322 500 1340 500 l 918 500 l 918 83 l 1489 83 m 167 543 q 228 301 167 410 q 399 131 290 193 q 640 69 507 69 q 835 85 743 69 l 835 1000 q 640 1015 743 1015 q 399 953 507 1015 q 228 783 290 892 q 167 543 167 675 z "},"P":{"ha":840,"x_min":139,"x_max":806,"o":"m 181 0 q 151 12 163 0 q 139 42 139 24 l 139 1043 q 151 1074 139 1063 q 181 1085 163 1085 l 458 1085 q 638 1040 558 1085 q 761 917 717 996 q 806 738 806 838 q 761 557 806 636 q 638 433 717 478 q 458 389 558 389 l 222 389 l 222 42 q 211 12 222 24 q 181 0 200 0 m 458 472 q 594 506 535 472 q 688 601 654 540 q 722 738 722 661 q 688 874 722 814 q 594 967 654 933 q 458 1001 535 1001 l 222 1001 l 222 472 l 458 472 z "},"Þ":{"ha":840,"x_min":139,"x_max":806,"o":"m 458 904 q 638 863 558 904 q 761 749 717 822 q 806 585 806 676 q 761 419 806 492 q 638 305 717 346 q 458 264 558 264 l 222 264 l 222 42 q 211 12 222 24 q 181 0 200 0 q 151 12 163 0 q 139 42 139 24 l 139 1043 q 151 1073 139 1061 q 181 1085 163 1085 q 210 1073 199 1085 q 222 1043 222 1061 l 222 904 l 458 904 m 458 339 q 594 372 535 339 q 688 460 654 404 q 722 585 722 515 q 688 709 722 653 q 594 797 654 765 q 458 829 533 829 l 222 829 l 222 339 l 458 339 z "},"Q":{"ha":1279,"x_min":83,"x_max":1196,"o":"m 1126 69 q 1139 42 1139 57 q 1126 13 1139 25 q 1099 0 1114 0 q 1069 13 1082 0 l 983 99 q 825 15 913 44 q 640 -14 738 -14 q 356 59 483 -14 q 156 259 229 132 q 83 543 83 386 q 156 826 83 699 q 356 1026 229 953 q 640 1099 483 1099 q 923 1026 796 1099 q 1123 826 1050 953 q 1196 543 1196 699 q 1156 328 1196 428 q 1043 151 1117 228 l 1126 69 m 640 69 q 922 158 801 69 l 761 318 q 749 347 749 331 q 761 375 749 363 q 790 388 774 388 q 818 375 806 388 l 983 211 q 1078 361 1044 276 q 1113 543 1113 446 q 1051 783 1113 675 q 881 953 989 892 q 640 1015 772 1015 q 399 953 507 1015 q 228 783 290 892 q 167 543 167 675 q 228 301 167 410 q 399 131 290 193 q 640 69 507 69 z "},"R":{"ha":844,"x_min":139,"x_max":810,"o":"m 799 64 q 810 32 810 44 q 798 8 810 17 q 764 0 786 0 q 742 6 750 0 q 726 22 733 11 l 471 431 l 446 431 l 222 431 l 222 42 q 211 12 222 24 q 181 0 200 0 q 151 12 163 0 q 139 42 139 24 l 139 1043 q 151 1074 139 1063 q 181 1085 163 1085 l 446 1085 q 625 1043 546 1085 q 749 926 704 1001 q 793 756 793 851 q 730 559 793 642 q 560 446 667 476 l 799 64 m 446 514 q 582 544 522 514 q 676 631 642 575 q 710 756 710 686 q 676 883 710 826 q 582 970 642 939 q 446 1001 522 1001 l 222 1001 l 222 514 l 446 514 z "},"Ŕ":{"ha":844,"x_min":139,"x_max":810,"o":"m 799 64 q 810 32 810 44 q 798 8 810 17 q 764 0 786 0 q 742 6 750 0 q 726 22 733 11 l 471 431 l 446 431 l 222 431 l 222 42 q 211 12 222 24 q 181 0 200 0 q 151 12 163 0 q 139 42 139 24 l 139 1043 q 151 1074 139 1063 q 181 1085 163 1085 l 446 1085 q 625 1043 546 1085 q 749 926 704 1001 q 793 756 793 851 q 730 559 793 642 q 560 446 667 476 l 799 64 m 446 514 q 582 544 522 514 q 676 631 642 575 q 710 756 710 686 q 676 883 710 826 q 582 970 642 939 q 446 1001 522 1001 l 222 1001 l 222 514 l 446 514 m 401 1197 q 371 1210 383 1197 q 358 1240 358 1222 q 368 1268 358 1256 l 539 1439 q 569 1451 551 1451 q 600 1439 588 1451 q 613 1408 613 1426 q 600 1379 613 1392 l 429 1208 q 401 1197 418 1197 z "},"Ř":{"ha":844,"x_min":139,"x_max":810,"o":"m 799 64 q 810 32 810 44 q 798 8 810 17 q 764 0 786 0 q 742 6 750 0 q 726 22 733 11 l 471 431 l 446 431 l 222 431 l 222 42 q 211 12 222 24 q 181 0 200 0 q 151 12 163 0 q 139 42 139 24 l 139 1043 q 151 1074 139 1063 q 181 1085 163 1085 l 446 1085 q 625 1043 546 1085 q 749 926 704 1001 q 793 756 793 851 q 730 559 793 642 q 560 446 667 476 l 799 64 m 446 514 q 582 544 522 514 q 676 631 642 575 q 710 756 710 686 q 676 883 710 826 q 582 970 642 939 q 446 1001 522 1001 l 222 1001 l 222 514 l 446 514 m 422 1225 q 401 1231 408 1225 l 233 1342 q 211 1379 211 1356 q 222 1406 211 1396 q 247 1417 232 1417 q 281 1406 264 1417 l 422 1308 l 564 1403 q 599 1415 582 1415 q 624 1405 614 1415 q 633 1379 633 1394 q 611 1342 633 1358 l 443 1231 q 422 1225 436 1225 z "},"Ŗ":{"ha":844,"x_min":139,"x_max":810,"o":"m 799 64 q 810 32 810 44 q 798 8 810 17 q 764 0 786 0 q 742 6 750 0 q 726 22 733 11 l 471 431 l 446 431 l 222 431 l 222 42 q 211 12 222 24 q 181 0 200 0 q 151 12 163 0 q 139 42 139 24 l 139 1043 q 151 1074 139 1063 q 181 1085 163 1085 l 446 1085 q 625 1043 546 1085 q 749 926 704 1001 q 793 756 793 851 q 730 559 793 642 q 560 446 667 476 l 799 64 m 446 514 q 582 544 522 514 q 676 631 642 575 q 710 756 710 686 q 676 883 710 826 q 582 970 642 939 q 446 1001 522 1001 l 222 1001 l 222 514 l 446 514 m 432 -322 q 322 -294 375 -322 q 268 -231 268 -267 q 277 -206 268 -215 q 303 -197 286 -197 q 329 -202 318 -197 q 354 -218 340 -207 q 390 -240 372 -232 q 436 -247 408 -247 q 499 -229 475 -247 q 522 -181 522 -211 q 499 -138 522 -154 q 432 -122 476 -122 q 371 -89 371 -122 q 426 -54 371 -54 q 547 -91 500 -54 q 594 -185 594 -128 q 547 -283 594 -244 q 432 -322 500 -322 z "},"Ȑ":{"ha":844,"x_min":139,"x_max":810,"o":"m 799 64 q 810 32 810 44 q 798 8 810 17 q 764 0 786 0 q 742 6 750 0 q 726 22 733 11 l 471 431 l 446 431 l 222 431 l 222 42 q 211 12 222 24 q 181 0 200 0 q 151 12 163 0 q 139 42 139 24 l 139 1043 q 151 1074 139 1063 q 181 1085 163 1085 l 446 1085 q 625 1043 546 1085 q 749 926 704 1001 q 793 756 793 851 q 730 559 793 642 q 560 446 667 476 l 799 64 m 446 514 q 582 544 522 514 q 676 631 642 575 q 710 756 710 686 q 676 883 710 826 q 582 970 642 939 q 446 1001 522 1001 l 222 1001 l 222 514 l 446 514 m 360 1199 q 332 1218 340 1199 l 242 1408 q 239 1424 239 1417 q 251 1453 239 1440 q 282 1465 263 1465 q 305 1458 294 1465 q 319 1439 315 1451 l 385 1239 q 386 1226 386 1236 q 378 1206 386 1214 q 360 1199 371 1199 m 578 1199 q 550 1218 560 1199 l 460 1408 q 457 1424 457 1417 q 469 1453 457 1440 q 500 1465 481 1465 q 523 1458 513 1465 q 539 1439 533 1451 l 603 1239 q 604 1226 604 1236 q 597 1206 604 1214 q 578 1199 589 1199 z "},"Ȓ":{"ha":844,"x_min":139,"x_max":810,"o":"m 799 64 q 810 32 810 44 q 798 8 810 17 q 764 0 786 0 q 742 6 750 0 q 726 22 733 11 l 471 431 l 446 431 l 222 431 l 222 42 q 211 12 222 24 q 181 0 200 0 q 151 12 163 0 q 139 42 139 24 l 139 1043 q 151 1074 139 1063 q 181 1085 163 1085 l 446 1085 q 625 1043 546 1085 q 749 926 704 1001 q 793 756 793 851 q 730 559 793 642 q 560 446 667 476 l 799 64 m 446 514 q 582 544 522 514 q 676 631 642 575 q 710 756 710 686 q 676 883 710 826 q 582 970 642 939 q 446 1001 522 1001 l 222 1001 l 222 514 l 446 514 m 421 1422 q 567 1379 506 1422 q 633 1267 628 1336 q 619 1238 632 1250 q 590 1225 607 1225 q 560 1238 572 1225 q 549 1268 549 1250 q 514 1324 549 1301 q 421 1347 479 1347 q 328 1324 363 1347 q 294 1268 294 1301 q 283 1238 294 1250 q 253 1225 271 1225 q 222 1238 235 1225 q 210 1268 210 1250 q 238 1345 210 1310 q 315 1401 267 1381 q 421 1422 364 1422 z "},"S":{"ha":894,"x_min":90,"x_max":804,"o":"m 464 -14 q 238 40 333 -14 q 94 186 142 93 q 90 203 90 194 q 102 231 90 219 q 133 242 114 242 q 174 215 161 242 q 285 108 211 146 q 464 69 360 69 q 652 129 583 69 q 721 299 721 189 q 653 455 721 393 q 454 535 586 517 q 212 635 300 557 q 124 826 124 714 q 165 969 124 907 q 280 1065 206 1031 q 451 1099 354 1099 q 638 1050 553 1099 q 763 933 722 1001 q 768 911 768 924 q 762 891 768 900 q 744 876 756 882 q 728 874 739 874 q 689 894 703 874 q 451 1015 607 1015 q 272 963 336 1015 q 207 818 207 911 q 271 688 207 740 q 468 613 335 635 q 724 505 643 583 q 804 299 804 426 q 762 132 804 203 q 642 24 719 61 q 464 -14 565 -14 z "},"Ś":{"ha":894,"x_min":90,"x_max":804,"o":"m 464 -14 q 238 40 333 -14 q 94 186 142 93 q 90 203 90 194 q 102 231 90 219 q 133 242 114 242 q 174 215 161 242 q 285 108 211 146 q 464 69 360 69 q 652 129 583 69 q 721 299 721 189 q 653 455 721 393 q 454 535 586 517 q 212 635 300 557 q 124 826 124 714 q 165 969 124 907 q 280 1065 206 1031 q 451 1099 354 1099 q 638 1050 553 1099 q 763 933 722 1001 q 768 911 768 924 q 762 891 768 900 q 744 876 756 882 q 728 874 739 874 q 689 894 703 874 q 451 1015 607 1015 q 272 963 336 1015 q 207 818 207 911 q 271 688 207 740 q 468 613 335 635 q 724 505 643 583 q 804 299 804 426 q 762 132 804 203 q 642 24 719 61 q 464 -14 565 -14 m 426 1197 q 396 1210 408 1197 q 383 1240 383 1222 q 393 1268 383 1256 l 564 1439 q 594 1451 576 1451 q 625 1439 613 1451 q 638 1408 638 1426 q 625 1379 638 1392 l 454 1208 q 426 1197 443 1197 z "},"Š":{"ha":894,"x_min":90,"x_max":804,"o":"m 464 -14 q 238 40 333 -14 q 94 186 142 93 q 90 203 90 194 q 102 231 90 219 q 133 242 114 242 q 174 215 161 242 q 285 108 211 146 q 464 69 360 69 q 652 129 583 69 q 721 299 721 189 q 653 455 721 393 q 454 535 586 517 q 212 635 300 557 q 124 826 124 714 q 165 969 124 907 q 280 1065 206 1031 q 451 1099 354 1099 q 638 1050 553 1099 q 763 933 722 1001 q 768 911 768 924 q 762 891 768 900 q 744 876 756 882 q 728 874 739 874 q 689 894 703 874 q 451 1015 607 1015 q 272 963 336 1015 q 207 818 207 911 q 271 688 207 740 q 468 613 335 635 q 724 505 643 583 q 804 299 804 426 q 762 132 804 203 q 642 24 719 61 q 464 -14 565 -14 m 447 1225 q 426 1231 433 1225 l 258 1342 q 236 1379 236 1356 q 247 1406 236 1396 q 272 1417 257 1417 q 306 1406 289 1417 l 447 1308 l 589 1403 q 624 1415 607 1415 q 649 1405 639 1415 q 658 1379 658 1394 q 636 1342 658 1358 l 468 1231 q 447 1225 461 1225 z "},"Ş":{"ha":894,"x_min":90,"x_max":804,"o":"m 804 299 q 724 83 804 165 q 510 -11 644 1 l 494 -50 q 590 -101 564 -71 q 617 -178 617 -132 q 564 -281 617 -239 q 440 -322 511 -322 q 330 -294 374 -322 q 286 -231 286 -267 q 298 -200 286 -212 q 328 -187 310 -187 q 347 -192 339 -187 q 364 -203 356 -197 q 376 -214 372 -210 q 403 -231 390 -225 q 440 -237 417 -237 q 499 -222 476 -237 q 522 -181 522 -207 q 504 -138 522 -154 q 443 -110 486 -122 q 410 -96 421 -104 q 399 -72 399 -87 q 406 -46 399 -64 l 419 -12 q 221 49 306 -3 q 94 186 136 101 q 90 203 90 194 q 102 231 90 219 q 133 242 114 242 q 174 215 161 242 q 285 108 211 146 q 464 69 360 69 q 652 129 583 69 q 721 299 721 189 q 653 455 721 393 q 454 535 586 517 q 212 635 300 557 q 124 826 124 714 q 165 969 124 907 q 280 1065 206 1031 q 451 1099 354 1099 q 638 1050 553 1099 q 763 933 722 1001 q 768 911 768 924 q 762 891 768 900 q 744 876 756 882 q 728 874 739 874 q 689 894 703 874 q 451 1015 607 1015 q 272 963 336 1015 q 207 818 207 911 q 271 688 207 740 q 468 613 335 635 q 724 505 643 583 q 804 299 804 426 z "},"Ŝ":{"ha":894,"x_min":90,"x_max":804,"o":"m 464 -14 q 238 40 333 -14 q 94 186 142 93 q 90 203 90 194 q 102 231 90 219 q 133 242 114 242 q 174 215 161 242 q 285 108 211 146 q 464 69 360 69 q 652 129 583 69 q 721 299 721 189 q 653 455 721 393 q 454 535 586 517 q 212 635 300 557 q 124 826 124 714 q 165 969 124 907 q 280 1065 206 1031 q 451 1099 354 1099 q 638 1050 553 1099 q 763 933 722 1001 q 768 911 768 924 q 762 891 768 900 q 744 876 756 882 q 728 874 739 874 q 689 894 703 874 q 451 1015 607 1015 q 272 963 336 1015 q 207 818 207 911 q 271 688 207 740 q 468 613 335 635 q 724 505 643 583 q 804 299 804 426 q 762 132 804 203 q 642 24 719 61 q 464 -14 565 -14 m 281 1225 q 249 1237 261 1225 q 236 1267 236 1249 q 258 1304 236 1290 l 426 1417 q 447 1422 438 1422 q 468 1417 457 1422 l 636 1304 q 658 1267 658 1290 q 646 1237 658 1249 q 615 1225 633 1225 q 589 1233 601 1225 l 447 1328 l 306 1233 q 281 1225 293 1225 z "},"Ș":{"ha":894,"x_min":90,"x_max":804,"o":"m 464 -14 q 238 40 333 -14 q 94 186 142 93 q 90 203 90 194 q 102 231 90 219 q 133 242 114 242 q 174 215 161 242 q 285 108 211 146 q 464 69 360 69 q 652 129 583 69 q 721 299 721 189 q 653 455 721 393 q 454 535 586 517 q 212 635 300 557 q 124 826 124 714 q 165 969 124 907 q 280 1065 206 1031 q 451 1099 354 1099 q 638 1050 553 1099 q 763 933 722 1001 q 768 911 768 924 q 762 891 768 900 q 744 876 756 882 q 728 874 739 874 q 689 894 703 874 q 451 1015 607 1015 q 272 963 336 1015 q 207 818 207 911 q 271 688 207 740 q 468 613 335 635 q 724 505 643 583 q 804 299 804 426 q 762 132 804 203 q 642 24 719 61 q 464 -14 565 -14 m 457 -322 q 347 -294 400 -322 q 293 -231 293 -267 q 302 -206 293 -215 q 328 -197 311 -197 q 354 -202 343 -197 q 379 -218 365 -207 q 415 -240 397 -232 q 461 -247 433 -247 q 524 -229 500 -247 q 547 -181 547 -211 q 524 -138 547 -154 q 457 -122 501 -122 q 396 -89 396 -122 q 451 -54 396 -54 q 572 -91 525 -54 q 619 -185 619 -128 q 572 -283 619 -244 q 457 -322 525 -322 z "},"ẞ":{"ha":938,"x_min":139,"x_max":861,"o":"m 560 667 q 719 615 651 661 q 824 495 788 569 q 861 329 861 421 q 819 159 861 236 q 704 37 778 82 q 542 -8 631 -8 q 435 6 483 -8 q 351 42 386 21 q 330 60 336 51 q 324 85 324 68 q 335 112 324 100 q 365 124 347 124 q 386 118 372 124 q 425 99 397 113 q 479 81 453 86 q 542 75 506 75 q 662 109 608 75 q 747 201 715 143 q 778 329 778 260 q 715 513 778 442 q 542 585 651 585 l 485 585 q 456 597 468 585 q 444 626 444 608 q 458 658 444 644 l 681 908 q 590 978 651 950 q 465 1007 528 1007 q 286 940 350 1007 q 222 738 222 874 l 222 38 q 210 10 222 21 q 179 0 199 0 q 149 11 160 0 q 139 38 139 22 l 139 765 q 230 1006 139 926 q 469 1085 321 1085 q 638 1042 554 1085 q 753 942 721 999 q 760 914 760 929 q 738 860 760 885 l 560 667 z "},"Ə":{"ha":1153,"x_min":83,"x_max":1069,"o":"m 525 1099 q 806 1027 682 1099 q 1000 828 931 956 q 1069 539 1069 700 q 1006 252 1069 378 q 828 56 942 126 q 569 -14 714 -14 q 310 56 421 -14 q 142 249 200 125 q 83 529 83 372 q 100 569 83 554 q 142 585 117 585 l 983 585 q 914 808 974 710 q 753 960 854 906 q 525 1015 653 1015 q 374 992 447 1015 q 244 925 301 968 q 210 911 228 911 q 182 924 194 911 q 171 951 171 935 q 183 981 171 968 q 335 1067 247 1036 q 525 1099 422 1099 m 569 69 q 778 126 686 69 q 925 283 871 182 q 985 510 979 383 l 165 510 q 218 283 167 383 q 361 126 269 183 q 569 69 453 69 z "},"T":{"ha":903,"x_min":21,"x_max":882,"o":"m 844 1085 q 872 1074 861 1085 q 882 1047 882 1064 q 872 1020 882 1031 q 844 1010 861 1010 l 493 1010 l 493 42 q 481 12 493 24 q 451 0 469 0 q 422 12 433 0 q 410 42 410 24 l 410 1010 l 58 1010 q 31 1020 42 1010 q 21 1047 21 1031 q 31 1074 21 1064 q 58 1085 42 1085 l 844 1085 z "},"Ŧ":{"ha":903,"x_min":21,"x_max":882,"o":"m 844 1085 q 872 1074 861 1085 q 882 1047 882 1064 q 872 1020 882 1031 q 844 1010 861 1010 l 493 1010 l 493 581 l 679 581 q 706 570 696 581 q 717 543 717 560 q 706 516 717 526 q 679 506 696 506 l 493 506 l 493 42 q 481 12 493 24 q 451 0 469 0 q 422 12 433 0 q 410 42 410 24 l 410 506 l 238 506 q 210 516 221 506 q 200 543 200 526 q 210 570 200 560 q 238 581 221 581 l 410 581 l 410 1010 l 58 1010 q 31 1020 42 1010 q 21 1047 21 1031 q 31 1074 21 1064 q 58 1085 42 1085 l 844 1085 z "},"Ť":{"ha":903,"x_min":21,"x_max":882,"o":"m 844 1085 q 872 1074 861 1085 q 882 1047 882 1064 q 872 1020 882 1031 q 844 1010 861 1010 l 493 1010 l 493 42 q 481 12 493 24 q 451 0 469 0 q 422 12 433 0 q 410 42 410 24 l 410 1010 l 58 1010 q 31 1020 42 1010 q 21 1047 21 1031 q 31 1074 21 1064 q 58 1085 42 1085 l 844 1085 m 451 1225 q 431 1231 438 1225 l 263 1342 q 240 1379 240 1356 q 251 1406 240 1396 q 276 1417 261 1417 q 310 1406 293 1417 l 451 1308 l 593 1403 q 628 1415 611 1415 q 653 1405 643 1415 q 663 1379 663 1394 q 640 1342 663 1358 l 472 1231 q 451 1225 465 1225 z "},"Ţ":{"ha":903,"x_min":21,"x_max":882,"o":"m 844 1085 q 872 1074 861 1085 q 882 1047 882 1064 q 872 1020 882 1031 q 844 1010 861 1010 l 493 1010 l 493 53 q 515 41 507 51 q 522 17 522 31 q 519 0 522 6 l 499 -50 q 594 -101 568 -71 q 621 -178 621 -132 q 568 -281 621 -239 q 444 -322 515 -322 q 334 -294 378 -322 q 290 -231 290 -267 q 302 -200 290 -212 q 332 -187 314 -187 q 351 -192 343 -187 q 368 -203 360 -197 q 381 -214 376 -210 q 408 -231 394 -225 q 444 -237 421 -237 q 503 -222 481 -237 q 526 -181 526 -207 q 508 -138 526 -154 q 447 -110 490 -122 q 414 -96 425 -104 q 403 -72 403 -87 q 410 -46 403 -64 l 431 6 q 415 21 421 11 q 410 42 410 31 l 410 1010 l 58 1010 q 31 1020 42 1010 q 21 1047 21 1031 q 31 1074 21 1064 q 58 1085 42 1085 l 844 1085 z "},"Ț":{"ha":903,"x_min":21,"x_max":882,"o":"m 844 1085 q 872 1074 861 1085 q 882 1047 882 1064 q 872 1020 882 1031 q 844 1010 861 1010 l 493 1010 l 493 42 q 481 12 493 24 q 451 0 469 0 q 422 12 433 0 q 410 42 410 24 l 410 1010 l 58 1010 q 31 1020 42 1010 q 21 1047 21 1031 q 31 1074 21 1064 q 58 1085 42 1085 l 844 1085 m 461 -322 q 351 -294 404 -322 q 297 -231 297 -267 q 306 -206 297 -215 q 332 -197 315 -197 q 358 -202 347 -197 q 383 -218 369 -207 q 419 -240 401 -232 q 465 -247 438 -247 q 528 -229 504 -247 q 551 -181 551 -211 q 528 -138 551 -154 q 461 -122 506 -122 q 400 -89 400 -122 q 456 -54 400 -54 q 576 -91 529 -54 q 624 -185 624 -128 q 576 -283 624 -244 q 461 -322 529 -322 z "},"U":{"ha":1113,"x_min":139,"x_max":974,"o":"m 556 -22 q 340 26 435 -22 q 192 159 244 74 q 139 354 139 244 l 139 1043 q 151 1074 139 1063 q 181 1085 163 1085 q 211 1074 200 1085 q 222 1043 222 1063 l 222 354 q 265 203 222 269 q 383 99 307 136 q 556 61 458 61 q 728 99 653 61 q 847 203 804 136 q 890 354 890 269 l 890 1043 q 902 1074 890 1063 q 932 1085 914 1085 q 963 1074 951 1085 q 974 1043 974 1063 l 974 354 q 920 159 974 244 q 772 26 867 74 q 556 -22 676 -22 z "},"Ú":{"ha":1113,"x_min":139,"x_max":974,"o":"m 556 -22 q 340 26 435 -22 q 192 159 244 74 q 139 354 139 244 l 139 1043 q 151 1074 139 1063 q 181 1085 163 1085 q 211 1074 200 1085 q 222 1043 222 1063 l 222 354 q 265 203 222 269 q 383 99 307 136 q 556 61 458 61 q 728 99 653 61 q 847 203 804 136 q 890 354 890 269 l 890 1043 q 902 1074 890 1063 q 932 1085 914 1085 q 963 1074 951 1085 q 974 1043 974 1063 l 974 354 q 920 159 974 244 q 772 26 867 74 q 556 -22 676 -22 m 536 1197 q 506 1210 518 1197 q 493 1240 493 1222 q 503 1268 493 1256 l 674 1439 q 704 1451 686 1451 q 735 1439 722 1451 q 747 1408 747 1426 q 735 1379 747 1392 l 564 1208 q 536 1197 553 1197 z "},"Ŭ":{"ha":1113,"x_min":139,"x_max":974,"o":"m 556 -22 q 340 26 435 -22 q 192 159 244 74 q 139 354 139 244 l 139 1043 q 151 1074 139 1063 q 181 1085 163 1085 q 211 1074 200 1085 q 222 1043 222 1063 l 222 354 q 265 203 222 269 q 383 99 307 136 q 556 61 458 61 q 728 99 653 61 q 847 203 804 136 q 890 354 890 269 l 890 1043 q 902 1074 890 1063 q 932 1085 914 1085 q 963 1074 951 1085 q 974 1043 974 1063 l 974 354 q 920 159 974 244 q 772 26 867 74 q 556 -22 676 -22 m 556 1225 q 450 1246 499 1225 q 373 1302 401 1267 q 344 1379 344 1338 q 357 1410 344 1397 q 388 1422 369 1422 q 417 1410 406 1422 q 429 1379 429 1397 q 463 1323 429 1346 q 556 1300 497 1300 q 649 1323 614 1300 q 683 1379 683 1346 q 695 1410 683 1397 q 725 1422 707 1422 q 754 1410 742 1422 q 768 1381 767 1397 q 701 1268 763 1311 q 556 1225 640 1225 z "},"Û":{"ha":1113,"x_min":139,"x_max":974,"o":"m 556 -22 q 340 26 435 -22 q 192 159 244 74 q 139 354 139 244 l 139 1043 q 151 1074 139 1063 q 181 1085 163 1085 q 211 1074 200 1085 q 222 1043 222 1063 l 222 354 q 265 203 222 269 q 383 99 307 136 q 556 61 458 61 q 728 99 653 61 q 847 203 804 136 q 890 354 890 269 l 890 1043 q 902 1074 890 1063 q 932 1085 914 1085 q 963 1074 951 1085 q 974 1043 974 1063 l 974 354 q 920 159 974 244 q 772 26 867 74 q 556 -22 676 -22 m 390 1225 q 358 1237 371 1225 q 346 1267 346 1249 q 368 1304 346 1290 l 536 1417 q 557 1422 547 1422 q 578 1417 567 1422 l 746 1304 q 768 1267 768 1290 q 756 1237 768 1249 q 725 1225 743 1225 q 699 1233 711 1225 l 557 1328 l 415 1233 q 390 1225 403 1225 z "},"Ȕ":{"ha":1113,"x_min":139,"x_max":974,"o":"m 556 -22 q 340 26 435 -22 q 192 159 244 74 q 139 354 139 244 l 139 1043 q 151 1074 139 1063 q 181 1085 163 1085 q 211 1074 200 1085 q 222 1043 222 1063 l 222 354 q 265 203 222 269 q 383 99 307 136 q 556 61 458 61 q 728 99 653 61 q 847 203 804 136 q 890 354 890 269 l 890 1043 q 902 1074 890 1063 q 932 1085 914 1085 q 963 1074 951 1085 q 974 1043 974 1063 l 974 354 q 920 159 974 244 q 772 26 867 74 q 556 -22 676 -22 m 494 1199 q 467 1218 475 1199 l 376 1408 q 374 1424 374 1417 q 385 1453 374 1440 q 417 1465 397 1465 q 440 1458 429 1465 q 454 1439 450 1451 l 519 1239 q 521 1226 521 1236 q 513 1206 521 1214 q 494 1199 506 1199 m 713 1199 q 685 1218 694 1199 l 594 1408 q 592 1424 592 1417 q 603 1453 592 1440 q 635 1465 615 1465 q 658 1458 647 1465 q 674 1439 668 1451 l 738 1239 q 739 1226 739 1236 q 731 1206 739 1214 q 713 1199 724 1199 z "},"Ü":{"ha":1113,"x_min":139,"x_max":974,"o":"m 556 -22 q 340 26 435 -22 q 192 159 244 74 q 139 354 139 244 l 139 1043 q 151 1074 139 1063 q 181 1085 163 1085 q 211 1074 200 1085 q 222 1043 222 1063 l 222 354 q 265 203 222 269 q 383 99 307 136 q 556 61 458 61 q 728 99 653 61 q 847 203 804 136 q 890 354 890 269 l 890 1043 q 902 1074 890 1063 q 932 1085 914 1085 q 963 1074 951 1085 q 974 1043 974 1063 l 974 354 q 920 159 974 244 q 772 26 867 74 q 556 -22 676 -22 m 418 1238 q 367 1258 388 1238 q 346 1310 346 1279 q 367 1360 346 1339 q 418 1381 388 1381 q 469 1360 449 1381 q 489 1310 489 1339 q 469 1258 489 1279 q 418 1238 449 1238 m 696 1238 q 644 1258 665 1238 q 624 1310 624 1279 q 644 1360 624 1339 q 696 1381 665 1381 q 747 1360 726 1381 q 767 1310 767 1339 q 747 1258 767 1279 q 696 1238 726 1238 z "},"Ụ":{"ha":1113,"x_min":139,"x_max":974,"o":"m 556 -22 q 340 26 435 -22 q 192 159 244 74 q 139 354 139 244 l 139 1043 q 151 1074 139 1063 q 181 1085 163 1085 q 211 1074 200 1085 q 222 1043 222 1063 l 222 354 q 265 203 222 269 q 383 99 307 136 q 556 61 458 61 q 728 99 653 61 q 847 203 804 136 q 890 354 890 269 l 890 1043 q 902 1074 890 1063 q 932 1085 914 1085 q 963 1074 951 1085 q 974 1043 974 1063 l 974 354 q 920 159 974 244 q 772 26 867 74 q 556 -22 676 -22 m 556 -275 q 510 -256 528 -275 q 492 -210 492 -237 q 511 -162 492 -179 q 557 -146 531 -146 q 602 -162 583 -146 q 621 -210 621 -179 q 602 -256 621 -237 q 556 -275 583 -275 z "},"Ù":{"ha":1113,"x_min":139,"x_max":974,"o":"m 556 -22 q 340 26 435 -22 q 192 159 244 74 q 139 354 139 244 l 139 1043 q 151 1074 139 1063 q 181 1085 163 1085 q 211 1074 200 1085 q 222 1043 222 1063 l 222 354 q 265 203 222 269 q 383 99 307 136 q 556 61 458 61 q 728 99 653 61 q 847 203 804 136 q 890 354 890 269 l 890 1043 q 902 1074 890 1063 q 932 1085 914 1085 q 963 1074 951 1085 q 974 1043 974 1063 l 974 354 q 920 159 974 244 q 772 26 867 74 q 556 -22 676 -22 m 558 1213 q 529 1224 544 1213 l 358 1394 q 347 1424 347 1406 q 360 1454 347 1442 q 390 1467 372 1467 q 419 1454 407 1467 l 590 1283 q 600 1256 600 1274 q 588 1225 600 1238 q 558 1213 576 1213 z "},"Ủ":{"ha":1113,"x_min":139,"x_max":974,"o":"m 556 -22 q 340 26 435 -22 q 192 159 244 74 q 139 354 139 244 l 139 1043 q 151 1074 139 1063 q 181 1085 163 1085 q 211 1074 200 1085 q 222 1043 222 1063 l 222 354 q 265 203 222 269 q 383 99 307 136 q 556 61 458 61 q 728 99 653 61 q 847 203 804 136 q 890 354 890 269 l 890 1043 q 902 1074 890 1063 q 932 1085 914 1085 q 963 1074 951 1085 q 974 1043 974 1063 l 974 354 q 920 159 974 244 q 772 26 867 74 q 556 -22 676 -22 m 554 1153 q 526 1165 538 1153 q 514 1193 514 1176 l 514 1239 q 550 1283 514 1275 l 583 1290 q 628 1313 615 1297 q 642 1354 642 1328 q 620 1406 642 1386 q 565 1425 599 1425 q 507 1403 533 1425 q 481 1393 494 1393 q 452 1405 464 1393 q 440 1433 440 1417 q 454 1464 440 1453 q 565 1506 504 1506 q 678 1467 633 1506 q 722 1363 722 1428 q 686 1270 722 1304 q 594 1226 650 1236 l 594 1193 q 583 1165 594 1176 q 554 1153 571 1153 z "},"Ư":{"ha":1113,"x_min":139,"x_max":1128,"o":"m 1088 1221 q 1117 1208 1107 1221 q 1128 1174 1128 1194 l 1128 1149 q 1088 1046 1128 1088 q 990 1004 1049 1004 l 974 1004 l 974 354 q 920 159 974 244 q 772 26 867 74 q 556 -22 676 -22 q 340 26 435 -22 q 192 159 244 74 q 139 354 139 244 l 139 1043 q 151 1074 139 1063 q 181 1085 163 1085 q 211 1074 200 1085 q 222 1043 222 1063 l 222 354 q 265 203 222 269 q 383 99 307 136 q 556 61 458 61 q 728 99 653 61 q 847 203 804 136 q 890 354 890 269 l 890 1043 q 902 1074 890 1063 q 932 1085 914 1085 l 990 1085 q 1031 1103 1015 1085 q 1047 1149 1047 1121 l 1047 1181 q 1058 1210 1047 1199 q 1088 1221 1068 1221 z "},"Ứ":{"ha":1113,"x_min":139,"x_max":1128,"o":"m 1088 1221 q 1117 1208 1107 1221 q 1128 1174 1128 1194 l 1128 1149 q 1088 1046 1128 1088 q 990 1004 1049 1004 l 974 1004 l 974 354 q 920 159 974 244 q 772 26 867 74 q 556 -22 676 -22 q 340 26 435 -22 q 192 159 244 74 q 139 354 139 244 l 139 1043 q 151 1074 139 1063 q 181 1085 163 1085 q 211 1074 200 1085 q 222 1043 222 1063 l 222 354 q 265 203 222 269 q 383 99 307 136 q 556 61 458 61 q 728 99 653 61 q 847 203 804 136 q 890 354 890 269 l 890 1043 q 902 1074 890 1063 q 932 1085 914 1085 l 990 1085 q 1031 1103 1015 1085 q 1047 1149 1047 1121 l 1047 1181 q 1058 1210 1047 1199 q 1088 1221 1068 1221 m 536 1197 q 506 1210 518 1197 q 493 1240 493 1222 q 503 1268 493 1256 l 674 1439 q 704 1451 686 1451 q 735 1439 722 1451 q 747 1408 747 1426 q 735 1379 747 1392 l 564 1208 q 536 1197 553 1197 z "},"Ự":{"ha":1113,"x_min":139,"x_max":1128,"o":"m 1088 1221 q 1117 1208 1107 1221 q 1128 1174 1128 1194 l 1128 1149 q 1088 1046 1128 1088 q 990 1004 1049 1004 l 974 1004 l 974 354 q 920 159 974 244 q 772 26 867 74 q 556 -22 676 -22 q 340 26 435 -22 q 192 159 244 74 q 139 354 139 244 l 139 1043 q 151 1074 139 1063 q 181 1085 163 1085 q 211 1074 200 1085 q 222 1043 222 1063 l 222 354 q 265 203 222 269 q 383 99 307 136 q 556 61 458 61 q 728 99 653 61 q 847 203 804 136 q 890 354 890 269 l 890 1043 q 902 1074 890 1063 q 932 1085 914 1085 l 990 1085 q 1031 1103 1015 1085 q 1047 1149 1047 1121 l 1047 1181 q 1058 1210 1047 1199 q 1088 1221 1068 1221 m 556 -275 q 510 -256 528 -275 q 492 -210 492 -237 q 511 -162 492 -179 q 557 -146 531 -146 q 602 -162 583 -146 q 621 -210 621 -179 q 602 -256 621 -237 q 556 -275 583 -275 z "},"Ừ":{"ha":1113,"x_min":139,"x_max":1128,"o":"m 1088 1221 q 1117 1208 1107 1221 q 1128 1174 1128 1194 l 1128 1149 q 1088 1046 1128 1088 q 990 1004 1049 1004 l 974 1004 l 974 354 q 920 159 974 244 q 772 26 867 74 q 556 -22 676 -22 q 340 26 435 -22 q 192 159 244 74 q 139 354 139 244 l 139 1043 q 151 1074 139 1063 q 181 1085 163 1085 q 211 1074 200 1085 q 222 1043 222 1063 l 222 354 q 265 203 222 269 q 383 99 307 136 q 556 61 458 61 q 728 99 653 61 q 847 203 804 136 q 890 354 890 269 l 890 1043 q 902 1074 890 1063 q 932 1085 914 1085 l 990 1085 q 1031 1103 1015 1085 q 1047 1149 1047 1121 l 1047 1181 q 1058 1210 1047 1199 q 1088 1221 1068 1221 m 558 1213 q 529 1224 544 1213 l 358 1394 q 347 1424 347 1406 q 360 1454 347 1442 q 390 1467 372 1467 q 419 1454 407 1467 l 590 1283 q 600 1256 600 1274 q 588 1225 600 1238 q 558 1213 576 1213 z "},"Ử":{"ha":1113,"x_min":139,"x_max":1128,"o":"m 1088 1221 q 1117 1208 1107 1221 q 1128 1174 1128 1194 l 1128 1149 q 1088 1046 1128 1088 q 990 1004 1049 1004 l 974 1004 l 974 354 q 920 159 974 244 q 772 26 867 74 q 556 -22 676 -22 q 340 26 435 -22 q 192 159 244 74 q 139 354 139 244 l 139 1043 q 151 1074 139 1063 q 181 1085 163 1085 q 211 1074 200 1085 q 222 1043 222 1063 l 222 354 q 265 203 222 269 q 383 99 307 136 q 556 61 458 61 q 728 99 653 61 q 847 203 804 136 q 890 354 890 269 l 890 1043 q 902 1074 890 1063 q 932 1085 914 1085 l 990 1085 q 1031 1103 1015 1085 q 1047 1149 1047 1121 l 1047 1181 q 1058 1210 1047 1199 q 1088 1221 1068 1221 m 554 1153 q 526 1165 538 1153 q 514 1193 514 1176 l 514 1239 q 550 1283 514 1275 l 583 1290 q 628 1313 615 1297 q 642 1354 642 1328 q 620 1406 642 1386 q 565 1425 599 1425 q 507 1403 533 1425 q 481 1393 494 1393 q 452 1405 464 1393 q 440 1433 440 1417 q 454 1464 440 1453 q 565 1506 504 1506 q 678 1467 633 1506 q 722 1363 722 1428 q 686 1270 722 1304 q 594 1226 650 1236 l 594 1193 q 583 1165 594 1176 q 554 1153 571 1153 z "},"Ữ":{"ha":1113,"x_min":139,"x_max":1128,"o":"m 1088 1221 q 1117 1208 1107 1221 q 1128 1174 1128 1194 l 1128 1149 q 1088 1046 1128 1088 q 990 1004 1049 1004 l 974 1004 l 974 354 q 920 159 974 244 q 772 26 867 74 q 556 -22 676 -22 q 340 26 435 -22 q 192 159 244 74 q 139 354 139 244 l 139 1043 q 151 1074 139 1063 q 181 1085 163 1085 q 211 1074 200 1085 q 222 1043 222 1063 l 222 354 q 265 203 222 269 q 383 99 307 136 q 556 61 458 61 q 728 99 653 61 q 847 203 804 136 q 890 354 890 269 l 890 1043 q 902 1074 890 1063 q 932 1085 914 1085 l 990 1085 q 1031 1103 1015 1085 q 1047 1149 1047 1121 l 1047 1181 q 1058 1210 1047 1199 q 1088 1221 1068 1221 m 703 1200 q 635 1213 664 1200 q 572 1249 606 1226 q 528 1274 544 1268 q 493 1281 511 1281 q 386 1224 436 1281 q 351 1207 374 1207 q 331 1213 338 1207 q 310 1244 310 1225 q 318 1268 310 1258 q 401 1337 356 1313 q 493 1361 446 1361 q 556 1349 529 1361 q 618 1315 583 1338 q 663 1288 647 1296 q 703 1281 679 1281 q 779 1311 750 1281 q 818 1331 796 1331 q 833 1326 828 1331 q 858 1293 858 1314 q 850 1271 858 1282 q 703 1200 796 1200 z "},"Ű":{"ha":1113,"x_min":139,"x_max":974,"o":"m 556 -22 q 340 26 435 -22 q 192 159 244 74 q 139 354 139 244 l 139 1043 q 151 1074 139 1063 q 181 1085 163 1085 q 211 1074 200 1085 q 222 1043 222 1063 l 222 354 q 265 203 222 269 q 383 99 307 136 q 556 61 458 61 q 728 99 653 61 q 847 203 804 136 q 890 354 890 269 l 890 1043 q 902 1074 890 1063 q 932 1085 914 1085 q 963 1074 951 1085 q 974 1043 974 1063 l 974 354 q 920 159 974 244 q 772 26 867 74 q 556 -22 676 -22 m 442 1199 q 423 1206 431 1199 q 415 1226 415 1214 q 417 1239 415 1236 l 481 1439 q 497 1458 486 1451 q 519 1465 507 1465 q 551 1453 539 1465 q 563 1424 563 1440 q 560 1408 563 1417 l 469 1218 q 442 1199 460 1199 m 660 1199 q 641 1206 649 1199 q 633 1226 633 1214 q 635 1239 633 1236 l 700 1439 q 715 1458 704 1451 q 738 1465 725 1465 q 769 1453 757 1465 q 781 1424 781 1440 q 778 1408 781 1417 l 688 1218 q 660 1199 679 1199 z "},"Ȗ":{"ha":1113,"x_min":139,"x_max":974,"o":"m 556 -22 q 340 26 435 -22 q 192 159 244 74 q 139 354 139 244 l 139 1043 q 151 1074 139 1063 q 181 1085 163 1085 q 211 1074 200 1085 q 222 1043 222 1063 l 222 354 q 265 203 222 269 q 383 99 307 136 q 556 61 458 61 q 728 99 653 61 q 847 203 804 136 q 890 354 890 269 l 890 1043 q 902 1074 890 1063 q 932 1085 914 1085 q 963 1074 951 1085 q 974 1043 974 1063 l 974 354 q 920 159 974 244 q 772 26 867 74 q 556 -22 676 -22 m 556 1422 q 701 1379 640 1422 q 768 1267 763 1336 q 754 1238 767 1250 q 725 1225 742 1225 q 695 1238 707 1225 q 683 1268 683 1250 q 649 1324 683 1301 q 556 1347 614 1347 q 463 1324 497 1347 q 429 1268 429 1301 q 417 1238 429 1250 q 388 1225 406 1225 q 357 1238 369 1225 q 344 1268 344 1250 q 373 1345 344 1310 q 450 1401 401 1381 q 556 1422 499 1422 z "},"Ū":{"ha":1113,"x_min":139,"x_max":974,"o":"m 556 -22 q 340 26 435 -22 q 192 159 244 74 q 139 354 139 244 l 139 1043 q 151 1074 139 1063 q 181 1085 163 1085 q 211 1074 200 1085 q 222 1043 222 1063 l 222 354 q 265 203 222 269 q 383 99 307 136 q 556 61 458 61 q 728 99 653 61 q 847 203 804 136 q 890 354 890 269 l 890 1043 q 902 1074 890 1063 q 932 1085 914 1085 q 963 1074 951 1085 q 974 1043 974 1063 l 974 354 q 920 159 974 244 q 772 26 867 74 q 556 -22 676 -22 m 372 1243 q 342 1255 354 1243 q 331 1285 331 1267 q 342 1315 331 1303 q 372 1328 354 1328 l 740 1328 q 770 1315 758 1328 q 782 1285 782 1303 q 770 1255 782 1267 q 740 1243 758 1243 l 372 1243 z "},"Ų":{"ha":1113,"x_min":139,"x_max":974,"o":"m 932 1085 q 963 1074 951 1085 q 974 1043 974 1063 l 974 354 q 910 144 974 235 q 738 11 847 54 q 657 -82 726 -31 q 628 -139 628 -106 q 648 -188 628 -168 q 697 -208 668 -208 q 736 -197 719 -208 l 785 -161 q 810 -153 797 -153 q 840 -165 828 -153 q 853 -196 853 -178 q 839 -228 853 -217 l 782 -267 q 697 -293 743 -293 q 589 -248 635 -293 q 543 -139 543 -203 q 599 -21 543 -72 q 556 -22 585 -22 q 340 26 435 -22 q 192 159 244 74 q 139 354 139 244 l 139 1043 q 151 1074 139 1063 q 181 1085 163 1085 q 211 1074 200 1085 q 222 1043 222 1063 l 222 354 q 265 203 222 269 q 383 99 307 136 q 556 61 458 61 q 728 99 653 61 q 847 203 804 136 q 890 354 890 269 l 890 1043 q 902 1074 890 1063 q 932 1085 914 1085 z "},"Ů":{"ha":1113,"x_min":139,"x_max":974,"o":"m 556 -22 q 340 26 435 -22 q 192 159 244 74 q 139 354 139 244 l 139 1043 q 151 1074 139 1063 q 181 1085 163 1085 q 211 1074 200 1085 q 222 1043 222 1063 l 222 354 q 265 203 222 269 q 383 99 307 136 q 556 61 458 61 q 728 99 653 61 q 847 203 804 136 q 890 354 890 269 l 890 1043 q 902 1074 890 1063 q 932 1085 914 1085 q 963 1074 951 1085 q 974 1043 974 1063 l 974 354 q 920 159 974 244 q 772 26 867 74 q 556 -22 676 -22 m 557 1154 q 467 1192 504 1154 q 429 1282 429 1231 q 467 1372 429 1335 q 557 1410 506 1410 q 647 1372 610 1410 q 685 1282 685 1335 q 647 1192 685 1231 q 557 1154 610 1154 m 557 1208 q 610 1230 588 1208 q 632 1282 632 1251 q 610 1335 632 1314 q 557 1357 588 1357 q 505 1335 526 1357 q 483 1282 483 1313 q 505 1230 483 1251 q 557 1208 526 1208 z "},"Ũ":{"ha":1113,"x_min":139,"x_max":974,"o":"m 556 -22 q 340 26 435 -22 q 192 159 244 74 q 139 354 139 244 l 139 1043 q 151 1074 139 1063 q 181 1085 163 1085 q 211 1074 200 1085 q 222 1043 222 1063 l 222 354 q 265 203 222 269 q 383 99 307 136 q 556 61 458 61 q 728 99 653 61 q 847 203 804 136 q 890 354 890 269 l 890 1043 q 902 1074 890 1063 q 932 1085 914 1085 q 963 1074 951 1085 q 974 1043 974 1063 l 974 354 q 920 159 974 244 q 772 26 867 74 q 556 -22 676 -22 m 703 1200 q 635 1213 664 1200 q 572 1249 606 1226 q 528 1274 544 1268 q 493 1281 511 1281 q 386 1224 436 1281 q 351 1207 374 1207 q 331 1213 338 1207 q 310 1244 310 1225 q 318 1268 310 1258 q 401 1337 356 1313 q 493 1361 446 1361 q 556 1349 529 1361 q 618 1315 583 1338 q 663 1288 647 1296 q 703 1281 679 1281 q 779 1311 750 1281 q 818 1331 796 1331 q 833 1326 828 1331 q 858 1293 858 1314 q 850 1271 858 1282 q 703 1200 796 1200 z "},"V":{"ha":975,"x_min":28,"x_max":947,"o":"m 911 1085 q 938 1074 928 1085 q 947 1044 947 1063 q 942 1017 947 1029 l 526 26 q 489 0 514 0 q 466 6 475 0 q 451 26 457 13 l 35 1017 q 28 1046 28 1035 q 40 1074 28 1064 q 71 1085 53 1085 q 94 1078 85 1085 q 111 1056 104 1071 l 490 147 l 865 1050 q 883 1076 872 1068 q 911 1085 894 1085 z "},"W":{"ha":1303,"x_min":39,"x_max":1261,"o":"m 1221 1085 q 1250 1073 1239 1085 q 1261 1042 1261 1061 q 1258 1022 1261 1036 l 972 36 q 955 10 967 19 q 929 0 943 0 q 901 10 913 0 q 886 36 890 19 l 650 871 l 417 36 q 372 0 403 0 q 345 10 357 0 q 329 36 333 21 l 42 1022 q 39 1040 39 1036 q 50 1072 39 1060 q 81 1085 61 1085 q 121 1053 113 1085 l 372 183 l 611 1017 q 626 1035 614 1028 q 650 1043 638 1043 q 675 1035 664 1043 q 690 1015 686 1028 l 929 183 l 1181 1057 q 1194 1077 1183 1069 q 1221 1085 1206 1085 z "},"Ẃ":{"ha":1303,"x_min":39,"x_max":1261,"o":"m 1221 1085 q 1250 1073 1239 1085 q 1261 1042 1261 1061 q 1258 1022 1261 1036 l 972 36 q 955 10 967 19 q 929 0 943 0 q 901 10 913 0 q 886 36 890 19 l 650 871 l 417 36 q 372 0 403 0 q 345 10 357 0 q 329 36 333 21 l 42 1022 q 39 1040 39 1036 q 50 1072 39 1060 q 81 1085 61 1085 q 121 1053 113 1085 l 372 183 l 611 1017 q 626 1035 614 1028 q 650 1043 638 1043 q 675 1035 664 1043 q 690 1015 686 1028 l 929 183 l 1181 1057 q 1194 1077 1183 1069 q 1221 1085 1206 1085 m 631 1197 q 600 1210 613 1197 q 588 1240 588 1222 q 597 1268 588 1256 l 768 1439 q 799 1451 781 1451 q 829 1439 817 1451 q 842 1408 842 1426 q 829 1379 842 1392 l 658 1208 q 631 1197 647 1197 z "},"Ŵ":{"ha":1303,"x_min":39,"x_max":1261,"o":"m 1221 1085 q 1250 1073 1239 1085 q 1261 1042 1261 1061 q 1258 1022 1261 1036 l 972 36 q 955 10 967 19 q 929 0 943 0 q 901 10 913 0 q 886 36 890 19 l 650 871 l 417 36 q 372 0 403 0 q 345 10 357 0 q 329 36 333 21 l 42 1022 q 39 1040 39 1036 q 50 1072 39 1060 q 81 1085 61 1085 q 121 1053 113 1085 l 372 183 l 611 1017 q 626 1035 614 1028 q 650 1043 638 1043 q 675 1035 664 1043 q 690 1015 686 1028 l 929 183 l 1181 1057 q 1194 1077 1183 1069 q 1221 1085 1206 1085 m 485 1225 q 453 1237 465 1225 q 440 1267 440 1249 q 463 1304 440 1290 l 631 1417 q 651 1422 642 1422 q 672 1417 661 1422 l 840 1304 q 863 1267 863 1290 q 850 1237 863 1249 q 819 1225 838 1225 q 793 1233 806 1225 l 651 1328 l 510 1233 q 485 1225 497 1225 z "},"Ẅ":{"ha":1303,"x_min":39,"x_max":1261,"o":"m 1221 1085 q 1250 1073 1239 1085 q 1261 1042 1261 1061 q 1258 1022 1261 1036 l 972 36 q 955 10 967 19 q 929 0 943 0 q 901 10 913 0 q 886 36 890 19 l 650 871 l 417 36 q 372 0 403 0 q 345 10 357 0 q 329 36 333 21 l 42 1022 q 39 1040 39 1036 q 50 1072 39 1060 q 81 1085 61 1085 q 121 1053 113 1085 l 372 183 l 611 1017 q 626 1035 614 1028 q 650 1043 638 1043 q 675 1035 664 1043 q 690 1015 686 1028 l 929 183 l 1181 1057 q 1194 1077 1183 1069 q 1221 1085 1206 1085 m 513 1238 q 461 1258 482 1238 q 440 1310 440 1279 q 461 1360 440 1339 q 513 1381 482 1381 q 563 1360 543 1381 q 583 1310 583 1339 q 563 1258 583 1279 q 513 1238 543 1238 m 790 1238 q 739 1258 760 1238 q 718 1310 718 1279 q 739 1360 718 1339 q 790 1381 760 1381 q 841 1360 821 1381 q 861 1310 861 1339 q 841 1258 861 1279 q 790 1238 821 1238 z "},"Ẁ":{"ha":1303,"x_min":39,"x_max":1261,"o":"m 1221 1085 q 1250 1073 1239 1085 q 1261 1042 1261 1061 q 1258 1022 1261 1036 l 972 36 q 955 10 967 19 q 929 0 943 0 q 901 10 913 0 q 886 36 890 19 l 650 871 l 417 36 q 372 0 403 0 q 345 10 357 0 q 329 36 333 21 l 42 1022 q 39 1040 39 1036 q 50 1072 39 1060 q 81 1085 61 1085 q 121 1053 113 1085 l 372 183 l 611 1017 q 626 1035 614 1028 q 650 1043 638 1043 q 675 1035 664 1043 q 690 1015 686 1028 l 929 183 l 1181 1057 q 1194 1077 1183 1069 q 1221 1085 1206 1085 m 653 1213 q 624 1224 639 1213 l 453 1394 q 442 1424 442 1406 q 454 1454 442 1442 q 485 1467 467 1467 q 514 1454 501 1467 l 685 1283 q 694 1256 694 1274 q 683 1225 694 1238 q 653 1213 671 1213 z "},"X":{"ha":974,"x_min":63,"x_max":913,"o":"m 903 68 q 913 40 913 57 q 902 12 913 24 q 874 0 892 0 q 856 3 865 0 q 842 14 846 7 l 489 503 l 136 14 q 104 0 124 0 q 74 11 86 0 q 63 39 63 22 q 72 68 63 54 l 429 561 l 97 1019 q 88 1047 88 1031 q 99 1074 88 1063 q 126 1085 110 1085 q 161 1067 147 1085 l 488 615 l 813 1067 q 847 1085 826 1085 q 877 1071 865 1085 q 889 1040 889 1057 q 882 1019 889 1029 l 547 558 l 903 68 z "},"Y":{"ha":879,"x_min":7,"x_max":872,"o":"m 835 1085 q 862 1074 851 1085 q 872 1046 872 1063 q 865 1019 872 1031 l 482 406 l 482 42 q 470 12 482 24 q 440 0 458 0 q 410 12 422 0 q 399 42 399 24 l 399 406 l 15 1019 q 7 1046 7 1035 q 18 1074 7 1063 q 47 1085 29 1085 q 81 1068 65 1085 l 440 482 l 794 1058 q 813 1079 804 1074 q 835 1085 822 1085 z "},"Ý":{"ha":879,"x_min":7,"x_max":872,"o":"m 835 1085 q 862 1074 851 1085 q 872 1046 872 1063 q 865 1019 872 1031 l 482 406 l 482 42 q 470 12 482 24 q 440 0 458 0 q 410 12 422 0 q 399 42 399 24 l 399 406 l 15 1019 q 7 1046 7 1035 q 18 1074 7 1063 q 47 1085 29 1085 q 81 1068 65 1085 l 440 482 l 794 1058 q 813 1079 804 1074 q 835 1085 822 1085 m 419 1197 q 389 1210 401 1197 q 376 1240 376 1222 q 386 1268 376 1256 l 557 1439 q 588 1451 569 1451 q 618 1439 606 1451 q 631 1408 631 1426 q 618 1379 631 1392 l 447 1208 q 419 1197 436 1197 z "},"Ŷ":{"ha":879,"x_min":7,"x_max":872,"o":"m 835 1085 q 862 1074 851 1085 q 872 1046 872 1063 q 865 1019 872 1031 l 482 406 l 482 42 q 470 12 482 24 q 440 0 458 0 q 410 12 422 0 q 399 42 399 24 l 399 406 l 15 1019 q 7 1046 7 1035 q 18 1074 7 1063 q 47 1085 29 1085 q 81 1068 65 1085 l 440 482 l 794 1058 q 813 1079 804 1074 q 835 1085 822 1085 m 274 1225 q 242 1237 254 1225 q 229 1267 229 1249 q 251 1304 229 1290 l 419 1417 q 440 1422 431 1422 q 461 1417 450 1422 l 629 1304 q 651 1267 651 1290 q 639 1237 651 1249 q 608 1225 626 1225 q 582 1233 594 1225 l 440 1328 l 299 1233 q 274 1225 286 1225 z "},"Ÿ":{"ha":879,"x_min":7,"x_max":872,"o":"m 835 1085 q 862 1074 851 1085 q 872 1046 872 1063 q 865 1019 872 1031 l 482 406 l 482 42 q 470 12 482 24 q 440 0 458 0 q 410 12 422 0 q 399 42 399 24 l 399 406 l 15 1019 q 7 1046 7 1035 q 18 1074 7 1063 q 47 1085 29 1085 q 81 1068 65 1085 l 440 482 l 794 1058 q 813 1079 804 1074 q 835 1085 822 1085 m 301 1238 q 250 1258 271 1238 q 229 1310 229 1279 q 250 1360 229 1339 q 301 1381 271 1381 q 352 1360 332 1381 q 372 1310 372 1339 q 352 1258 372 1279 q 301 1238 332 1238 m 579 1238 q 528 1258 549 1238 q 507 1310 507 1279 q 528 1360 507 1339 q 579 1381 549 1381 q 630 1360 610 1381 q 650 1310 650 1339 q 630 1258 650 1279 q 579 1238 610 1238 z "},"Ỵ":{"ha":879,"x_min":7,"x_max":872,"o":"m 835 1085 q 862 1074 851 1085 q 872 1046 872 1063 q 865 1019 872 1031 l 482 406 l 482 42 q 470 12 482 24 q 440 0 458 0 q 410 12 422 0 q 399 42 399 24 l 399 406 l 15 1019 q 7 1046 7 1035 q 18 1074 7 1063 q 47 1085 29 1085 q 81 1068 65 1085 l 440 482 l 794 1058 q 813 1079 804 1074 q 835 1085 822 1085 m 439 -275 q 393 -256 411 -275 q 375 -210 375 -237 q 394 -162 375 -179 q 440 -146 414 -146 q 485 -162 467 -146 q 504 -210 504 -179 q 485 -256 504 -237 q 439 -275 467 -275 z "},"Ỳ":{"ha":879,"x_min":7,"x_max":872,"o":"m 835 1085 q 862 1074 851 1085 q 872 1046 872 1063 q 865 1019 872 1031 l 482 406 l 482 42 q 470 12 482 24 q 440 0 458 0 q 410 12 422 0 q 399 42 399 24 l 399 406 l 15 1019 q 7 1046 7 1035 q 18 1074 7 1063 q 47 1085 29 1085 q 81 1068 65 1085 l 440 482 l 794 1058 q 813 1079 804 1074 q 835 1085 822 1085 m 442 1213 q 413 1224 428 1213 l 242 1394 q 231 1424 231 1406 q 243 1454 231 1442 q 274 1467 256 1467 q 303 1454 290 1467 l 474 1283 q 483 1256 483 1274 q 472 1225 483 1238 q 442 1213 460 1213 z "},"Ỷ":{"ha":879,"x_min":7,"x_max":872,"o":"m 835 1085 q 862 1074 851 1085 q 872 1046 872 1063 q 865 1019 872 1031 l 482 406 l 482 42 q 470 12 482 24 q 440 0 458 0 q 410 12 422 0 q 399 42 399 24 l 399 406 l 15 1019 q 7 1046 7 1035 q 18 1074 7 1063 q 47 1085 29 1085 q 81 1068 65 1085 l 440 482 l 794 1058 q 813 1079 804 1074 q 835 1085 822 1085 m 438 1153 q 409 1165 421 1153 q 397 1193 397 1176 l 397 1239 q 433 1283 397 1275 l 467 1290 q 512 1313 499 1297 q 525 1354 525 1328 q 503 1406 525 1386 q 449 1425 482 1425 q 390 1403 417 1425 q 364 1393 378 1393 q 335 1405 347 1393 q 324 1433 324 1417 q 338 1464 324 1453 q 449 1506 388 1506 q 561 1467 517 1506 q 606 1363 606 1428 q 569 1270 606 1304 q 478 1226 533 1236 l 478 1193 q 466 1165 478 1176 q 438 1153 454 1153 z "},"Ȳ":{"ha":879,"x_min":7,"x_max":872,"o":"m 835 1085 q 862 1074 851 1085 q 872 1046 872 1063 q 865 1019 872 1031 l 482 406 l 482 42 q 470 12 482 24 q 440 0 458 0 q 410 12 422 0 q 399 42 399 24 l 399 406 l 15 1019 q 7 1046 7 1035 q 18 1074 7 1063 q 47 1085 29 1085 q 81 1068 65 1085 l 440 482 l 794 1058 q 813 1079 804 1074 q 835 1085 822 1085 m 256 1243 q 226 1255 238 1243 q 214 1285 214 1267 q 226 1315 214 1303 q 256 1328 238 1328 l 624 1328 q 653 1315 642 1328 q 665 1285 665 1303 q 653 1255 665 1267 q 624 1243 642 1243 l 256 1243 z "},"Ỹ":{"ha":879,"x_min":7,"x_max":872,"o":"m 835 1085 q 862 1074 851 1085 q 872 1046 872 1063 q 865 1019 872 1031 l 482 406 l 482 42 q 470 12 482 24 q 440 0 458 0 q 410 12 422 0 q 399 42 399 24 l 399 406 l 15 1019 q 7 1046 7 1035 q 18 1074 7 1063 q 47 1085 29 1085 q 81 1068 65 1085 l 440 482 l 794 1058 q 813 1079 804 1074 q 835 1085 822 1085 m 586 1200 q 518 1213 547 1200 q 456 1249 489 1226 q 411 1274 428 1268 q 376 1281 394 1281 q 269 1224 319 1281 q 235 1207 257 1207 q 214 1213 221 1207 q 193 1244 193 1225 q 201 1268 193 1258 q 284 1337 239 1313 q 376 1361 329 1361 q 440 1349 413 1361 q 501 1315 467 1338 q 547 1288 531 1296 q 586 1281 563 1281 q 663 1311 633 1281 q 701 1331 679 1331 q 717 1326 711 1331 q 742 1293 742 1314 q 733 1271 742 1282 q 586 1200 679 1200 z "},"Z":{"ha":988,"x_min":63,"x_max":925,"o":"m 104 0 q 74 13 86 0 q 63 42 63 25 q 72 68 63 57 l 815 1010 l 104 1010 q 74 1019 85 1010 q 63 1047 63 1028 q 74 1074 63 1063 q 104 1085 86 1085 l 883 1085 q 913 1072 901 1085 q 925 1042 925 1058 q 918 1019 925 1029 l 169 75 l 883 75 q 913 65 901 75 q 925 38 925 56 q 913 11 925 22 q 883 0 900 0 l 104 0 z "},"Ź":{"ha":988,"x_min":63,"x_max":925,"o":"m 104 0 q 74 13 86 0 q 63 42 63 25 q 72 68 63 57 l 815 1010 l 104 1010 q 74 1019 85 1010 q 63 1047 63 1028 q 74 1074 63 1063 q 104 1085 86 1085 l 883 1085 q 913 1072 901 1085 q 925 1042 925 1058 q 918 1019 925 1029 l 169 75 l 883 75 q 913 65 901 75 q 925 38 925 56 q 913 11 925 22 q 883 0 900 0 l 104 0 m 474 1197 q 443 1210 456 1197 q 431 1240 431 1222 q 440 1268 431 1256 l 611 1439 q 642 1451 624 1451 q 672 1439 660 1451 q 685 1408 685 1426 q 672 1379 685 1392 l 501 1208 q 474 1197 490 1197 z "},"Ž":{"ha":988,"x_min":63,"x_max":925,"o":"m 104 0 q 74 13 86 0 q 63 42 63 25 q 72 68 63 57 l 815 1010 l 104 1010 q 74 1019 85 1010 q 63 1047 63 1028 q 74 1074 63 1063 q 104 1085 86 1085 l 883 1085 q 913 1072 901 1085 q 925 1042 925 1058 q 918 1019 925 1029 l 169 75 l 883 75 q 913 65 901 75 q 925 38 925 56 q 913 11 925 22 q 883 0 900 0 l 104 0 m 494 1225 q 474 1231 481 1225 l 306 1342 q 283 1379 283 1356 q 294 1406 283 1396 q 319 1417 304 1417 q 353 1406 336 1417 l 494 1308 l 636 1403 q 671 1415 654 1415 q 696 1405 686 1415 q 706 1379 706 1394 q 683 1342 706 1358 l 515 1231 q 494 1225 508 1225 z "},"Ż":{"ha":988,"x_min":63,"x_max":925,"o":"m 104 0 q 74 13 86 0 q 63 42 63 25 q 72 68 63 57 l 815 1010 l 104 1010 q 74 1019 85 1010 q 63 1047 63 1028 q 74 1074 63 1063 q 104 1085 86 1085 l 883 1085 q 913 1072 901 1085 q 925 1042 925 1058 q 918 1019 925 1029 l 169 75 l 883 75 q 913 65 901 75 q 925 38 925 56 q 913 11 925 22 q 883 0 900 0 l 104 0 m 493 1244 q 447 1263 465 1244 q 429 1310 429 1282 q 449 1357 429 1340 q 494 1374 468 1374 q 540 1357 521 1374 q 558 1310 558 1340 q 540 1263 558 1282 q 493 1244 521 1244 z "},"a":{"ha":943,"x_min":83,"x_max":860,"o":"m 472 768 q 669 717 581 768 q 809 578 758 667 q 860 379 860 489 l 860 42 q 849 12 860 24 q 818 0 838 0 q 788 12 800 0 q 776 42 776 24 l 776 150 q 651 34 731 76 q 472 -8 571 -8 q 274 42 363 -8 q 134 182 185 93 q 83 379 83 271 q 134 578 83 489 q 274 717 185 667 q 472 768 363 768 m 472 69 q 628 110 558 69 q 737 221 697 150 q 776 379 776 292 q 737 538 776 467 q 628 649 697 608 q 472 690 558 690 q 317 649 386 690 q 207 538 247 608 q 167 379 167 467 q 207 221 167 292 q 317 110 247 150 q 472 69 386 69 z "},"á":{"ha":943,"x_min":83,"x_max":860,"o":"m 472 768 q 669 717 581 768 q 809 578 758 667 q 860 379 860 489 l 860 42 q 849 12 860 24 q 818 0 838 0 q 788 12 800 0 q 776 42 776 24 l 776 150 q 651 34 731 76 q 472 -8 571 -8 q 274 42 363 -8 q 134 182 185 93 q 83 379 83 271 q 134 578 83 489 q 274 717 185 667 q 472 768 363 768 m 472 69 q 628 110 558 69 q 737 221 697 150 q 776 379 776 292 q 737 538 776 467 q 628 649 697 608 q 472 690 558 690 q 317 649 386 690 q 207 538 247 608 q 167 379 167 467 q 207 221 167 292 q 317 110 247 150 q 472 69 386 69 m 451 872 q 421 885 433 872 q 408 915 408 897 q 418 943 408 931 l 589 1114 q 619 1126 601 1126 q 650 1114 638 1126 q 663 1083 663 1101 q 650 1054 663 1067 l 479 883 q 451 872 468 872 z "},"ă":{"ha":943,"x_min":83,"x_max":860,"o":"m 472 768 q 669 717 581 768 q 809 578 758 667 q 860 379 860 489 l 860 42 q 849 12 860 24 q 818 0 838 0 q 788 12 800 0 q 776 42 776 24 l 776 150 q 651 34 731 76 q 472 -8 571 -8 q 274 42 363 -8 q 134 182 185 93 q 83 379 83 271 q 134 578 83 489 q 274 717 185 667 q 472 768 363 768 m 472 69 q 628 110 558 69 q 737 221 697 150 q 776 379 776 292 q 737 538 776 467 q 628 649 697 608 q 472 690 558 690 q 317 649 386 690 q 207 538 247 608 q 167 379 167 467 q 207 221 167 292 q 317 110 247 150 q 472 69 386 69 m 471 900 q 365 921 414 900 q 288 977 317 942 q 260 1054 260 1013 q 272 1085 260 1072 q 303 1097 285 1097 q 333 1085 321 1097 q 344 1054 344 1072 q 378 998 344 1021 q 471 975 413 975 q 564 998 529 975 q 599 1054 599 1021 q 610 1085 599 1072 q 640 1097 622 1097 q 669 1085 657 1097 q 683 1056 682 1072 q 617 943 678 986 q 471 900 556 900 z "},"ắ":{"ha":943,"x_min":83,"x_max":860,"o":"m 472 768 q 669 717 581 768 q 809 578 758 667 q 860 379 860 489 l 860 42 q 849 12 860 24 q 818 0 838 0 q 788 12 800 0 q 776 42 776 24 l 776 150 q 651 34 731 76 q 472 -8 571 -8 q 274 42 363 -8 q 134 182 185 93 q 83 379 83 271 q 134 578 83 489 q 274 717 185 667 q 472 768 363 768 m 472 69 q 628 110 558 69 q 737 221 697 150 q 776 379 776 292 q 737 538 776 467 q 628 649 697 608 q 472 690 558 690 q 317 649 386 690 q 207 538 247 608 q 167 379 167 467 q 207 221 167 292 q 317 110 247 150 q 472 69 386 69 m 471 900 q 365 921 414 900 q 288 977 317 942 q 260 1054 260 1013 q 272 1085 260 1072 q 303 1097 285 1097 q 333 1085 321 1097 q 344 1054 344 1072 q 378 998 344 1021 q 471 975 413 975 q 564 998 529 975 q 599 1054 599 1021 q 610 1085 599 1072 q 640 1097 622 1097 q 669 1085 657 1097 q 683 1056 682 1072 q 617 943 678 986 q 471 900 556 900 m 451 1099 q 421 1111 433 1099 q 408 1142 408 1124 q 418 1169 408 1157 l 589 1340 q 619 1353 601 1353 q 650 1340 638 1353 q 663 1310 663 1328 q 650 1281 663 1293 l 479 1110 q 451 1099 468 1099 z "},"ặ":{"ha":943,"x_min":83,"x_max":860,"o":"m 472 768 q 669 717 581 768 q 809 578 758 667 q 860 379 860 489 l 860 42 q 849 12 860 24 q 818 0 838 0 q 788 12 800 0 q 776 42 776 24 l 776 150 q 651 34 731 76 q 472 -8 571 -8 q 274 42 363 -8 q 134 182 185 93 q 83 379 83 271 q 134 578 83 489 q 274 717 185 667 q 472 768 363 768 m 472 69 q 628 110 558 69 q 737 221 697 150 q 776 379 776 292 q 737 538 776 467 q 628 649 697 608 q 472 690 558 690 q 317 649 386 690 q 207 538 247 608 q 167 379 167 467 q 207 221 167 292 q 317 110 247 150 q 472 69 386 69 m 471 900 q 365 921 414 900 q 288 977 317 942 q 260 1054 260 1013 q 272 1085 260 1072 q 303 1097 285 1097 q 333 1085 321 1097 q 344 1054 344 1072 q 378 998 344 1021 q 471 975 413 975 q 564 998 529 975 q 599 1054 599 1021 q 610 1085 599 1072 q 640 1097 622 1097 q 669 1085 657 1097 q 683 1056 682 1072 q 617 943 678 986 q 471 900 556 900 m 471 -275 q 425 -256 443 -275 q 407 -210 407 -237 q 426 -162 407 -179 q 472 -146 446 -146 q 517 -162 499 -146 q 536 -210 536 -179 q 517 -256 536 -237 q 471 -275 499 -275 z "},"ằ":{"ha":943,"x_min":83,"x_max":860,"o":"m 472 768 q 669 717 581 768 q 809 578 758 667 q 860 379 860 489 l 860 42 q 849 12 860 24 q 818 0 838 0 q 788 12 800 0 q 776 42 776 24 l 776 150 q 651 34 731 76 q 472 -8 571 -8 q 274 42 363 -8 q 134 182 185 93 q 83 379 83 271 q 134 578 83 489 q 274 717 185 667 q 472 768 363 768 m 472 69 q 628 110 558 69 q 737 221 697 150 q 776 379 776 292 q 737 538 776 467 q 628 649 697 608 q 472 690 558 690 q 317 649 386 690 q 207 538 247 608 q 167 379 167 467 q 207 221 167 292 q 317 110 247 150 q 472 69 386 69 m 471 900 q 365 921 414 900 q 288 977 317 942 q 260 1054 260 1013 q 272 1085 260 1072 q 303 1097 285 1097 q 333 1085 321 1097 q 344 1054 344 1072 q 378 998 344 1021 q 471 975 413 975 q 564 998 529 975 q 599 1054 599 1021 q 610 1085 599 1072 q 640 1097 622 1097 q 669 1085 657 1097 q 683 1056 682 1072 q 617 943 678 986 q 471 900 556 900 m 474 1114 q 444 1125 460 1114 l 274 1296 q 263 1325 263 1307 q 275 1356 263 1343 q 306 1368 288 1368 q 335 1356 322 1368 l 506 1185 q 515 1157 515 1175 q 503 1126 515 1139 q 474 1114 492 1114 z "},"ẳ":{"ha":943,"x_min":83,"x_max":860,"o":"m 472 768 q 669 717 581 768 q 809 578 758 667 q 860 379 860 489 l 860 42 q 849 12 860 24 q 818 0 838 0 q 788 12 800 0 q 776 42 776 24 l 776 150 q 651 34 731 76 q 472 -8 571 -8 q 274 42 363 -8 q 134 182 185 93 q 83 379 83 271 q 134 578 83 489 q 274 717 185 667 q 472 768 363 768 m 472 69 q 628 110 558 69 q 737 221 697 150 q 776 379 776 292 q 737 538 776 467 q 628 649 697 608 q 472 690 558 690 q 317 649 386 690 q 207 538 247 608 q 167 379 167 467 q 207 221 167 292 q 317 110 247 150 q 472 69 386 69 m 471 900 q 365 921 414 900 q 288 977 317 942 q 260 1054 260 1013 q 272 1085 260 1072 q 303 1097 285 1097 q 333 1085 321 1097 q 344 1054 344 1072 q 378 998 344 1021 q 471 975 413 975 q 564 998 529 975 q 599 1054 599 1021 q 610 1085 599 1072 q 640 1097 622 1097 q 669 1085 657 1097 q 683 1056 682 1072 q 617 943 678 986 q 471 900 556 900 m 469 1054 q 441 1066 453 1054 q 429 1094 429 1078 l 429 1140 q 465 1185 429 1176 l 499 1192 q 544 1214 531 1199 q 557 1256 557 1229 q 535 1307 557 1288 q 481 1326 514 1326 q 422 1304 449 1326 q 396 1294 410 1294 q 367 1306 379 1294 q 356 1335 356 1318 q 369 1365 356 1354 q 481 1407 419 1407 q 593 1368 549 1407 q 638 1264 638 1329 q 601 1172 638 1206 q 510 1128 565 1138 l 510 1094 q 498 1066 510 1078 q 469 1054 486 1054 z "},"ẵ":{"ha":943,"x_min":83,"x_max":860,"o":"m 472 768 q 669 717 581 768 q 809 578 758 667 q 860 379 860 489 l 860 42 q 849 12 860 24 q 818 0 838 0 q 788 12 800 0 q 776 42 776 24 l 776 150 q 651 34 731 76 q 472 -8 571 -8 q 274 42 363 -8 q 134 182 185 93 q 83 379 83 271 q 134 578 83 489 q 274 717 185 667 q 472 768 363 768 m 472 69 q 628 110 558 69 q 737 221 697 150 q 776 379 776 292 q 737 538 776 467 q 628 649 697 608 q 472 690 558 690 q 317 649 386 690 q 207 538 247 608 q 167 379 167 467 q 207 221 167 292 q 317 110 247 150 q 472 69 386 69 m 471 900 q 365 921 414 900 q 288 977 317 942 q 260 1054 260 1013 q 272 1085 260 1072 q 303 1097 285 1097 q 333 1085 321 1097 q 344 1054 344 1072 q 378 998 344 1021 q 471 975 413 975 q 564 998 529 975 q 599 1054 599 1021 q 610 1085 599 1072 q 640 1097 622 1097 q 669 1085 657 1097 q 683 1056 682 1072 q 617 943 678 986 q 471 900 556 900 m 557 1132 q 501 1147 528 1132 q 456 1179 474 1161 q 419 1210 433 1201 q 388 1219 404 1219 q 358 1205 371 1219 q 329 1160 346 1190 q 290 1135 317 1135 q 265 1144 274 1135 q 256 1168 256 1154 q 260 1188 256 1178 q 314 1266 283 1242 q 386 1290 344 1290 q 438 1280 418 1290 q 486 1244 457 1269 q 527 1213 514 1221 q 551 1206 540 1206 q 588 1247 572 1206 q 608 1272 593 1264 q 638 1276 622 1281 q 668 1242 668 1268 q 664 1225 668 1233 q 617 1153 643 1175 q 557 1132 592 1132 z "},"â":{"ha":943,"x_min":83,"x_max":860,"o":"m 472 768 q 669 717 581 768 q 809 578 758 667 q 860 379 860 489 l 860 42 q 849 12 860 24 q 818 0 838 0 q 788 12 800 0 q 776 42 776 24 l 776 150 q 651 34 731 76 q 472 -8 571 -8 q 274 42 363 -8 q 134 182 185 93 q 83 379 83 271 q 134 578 83 489 q 274 717 185 667 q 472 768 363 768 m 472 69 q 628 110 558 69 q 737 221 697 150 q 776 379 776 292 q 737 538 776 467 q 628 649 697 608 q 472 690 558 690 q 317 649 386 690 q 207 538 247 608 q 167 379 167 467 q 207 221 167 292 q 317 110 247 150 q 472 69 386 69 m 306 900 q 274 912 286 900 q 261 942 261 924 q 283 979 261 965 l 451 1092 q 472 1097 463 1097 q 493 1092 482 1097 l 661 979 q 683 942 683 965 q 671 912 683 924 q 640 900 658 900 q 614 908 626 900 l 472 1003 l 331 908 q 306 900 318 900 z "},"ấ":{"ha":943,"x_min":83,"x_max":860,"o":"m 472 768 q 669 717 581 768 q 809 578 758 667 q 860 379 860 489 l 860 42 q 849 12 860 24 q 818 0 838 0 q 788 12 800 0 q 776 42 776 24 l 776 150 q 651 34 731 76 q 472 -8 571 -8 q 274 42 363 -8 q 134 182 185 93 q 83 379 83 271 q 134 578 83 489 q 274 717 185 667 q 472 768 363 768 m 472 69 q 628 110 558 69 q 737 221 697 150 q 776 379 776 292 q 737 538 776 467 q 628 649 697 608 q 472 690 558 690 q 317 649 386 690 q 207 538 247 608 q 167 379 167 467 q 207 221 167 292 q 317 110 247 150 q 472 69 386 69 m 306 900 q 274 912 286 900 q 261 942 261 924 q 283 979 261 965 l 451 1092 q 472 1097 463 1097 q 493 1092 482 1097 l 661 979 q 683 942 683 965 q 671 912 683 924 q 640 900 658 900 q 614 908 626 900 l 472 1003 l 331 908 q 306 900 318 900 m 578 1131 q 547 1143 560 1131 q 535 1174 535 1156 q 544 1201 535 1189 l 715 1372 q 746 1385 728 1385 q 776 1372 764 1385 q 789 1342 789 1360 q 776 1313 789 1325 l 606 1142 q 578 1131 594 1131 z "},"ậ":{"ha":943,"x_min":83,"x_max":860,"o":"m 472 768 q 669 717 581 768 q 809 578 758 667 q 860 379 860 489 l 860 42 q 849 12 860 24 q 818 0 838 0 q 788 12 800 0 q 776 42 776 24 l 776 150 q 651 34 731 76 q 472 -8 571 -8 q 274 42 363 -8 q 134 182 185 93 q 83 379 83 271 q 134 578 83 489 q 274 717 185 667 q 472 768 363 768 m 472 69 q 628 110 558 69 q 737 221 697 150 q 776 379 776 292 q 737 538 776 467 q 628 649 697 608 q 472 690 558 690 q 317 649 386 690 q 207 538 247 608 q 167 379 167 467 q 207 221 167 292 q 317 110 247 150 q 472 69 386 69 m 306 900 q 274 912 286 900 q 261 942 261 924 q 283 979 261 965 l 451 1092 q 472 1097 463 1097 q 493 1092 482 1097 l 661 979 q 683 942 683 965 q 671 912 683 924 q 640 900 658 900 q 614 908 626 900 l 472 1003 l 331 908 q 306 900 318 900 m 471 -275 q 425 -256 443 -275 q 407 -210 407 -237 q 426 -162 407 -179 q 472 -146 446 -146 q 517 -162 499 -146 q 536 -210 536 -179 q 517 -256 536 -237 q 471 -275 499 -275 z "},"ầ":{"ha":943,"x_min":83,"x_max":860,"o":"m 472 768 q 669 717 581 768 q 809 578 758 667 q 860 379 860 489 l 860 42 q 849 12 860 24 q 818 0 838 0 q 788 12 800 0 q 776 42 776 24 l 776 150 q 651 34 731 76 q 472 -8 571 -8 q 274 42 363 -8 q 134 182 185 93 q 83 379 83 271 q 134 578 83 489 q 274 717 185 667 q 472 768 363 768 m 472 69 q 628 110 558 69 q 737 221 697 150 q 776 379 776 292 q 737 538 776 467 q 628 649 697 608 q 472 690 558 690 q 317 649 386 690 q 207 538 247 608 q 167 379 167 467 q 207 221 167 292 q 317 110 247 150 q 472 69 386 69 m 306 900 q 274 912 286 900 q 261 942 261 924 q 283 979 261 965 l 451 1092 q 472 1097 463 1097 q 493 1092 482 1097 l 661 979 q 683 942 683 965 q 671 912 683 924 q 640 900 658 900 q 614 908 626 900 l 472 1003 l 331 908 q 306 900 318 900 m 600 1146 q 571 1157 586 1146 l 400 1328 q 389 1357 389 1339 q 401 1388 389 1375 q 432 1400 414 1400 q 461 1388 449 1400 l 632 1217 q 642 1189 642 1207 q 630 1158 642 1171 q 600 1146 618 1146 z "},"ẩ":{"ha":943,"x_min":83,"x_max":860,"o":"m 472 768 q 669 717 581 768 q 809 578 758 667 q 860 379 860 489 l 860 42 q 849 12 860 24 q 818 0 838 0 q 788 12 800 0 q 776 42 776 24 l 776 150 q 651 34 731 76 q 472 -8 571 -8 q 274 42 363 -8 q 134 182 185 93 q 83 379 83 271 q 134 578 83 489 q 274 717 185 667 q 472 768 363 768 m 472 69 q 628 110 558 69 q 737 221 697 150 q 776 379 776 292 q 737 538 776 467 q 628 649 697 608 q 472 690 558 690 q 317 649 386 690 q 207 538 247 608 q 167 379 167 467 q 207 221 167 292 q 317 110 247 150 q 472 69 386 69 m 307 900 q 275 912 288 900 q 263 942 263 924 q 285 979 263 965 l 453 1092 q 474 1097 464 1097 q 494 1092 483 1097 l 663 979 q 685 942 685 965 q 672 912 685 924 q 642 900 660 900 q 615 908 628 900 l 474 1003 l 332 908 q 307 900 319 900 m 597 1086 q 569 1098 581 1086 q 557 1126 557 1110 l 557 1172 q 593 1217 557 1208 l 626 1224 q 672 1246 658 1231 q 685 1288 685 1261 q 663 1339 685 1319 q 608 1358 642 1358 q 550 1336 576 1358 q 524 1326 538 1326 q 495 1338 507 1326 q 483 1367 483 1350 q 497 1397 483 1386 q 608 1439 547 1439 q 721 1400 676 1439 q 765 1296 765 1361 q 729 1203 765 1238 q 638 1160 693 1169 l 638 1126 q 626 1098 638 1110 q 597 1086 614 1086 z "},"ẫ":{"ha":943,"x_min":83,"x_max":860,"o":"m 472 768 q 669 717 581 768 q 809 578 758 667 q 860 379 860 489 l 860 42 q 849 12 860 24 q 818 0 838 0 q 788 12 800 0 q 776 42 776 24 l 776 150 q 651 34 731 76 q 472 -8 571 -8 q 274 42 363 -8 q 134 182 185 93 q 83 379 83 271 q 134 578 83 489 q 274 717 185 667 q 472 768 363 768 m 472 69 q 628 110 558 69 q 737 221 697 150 q 776 379 776 292 q 737 538 776 467 q 628 649 697 608 q 472 690 558 690 q 317 649 386 690 q 207 538 247 608 q 167 379 167 467 q 207 221 167 292 q 317 110 247 150 q 472 69 386 69 m 306 900 q 274 912 286 900 q 261 942 261 924 q 283 979 261 965 l 451 1092 q 472 1097 463 1097 q 493 1092 482 1097 l 661 979 q 683 942 683 965 q 671 912 683 924 q 640 900 658 900 q 614 908 626 900 l 472 1003 l 331 908 q 306 900 318 900 m 556 1136 q 499 1151 526 1136 q 454 1183 472 1165 q 417 1215 432 1206 q 386 1224 403 1224 q 357 1209 369 1224 q 328 1164 344 1194 q 289 1139 315 1139 q 263 1149 272 1139 q 254 1172 254 1158 q 258 1192 254 1182 q 313 1270 282 1246 q 385 1294 343 1294 q 436 1284 417 1294 q 485 1249 456 1274 q 526 1217 513 1225 q 550 1210 539 1210 q 586 1251 571 1210 q 606 1276 592 1268 q 636 1281 621 1285 q 667 1246 667 1272 q 663 1229 667 1238 q 616 1158 642 1179 q 556 1136 590 1136 z "},"ȁ":{"ha":943,"x_min":83,"x_max":860,"o":"m 472 768 q 669 717 581 768 q 809 578 758 667 q 860 379 860 489 l 860 42 q 849 12 860 24 q 818 0 838 0 q 788 12 800 0 q 776 42 776 24 l 776 150 q 651 34 731 76 q 472 -8 571 -8 q 274 42 363 -8 q 134 182 185 93 q 83 379 83 271 q 134 578 83 489 q 274 717 185 667 q 472 768 363 768 m 472 69 q 628 110 558 69 q 737 221 697 150 q 776 379 776 292 q 737 538 776 467 q 628 649 697 608 q 472 690 558 690 q 317 649 386 690 q 207 538 247 608 q 167 379 167 467 q 207 221 167 292 q 317 110 247 150 q 472 69 386 69 m 410 874 q 382 893 390 874 l 292 1083 q 289 1099 289 1092 q 301 1128 289 1115 q 332 1140 313 1140 q 355 1133 344 1140 q 369 1114 365 1126 l 435 914 q 436 901 436 911 q 428 881 436 889 q 410 874 421 874 m 628 874 q 600 893 610 874 l 510 1083 q 507 1099 507 1092 q 519 1128 507 1115 q 550 1140 531 1140 q 573 1133 563 1140 q 589 1114 583 1126 l 653 914 q 654 901 654 911 q 647 881 654 889 q 628 874 639 874 z "},"ä":{"ha":943,"x_min":83,"x_max":860,"o":"m 472 768 q 669 717 581 768 q 809 578 758 667 q 860 379 860 489 l 860 42 q 849 12 860 24 q 818 0 838 0 q 788 12 800 0 q 776 42 776 24 l 776 150 q 651 34 731 76 q 472 -8 571 -8 q 274 42 363 -8 q 134 182 185 93 q 83 379 83 271 q 134 578 83 489 q 274 717 185 667 q 472 768 363 768 m 472 69 q 628 110 558 69 q 737 221 697 150 q 776 379 776 292 q 737 538 776 467 q 628 649 697 608 q 472 690 558 690 q 317 649 386 690 q 207 538 247 608 q 167 379 167 467 q 207 221 167 292 q 317 110 247 150 q 472 69 386 69 m 333 913 q 282 933 303 913 q 261 985 261 954 q 282 1035 261 1014 q 333 1056 303 1056 q 384 1035 364 1056 q 404 985 404 1014 q 384 933 404 954 q 333 913 364 913 m 611 913 q 560 933 581 913 q 539 985 539 954 q 560 1035 539 1014 q 611 1056 581 1056 q 662 1035 642 1056 q 682 985 682 1014 q 662 933 682 954 q 611 913 642 913 z "},"ạ":{"ha":943,"x_min":83,"x_max":860,"o":"m 472 768 q 669 717 581 768 q 809 578 758 667 q 860 379 860 489 l 860 42 q 849 12 860 24 q 818 0 838 0 q 788 12 800 0 q 776 42 776 24 l 776 150 q 651 34 731 76 q 472 -8 571 -8 q 274 42 363 -8 q 134 182 185 93 q 83 379 83 271 q 134 578 83 489 q 274 717 185 667 q 472 768 363 768 m 472 69 q 628 110 558 69 q 737 221 697 150 q 776 379 776 292 q 737 538 776 467 q 628 649 697 608 q 472 690 558 690 q 317 649 386 690 q 207 538 247 608 q 167 379 167 467 q 207 221 167 292 q 317 110 247 150 q 472 69 386 69 m 471 -275 q 425 -256 443 -275 q 407 -210 407 -237 q 426 -162 407 -179 q 472 -146 446 -146 q 517 -162 499 -146 q 536 -210 536 -179 q 517 -256 536 -237 q 471 -275 499 -275 z "},"à":{"ha":943,"x_min":83,"x_max":860,"o":"m 472 768 q 669 717 581 768 q 809 578 758 667 q 860 379 860 489 l 860 42 q 849 12 860 24 q 818 0 838 0 q 788 12 800 0 q 776 42 776 24 l 776 150 q 651 34 731 76 q 472 -8 571 -8 q 274 42 363 -8 q 134 182 185 93 q 83 379 83 271 q 134 578 83 489 q 274 717 185 667 q 472 768 363 768 m 472 69 q 628 110 558 69 q 737 221 697 150 q 776 379 776 292 q 737 538 776 467 q 628 649 697 608 q 472 690 558 690 q 317 649 386 690 q 207 538 247 608 q 167 379 167 467 q 207 221 167 292 q 317 110 247 150 q 472 69 386 69 m 474 888 q 444 899 460 888 l 274 1069 q 263 1099 263 1081 q 275 1129 263 1117 q 306 1142 288 1142 q 335 1129 322 1142 l 506 958 q 515 931 515 949 q 503 900 515 913 q 474 888 492 888 z "},"ả":{"ha":943,"x_min":83,"x_max":860,"o":"m 472 768 q 669 717 581 768 q 809 578 758 667 q 860 379 860 489 l 860 42 q 849 12 860 24 q 818 0 838 0 q 788 12 800 0 q 776 42 776 24 l 776 150 q 651 34 731 76 q 472 -8 571 -8 q 274 42 363 -8 q 134 182 185 93 q 83 379 83 271 q 134 578 83 489 q 274 717 185 667 q 472 768 363 768 m 472 69 q 628 110 558 69 q 737 221 697 150 q 776 379 776 292 q 737 538 776 467 q 628 649 697 608 q 472 690 558 690 q 317 649 386 690 q 207 538 247 608 q 167 379 167 467 q 207 221 167 292 q 317 110 247 150 q 472 69 386 69 m 469 828 q 441 840 453 828 q 429 868 429 851 l 429 914 q 465 958 429 950 l 499 965 q 544 988 531 972 q 557 1029 557 1003 q 535 1081 557 1061 q 481 1100 514 1100 q 422 1078 449 1100 q 396 1068 410 1068 q 367 1080 379 1068 q 356 1108 356 1092 q 369 1139 356 1128 q 481 1181 419 1181 q 593 1142 549 1181 q 638 1038 638 1103 q 601 945 638 979 q 510 901 565 911 l 510 868 q 498 840 510 851 q 469 828 486 828 z "},"ȃ":{"ha":943,"x_min":83,"x_max":860,"o":"m 472 768 q 669 717 581 768 q 809 578 758 667 q 860 379 860 489 l 860 42 q 849 12 860 24 q 818 0 838 0 q 788 12 800 0 q 776 42 776 24 l 776 150 q 651 34 731 76 q 472 -8 571 -8 q 274 42 363 -8 q 134 182 185 93 q 83 379 83 271 q 134 578 83 489 q 274 717 185 667 q 472 768 363 768 m 472 69 q 628 110 558 69 q 737 221 697 150 q 776 379 776 292 q 737 538 776 467 q 628 649 697 608 q 472 690 558 690 q 317 649 386 690 q 207 538 247 608 q 167 379 167 467 q 207 221 167 292 q 317 110 247 150 q 472 69 386 69 m 471 1097 q 617 1054 556 1097 q 683 942 678 1011 q 669 913 682 925 q 640 900 657 900 q 610 913 622 900 q 599 943 599 925 q 564 999 599 976 q 471 1022 529 1022 q 378 999 413 1022 q 344 943 344 976 q 333 913 344 925 q 303 900 321 900 q 272 913 285 900 q 260 943 260 925 q 288 1020 260 985 q 365 1076 317 1056 q 471 1097 414 1097 z "},"ā":{"ha":943,"x_min":83,"x_max":860,"o":"m 472 768 q 669 717 581 768 q 809 578 758 667 q 860 379 860 489 l 860 42 q 849 12 860 24 q 818 0 838 0 q 788 12 800 0 q 776 42 776 24 l 776 150 q 651 34 731 76 q 472 -8 571 -8 q 274 42 363 -8 q 134 182 185 93 q 83 379 83 271 q 134 578 83 489 q 274 717 185 667 q 472 768 363 768 m 472 69 q 628 110 558 69 q 737 221 697 150 q 776 379 776 292 q 737 538 776 467 q 628 649 697 608 q 472 690 558 690 q 317 649 386 690 q 207 538 247 608 q 167 379 167 467 q 207 221 167 292 q 317 110 247 150 q 472 69 386 69 m 288 918 q 258 930 269 918 q 246 960 246 942 q 258 990 246 978 q 288 1003 269 1003 l 656 1003 q 685 990 674 1003 q 697 960 697 978 q 685 930 697 942 q 656 918 674 918 l 288 918 z "},"ą":{"ha":943,"x_min":83,"x_max":1004,"o":"m 961 -208 q 992 -221 979 -208 q 1004 -251 1004 -233 q 990 -283 1004 -272 l 933 -322 q 849 -349 894 -349 q 740 -303 786 -349 q 694 -194 694 -258 q 760 -68 694 -121 q 813 -7 803 -33 l 817 0 q 788 12 799 0 q 776 42 776 24 l 776 150 q 651 34 731 76 q 472 -8 571 -8 q 274 42 363 -8 q 134 182 185 93 q 83 379 83 271 q 134 578 83 489 q 274 717 185 667 q 472 768 363 768 q 669 717 581 768 q 809 578 758 667 q 860 379 860 489 l 860 42 q 850 14 860 24 q 881 2 869 13 q 892 -26 892 -8 q 871 -80 892 -53 q 808 -137 850 -107 q 779 -194 779 -160 q 799 -244 779 -224 q 849 -264 819 -264 q 888 -253 871 -264 l 936 -217 q 961 -208 949 -208 m 472 69 q 628 110 558 69 q 737 221 697 150 q 776 379 776 292 q 737 538 776 467 q 628 649 697 608 q 472 690 558 690 q 317 649 386 690 q 207 538 247 608 q 167 379 167 467 q 207 221 167 292 q 317 110 247 150 q 472 69 386 69 z "},"å":{"ha":943,"x_min":83,"x_max":860,"o":"m 472 768 q 669 717 581 768 q 809 578 758 667 q 860 379 860 489 l 860 42 q 849 12 860 24 q 818 0 838 0 q 788 12 800 0 q 776 42 776 24 l 776 150 q 651 34 731 76 q 472 -8 571 -8 q 274 42 363 -8 q 134 182 185 93 q 83 379 83 271 q 134 578 83 489 q 274 717 185 667 q 472 768 363 768 m 472 69 q 628 110 558 69 q 737 221 697 150 q 776 379 776 292 q 737 538 776 467 q 628 649 697 608 q 472 690 558 690 q 317 649 386 690 q 207 538 247 608 q 167 379 167 467 q 207 221 167 292 q 317 110 247 150 q 472 69 386 69 m 472 829 q 382 867 419 829 q 344 957 344 906 q 383 1047 344 1010 q 472 1085 421 1085 q 563 1047 525 1085 q 600 957 600 1010 q 563 867 600 906 q 472 829 525 829 m 472 883 q 525 905 503 883 q 547 957 547 926 q 525 1010 547 989 q 472 1032 503 1032 q 420 1010 442 1032 q 399 957 399 988 q 420 905 399 926 q 472 883 442 883 z "},"ǻ":{"ha":943,"x_min":83,"x_max":860,"o":"m 472 768 q 669 717 581 768 q 809 578 758 667 q 860 379 860 489 l 860 42 q 849 12 860 24 q 818 0 838 0 q 788 12 800 0 q 776 42 776 24 l 776 150 q 651 34 731 76 q 472 -8 571 -8 q 274 42 363 -8 q 134 182 185 93 q 83 379 83 271 q 134 578 83 489 q 274 717 185 667 q 472 768 363 768 m 472 69 q 628 110 558 69 q 737 221 697 150 q 776 379 776 292 q 737 538 776 467 q 628 649 697 608 q 472 690 558 690 q 317 649 386 690 q 207 538 247 608 q 167 379 167 467 q 207 221 167 292 q 317 110 247 150 q 472 69 386 69 m 472 829 q 382 867 419 829 q 344 957 344 906 q 383 1047 344 1010 q 472 1085 421 1085 q 563 1047 525 1085 q 600 957 600 1010 q 563 867 600 906 q 472 829 525 829 m 472 883 q 525 905 503 883 q 547 957 547 926 q 525 1010 547 989 q 472 1032 503 1032 q 420 1010 442 1032 q 399 957 399 988 q 420 905 399 926 q 472 883 442 883 m 451 1142 q 421 1154 433 1142 q 408 1185 408 1167 q 418 1213 408 1200 l 589 1383 q 619 1396 601 1396 q 650 1383 638 1396 q 663 1353 663 1371 q 650 1324 663 1336 l 479 1153 q 451 1142 468 1142 z "},"ã":{"ha":943,"x_min":83,"x_max":860,"o":"m 472 768 q 669 717 581 768 q 809 578 758 667 q 860 379 860 489 l 860 42 q 849 12 860 24 q 818 0 838 0 q 788 12 800 0 q 776 42 776 24 l 776 150 q 651 34 731 76 q 472 -8 571 -8 q 274 42 363 -8 q 134 182 185 93 q 83 379 83 271 q 134 578 83 489 q 274 717 185 667 q 472 768 363 768 m 472 69 q 628 110 558 69 q 737 221 697 150 q 776 379 776 292 q 737 538 776 467 q 628 649 697 608 q 472 690 558 690 q 317 649 386 690 q 207 538 247 608 q 167 379 167 467 q 207 221 167 292 q 317 110 247 150 q 472 69 386 69 m 618 875 q 550 888 579 875 q 488 924 521 901 q 443 949 460 943 q 408 956 426 956 q 301 899 351 956 q 267 882 289 882 q 246 888 253 882 q 225 919 225 900 q 233 943 225 933 q 316 1012 271 988 q 408 1036 361 1036 q 472 1024 444 1036 q 533 990 499 1013 q 578 963 563 971 q 618 956 594 956 q 694 986 665 956 q 733 1006 711 1006 q 749 1001 743 1006 q 774 968 774 989 q 765 946 774 957 q 618 875 711 875 z "},"æ":{"ha":1539,"x_min":83,"x_max":1483,"o":"m 1133 767 q 1315 719 1235 767 q 1439 586 1394 671 q 1483 393 1483 501 q 1472 365 1483 375 q 1443 354 1461 354 l 861 354 q 904 208 865 272 q 1008 107 943 143 q 1154 71 1074 71 q 1350 139 1278 71 q 1379 150 1364 150 q 1404 142 1394 150 q 1419 113 1419 129 q 1407 86 1419 99 q 1291 19 1363 46 q 1154 -7 1219 -7 q 985 32 1061 -7 q 860 142 908 71 l 860 42 q 849 12 860 24 q 818 0 838 0 q 788 12 800 0 q 776 42 776 24 l 776 150 q 651 34 731 76 q 472 -8 571 -8 q 274 42 363 -8 q 134 182 185 93 q 83 379 83 271 q 134 578 83 489 q 274 717 185 667 q 472 768 363 768 q 682 710 589 768 q 822 553 775 651 q 944 709 863 651 q 1133 767 1026 767 m 472 69 q 628 110 558 69 q 737 221 697 150 q 776 379 776 292 q 737 538 776 467 q 628 649 697 608 q 472 690 558 690 q 317 649 386 690 q 207 538 247 608 q 167 379 167 467 q 207 221 167 292 q 317 110 247 150 q 472 69 386 69 m 1133 689 q 951 617 1025 689 q 863 426 876 544 l 1403 426 q 1319 617 1393 544 q 1133 689 1246 689 z "},"ǽ":{"ha":1539,"x_min":83,"x_max":1483,"o":"m 1133 767 q 1315 719 1235 767 q 1439 586 1394 671 q 1483 393 1483 501 q 1472 365 1483 375 q 1443 354 1461 354 l 861 354 q 904 208 865 272 q 1008 107 943 143 q 1154 71 1074 71 q 1350 139 1278 71 q 1379 150 1364 150 q 1404 142 1394 150 q 1419 113 1419 129 q 1407 86 1419 99 q 1291 19 1363 46 q 1154 -7 1219 -7 q 985 32 1061 -7 q 860 142 908 71 l 860 42 q 849 12 860 24 q 818 0 838 0 q 788 12 800 0 q 776 42 776 24 l 776 150 q 651 34 731 76 q 472 -8 571 -8 q 274 42 363 -8 q 134 182 185 93 q 83 379 83 271 q 134 578 83 489 q 274 717 185 667 q 472 768 363 768 q 682 710 589 768 q 822 553 775 651 q 944 709 863 651 q 1133 767 1026 767 m 472 69 q 628 110 558 69 q 737 221 697 150 q 776 379 776 292 q 737 538 776 467 q 628 649 697 608 q 472 690 558 690 q 317 649 386 690 q 207 538 247 608 q 167 379 167 467 q 207 221 167 292 q 317 110 247 150 q 472 69 386 69 m 1133 689 q 951 617 1025 689 q 863 426 876 544 l 1403 426 q 1319 617 1393 544 q 1133 689 1246 689 m 763 872 q 732 885 744 872 q 719 915 719 897 q 729 943 719 931 l 900 1114 q 931 1126 913 1126 q 961 1114 949 1126 q 974 1083 974 1101 q 961 1054 974 1067 l 790 883 q 763 872 779 872 z "},"b":{"ha":985,"x_min":125,"x_max":901,"o":"m 513 768 q 711 717 622 768 q 851 578 800 667 q 901 381 901 489 q 851 182 901 271 q 711 42 800 93 q 513 -8 622 -8 q 317 41 406 -8 q 178 178 229 90 q 125 372 126 265 l 125 375 l 125 1043 q 137 1074 125 1063 q 167 1085 149 1085 q 197 1074 186 1085 q 208 1043 208 1063 l 208 610 q 334 726 254 683 q 513 768 414 768 m 513 69 q 668 110 599 69 q 778 222 738 151 q 818 381 818 293 q 778 539 818 468 q 668 650 738 610 q 513 690 599 690 q 357 650 426 690 q 248 539 288 610 q 208 381 208 468 q 248 222 208 293 q 357 110 288 151 q 513 69 426 69 z "},"c":{"ha":824,"x_min":83,"x_max":740,"o":"m 461 -8 q 268 42 354 -8 q 133 182 182 93 q 83 379 83 271 q 129 577 83 489 q 257 716 175 665 q 440 767 339 767 q 603 732 529 767 q 731 629 676 697 q 740 606 740 615 q 721 575 740 586 q 699 567 711 567 q 667 583 679 567 q 440 689 578 689 q 297 649 360 689 q 201 539 235 610 q 167 379 167 468 q 204 221 167 292 q 308 110 242 150 q 461 69 375 69 q 657 138 583 69 q 686 150 669 150 q 711 140 701 150 q 725 110 725 128 q 714 85 725 94 q 600 16 665 40 q 461 -8 535 -8 z "},"ć":{"ha":824,"x_min":83,"x_max":740,"o":"m 461 -8 q 268 42 354 -8 q 133 182 182 93 q 83 379 83 271 q 129 577 83 489 q 257 716 175 665 q 440 767 339 767 q 603 732 529 767 q 731 629 676 697 q 740 606 740 615 q 721 575 740 586 q 699 567 711 567 q 667 583 679 567 q 440 689 578 689 q 297 649 360 689 q 201 539 235 610 q 167 379 167 468 q 204 221 167 292 q 308 110 242 150 q 461 69 375 69 q 657 138 583 69 q 686 150 669 150 q 711 140 701 150 q 725 110 725 128 q 714 85 725 94 q 600 16 665 40 q 461 -8 535 -8 m 421 872 q 390 885 403 872 q 378 915 378 897 q 388 943 378 931 l 558 1114 q 589 1126 571 1126 q 619 1114 607 1126 q 632 1083 632 1101 q 619 1054 632 1067 l 449 883 q 421 872 438 872 z "},"č":{"ha":824,"x_min":83,"x_max":740,"o":"m 461 -8 q 268 42 354 -8 q 133 182 182 93 q 83 379 83 271 q 129 577 83 489 q 257 716 175 665 q 440 767 339 767 q 603 732 529 767 q 731 629 676 697 q 740 606 740 615 q 721 575 740 586 q 699 567 711 567 q 667 583 679 567 q 440 689 578 689 q 297 649 360 689 q 201 539 235 610 q 167 379 167 468 q 204 221 167 292 q 308 110 242 150 q 461 69 375 69 q 657 138 583 69 q 686 150 669 150 q 711 140 701 150 q 725 110 725 128 q 714 85 725 94 q 600 16 665 40 q 461 -8 535 -8 m 442 900 q 421 906 428 900 l 253 1017 q 231 1054 231 1031 q 241 1081 231 1071 q 267 1092 251 1092 q 300 1081 283 1092 l 442 983 l 583 1078 q 618 1090 601 1090 q 643 1080 633 1090 q 653 1054 653 1069 q 631 1017 653 1033 l 463 906 q 442 900 456 900 z "},"ç":{"ha":824,"x_min":83,"x_max":740,"o":"m 440 689 q 297 649 360 689 q 201 539 235 610 q 167 379 167 468 q 204 221 167 292 q 308 110 242 150 q 461 69 375 69 q 657 138 583 69 q 686 150 669 150 q 711 140 701 150 q 725 110 725 128 q 714 85 725 94 q 614 21 671 44 q 492 -7 557 -3 l 474 -50 q 569 -101 543 -71 q 596 -178 596 -132 q 543 -281 596 -239 q 419 -322 490 -322 q 309 -294 353 -322 q 265 -231 265 -267 q 277 -200 265 -212 q 307 -187 289 -187 q 326 -192 318 -187 q 343 -203 335 -197 q 356 -214 351 -210 q 383 -231 369 -225 q 419 -237 396 -237 q 478 -222 456 -237 q 501 -181 501 -207 q 483 -138 501 -154 q 422 -110 465 -122 q 389 -96 400 -104 q 378 -72 378 -87 q 385 -46 378 -64 l 401 -4 q 237 63 310 10 q 124 199 164 117 q 83 379 83 281 q 129 577 83 489 q 257 716 175 665 q 440 767 339 767 q 603 732 529 767 q 731 629 676 697 q 740 606 740 615 q 721 575 740 586 q 699 567 711 567 q 667 583 679 567 q 440 689 578 689 z "},"ĉ":{"ha":824,"x_min":83,"x_max":740,"o":"m 461 -8 q 268 42 354 -8 q 133 182 182 93 q 83 379 83 271 q 129 577 83 489 q 257 716 175 665 q 440 767 339 767 q 603 732 529 767 q 731 629 676 697 q 740 606 740 615 q 721 575 740 586 q 699 567 711 567 q 667 583 679 567 q 440 689 578 689 q 297 649 360 689 q 201 539 235 610 q 167 379 167 468 q 204 221 167 292 q 308 110 242 150 q 461 69 375 69 q 657 138 583 69 q 686 150 669 150 q 711 140 701 150 q 725 110 725 128 q 714 85 725 94 q 600 16 665 40 q 461 -8 535 -8 m 275 900 q 243 912 256 900 q 231 942 231 924 q 253 979 231 965 l 421 1092 q 442 1097 432 1097 q 463 1092 451 1097 l 631 979 q 653 942 653 965 q 640 912 653 924 q 610 900 628 900 q 583 908 596 900 l 442 1003 l 300 908 q 275 900 288 900 z "},"ċ":{"ha":824,"x_min":83,"x_max":740,"o":"m 461 -8 q 268 42 354 -8 q 133 182 182 93 q 83 379 83 271 q 129 577 83 489 q 257 716 175 665 q 440 767 339 767 q 603 732 529 767 q 731 629 676 697 q 740 606 740 615 q 721 575 740 586 q 699 567 711 567 q 667 583 679 567 q 440 689 578 689 q 297 649 360 689 q 201 539 235 610 q 167 379 167 468 q 204 221 167 292 q 308 110 242 150 q 461 69 375 69 q 657 138 583 69 q 686 150 669 150 q 711 140 701 150 q 725 110 725 128 q 714 85 725 94 q 600 16 665 40 q 461 -8 535 -8 m 440 919 q 394 938 413 919 q 376 985 376 957 q 396 1032 376 1015 q 442 1049 415 1049 q 487 1032 468 1049 q 506 985 506 1015 q 487 938 506 957 q 440 919 468 919 z "},"d":{"ha":985,"x_min":83,"x_max":860,"o":"m 818 1085 q 849 1074 838 1085 q 860 1043 860 1063 l 860 375 l 860 372 q 807 178 858 265 q 667 41 756 90 q 472 -8 579 -8 q 274 42 363 -8 q 134 182 185 93 q 83 381 83 271 q 134 578 83 489 q 274 717 185 667 q 472 768 363 768 q 651 726 571 768 q 776 610 731 683 l 776 1043 q 788 1074 776 1063 q 818 1085 800 1085 m 472 69 q 628 110 558 69 q 737 222 697 151 q 776 381 776 293 q 737 539 776 468 q 628 650 697 610 q 472 690 558 690 q 317 650 386 690 q 207 539 247 610 q 167 381 167 468 q 207 222 167 293 q 317 110 247 151 q 472 69 386 69 z "},"ð":{"ha":921,"x_min":83,"x_max":824,"o":"m 486 1040 q 746 824 668 954 q 824 482 824 693 l 824 397 q 775 188 822 279 q 644 44 728 96 q 454 -8 561 -8 q 263 39 347 -8 q 131 171 178 86 q 83 363 83 256 q 131 551 83 468 q 263 680 178 633 q 454 726 347 726 q 648 667 567 726 q 758 508 729 608 q 681 790 753 682 q 451 969 608 897 l 404 872 q 372 850 394 850 q 358 853 363 850 q 340 882 340 863 q 344 900 340 892 l 390 996 q 304 1026 328 1019 q 278 1044 289 1032 q 267 1069 267 1056 q 268 1081 267 1076 q 306 1107 276 1107 q 326 1103 317 1107 q 425 1067 374 1088 l 464 1149 q 496 1172 475 1172 q 511 1168 503 1172 q 529 1139 529 1158 q 525 1121 529 1129 l 486 1040 m 454 69 q 603 107 538 69 q 704 211 668 144 q 740 363 740 278 q 704 511 740 446 q 603 613 668 576 q 454 649 538 649 q 306 613 371 649 q 203 511 240 576 q 167 363 167 446 q 203 211 167 278 q 306 107 240 144 q 454 69 371 69 z "},"ď":{"ha":1083,"x_min":83,"x_max":1097,"o":"m 818 1085 q 849 1074 838 1085 q 860 1043 860 1063 l 860 375 l 860 372 q 807 178 858 265 q 667 41 756 90 q 472 -8 579 -8 q 274 42 363 -8 q 134 182 185 93 q 83 381 83 271 q 134 578 83 489 q 274 717 185 667 q 472 768 363 768 q 651 726 571 768 q 776 610 731 683 l 776 1043 q 788 1074 776 1063 q 818 1085 800 1085 m 472 69 q 628 110 558 69 q 737 222 697 151 q 776 381 776 293 q 737 539 776 468 q 628 650 697 610 q 472 690 558 690 q 317 650 386 690 q 207 539 247 610 q 167 381 167 468 q 207 222 167 293 q 317 110 247 151 q 472 69 386 69 m 972 749 q 954 756 961 749 q 947 775 947 764 q 961 810 947 785 q 985 863 976 838 q 997 922 994 888 q 996 951 999 939 q 986 978 993 963 q 979 996 985 981 q 974 1033 974 1011 q 1033 1085 974 1085 q 1081 1058 1064 1085 q 1097 989 1097 1032 q 1093 944 1097 968 q 1063 859 1085 906 q 1015 781 1040 813 q 972 749 990 749 z "},"đ":{"ha":985,"x_min":83,"x_max":985,"o":"m 947 950 q 974 940 964 950 q 985 913 985 929 q 974 885 985 896 q 947 875 964 875 l 860 875 l 860 375 l 860 372 q 807 178 858 265 q 667 41 756 90 q 472 -8 579 -8 q 274 42 363 -8 q 134 182 185 93 q 83 381 83 271 q 134 578 83 489 q 274 717 185 667 q 472 768 363 768 q 651 726 571 768 q 776 610 731 683 l 776 875 l 533 875 q 506 885 517 875 q 496 913 496 896 q 506 940 496 929 q 533 950 517 950 l 776 950 l 776 1043 q 788 1074 776 1063 q 818 1085 800 1085 q 849 1074 838 1085 q 860 1043 860 1063 l 860 950 l 947 950 m 472 69 q 628 110 558 69 q 737 222 697 151 q 776 381 776 293 q 737 539 776 468 q 628 650 697 610 q 472 690 558 690 q 317 650 386 690 q 207 539 247 610 q 167 381 167 468 q 207 222 167 293 q 317 110 247 151 q 472 69 386 69 z "},"e":{"ha":846,"x_min":83,"x_max":790,"o":"m 440 767 q 622 719 542 767 q 746 586 701 671 q 790 393 790 501 q 779 365 790 375 q 750 354 768 354 l 168 354 q 211 208 172 272 q 315 107 250 143 q 461 71 381 71 q 570 90 515 71 q 657 139 625 108 q 686 150 671 150 q 711 142 701 150 q 726 113 726 129 q 714 86 726 99 q 598 19 669 46 q 461 -7 526 -7 q 266 42 351 -7 q 132 180 181 92 q 83 379 83 268 q 128 580 83 492 q 255 717 174 668 q 440 767 336 767 m 440 689 q 258 617 332 689 q 169 426 183 544 l 710 426 q 626 617 700 544 q 440 689 553 689 z "},"é":{"ha":846,"x_min":83,"x_max":790,"o":"m 440 767 q 622 719 542 767 q 746 586 701 671 q 790 393 790 501 q 779 365 790 375 q 750 354 768 354 l 168 354 q 211 208 172 272 q 315 107 250 143 q 461 71 381 71 q 570 90 515 71 q 657 139 625 108 q 686 150 671 150 q 711 142 701 150 q 726 113 726 129 q 714 86 726 99 q 598 19 669 46 q 461 -7 526 -7 q 266 42 351 -7 q 132 180 181 92 q 83 379 83 268 q 128 580 83 492 q 255 717 174 668 q 440 767 336 767 m 440 689 q 258 617 332 689 q 169 426 183 544 l 710 426 q 626 617 700 544 q 440 689 553 689 m 417 872 q 386 885 399 872 q 374 915 374 897 q 383 943 374 931 l 554 1114 q 585 1126 567 1126 q 615 1114 603 1126 q 628 1083 628 1101 q 615 1054 628 1067 l 444 883 q 417 872 433 872 z "},"ĕ":{"ha":846,"x_min":83,"x_max":790,"o":"m 440 767 q 622 719 542 767 q 746 586 701 671 q 790 393 790 501 q 779 365 790 375 q 750 354 768 354 l 168 354 q 211 208 172 272 q 315 107 250 143 q 461 71 381 71 q 570 90 515 71 q 657 139 625 108 q 686 150 671 150 q 711 142 701 150 q 726 113 726 129 q 714 86 726 99 q 598 19 669 46 q 461 -7 526 -7 q 266 42 351 -7 q 132 180 181 92 q 83 379 83 268 q 128 580 83 492 q 255 717 174 668 q 440 767 336 767 m 440 689 q 258 617 332 689 q 169 426 183 544 l 710 426 q 626 617 700 544 q 440 689 553 689 m 436 900 q 331 921 379 900 q 253 977 282 942 q 225 1054 225 1013 q 238 1085 225 1072 q 268 1097 250 1097 q 298 1085 286 1097 q 310 1054 310 1072 q 344 998 310 1021 q 436 975 378 975 q 529 998 494 975 q 564 1054 564 1021 q 576 1085 564 1072 q 606 1097 588 1097 q 635 1085 622 1097 q 649 1056 647 1072 q 582 943 643 986 q 436 900 521 900 z "},"ě":{"ha":846,"x_min":83,"x_max":790,"o":"m 440 767 q 622 719 542 767 q 746 586 701 671 q 790 393 790 501 q 779 365 790 375 q 750 354 768 354 l 168 354 q 211 208 172 272 q 315 107 250 143 q 461 71 381 71 q 570 90 515 71 q 657 139 625 108 q 686 150 671 150 q 711 142 701 150 q 726 113 726 129 q 714 86 726 99 q 598 19 669 46 q 461 -7 526 -7 q 266 42 351 -7 q 132 180 181 92 q 83 379 83 268 q 128 580 83 492 q 255 717 174 668 q 440 767 336 767 m 440 689 q 258 617 332 689 q 169 426 183 544 l 710 426 q 626 617 700 544 q 440 689 553 689 m 438 900 q 417 906 424 900 l 249 1017 q 226 1054 226 1031 q 237 1081 226 1071 q 263 1092 247 1092 q 296 1081 279 1092 l 438 983 l 579 1078 q 614 1090 597 1090 q 639 1080 629 1090 q 649 1054 649 1069 q 626 1017 649 1033 l 458 906 q 438 900 451 900 z "},"ê":{"ha":846,"x_min":83,"x_max":790,"o":"m 440 767 q 622 719 542 767 q 746 586 701 671 q 790 393 790 501 q 779 365 790 375 q 750 354 768 354 l 168 354 q 211 208 172 272 q 315 107 250 143 q 461 71 381 71 q 570 90 515 71 q 657 139 625 108 q 686 150 671 150 q 711 142 701 150 q 726 113 726 129 q 714 86 726 99 q 598 19 669 46 q 461 -7 526 -7 q 266 42 351 -7 q 132 180 181 92 q 83 379 83 268 q 128 580 83 492 q 255 717 174 668 q 440 767 336 767 m 440 689 q 258 617 332 689 q 169 426 183 544 l 710 426 q 626 617 700 544 q 440 689 553 689 m 271 900 q 239 912 251 900 q 226 942 226 924 q 249 979 226 965 l 417 1092 q 438 1097 428 1097 q 458 1092 447 1097 l 626 979 q 649 942 649 965 q 636 912 649 924 q 606 900 624 900 q 579 908 592 900 l 438 1003 l 296 908 q 271 900 283 900 z "},"ế":{"ha":846,"x_min":83,"x_max":790,"o":"m 440 767 q 622 719 542 767 q 746 586 701 671 q 790 393 790 501 q 779 365 790 375 q 750 354 768 354 l 168 354 q 211 208 172 272 q 315 107 250 143 q 461 71 381 71 q 570 90 515 71 q 657 139 625 108 q 686 150 671 150 q 711 142 701 150 q 726 113 726 129 q 714 86 726 99 q 598 19 669 46 q 461 -7 526 -7 q 266 42 351 -7 q 132 180 181 92 q 83 379 83 268 q 128 580 83 492 q 255 717 174 668 q 440 767 336 767 m 440 689 q 258 617 332 689 q 169 426 183 544 l 710 426 q 626 617 700 544 q 440 689 553 689 m 271 900 q 239 912 251 900 q 226 942 226 924 q 249 979 226 965 l 417 1092 q 438 1097 428 1097 q 458 1092 447 1097 l 626 979 q 649 942 649 965 q 636 912 649 924 q 606 900 624 900 q 579 908 592 900 l 438 1003 l 296 908 q 271 900 283 900 m 543 1131 q 513 1143 525 1131 q 500 1174 500 1156 q 510 1201 500 1189 l 681 1372 q 711 1385 693 1385 q 742 1372 729 1385 q 754 1342 754 1360 q 742 1313 754 1325 l 571 1142 q 543 1131 560 1131 z "},"ệ":{"ha":846,"x_min":83,"x_max":790,"o":"m 440 767 q 622 719 542 767 q 746 586 701 671 q 790 393 790 501 q 779 365 790 375 q 750 354 768 354 l 168 354 q 211 208 172 272 q 315 107 250 143 q 461 71 381 71 q 570 90 515 71 q 657 139 625 108 q 686 150 671 150 q 711 142 701 150 q 726 113 726 129 q 714 86 726 99 q 598 19 669 46 q 461 -7 526 -7 q 266 42 351 -7 q 132 180 181 92 q 83 379 83 268 q 128 580 83 492 q 255 717 174 668 q 440 767 336 767 m 440 689 q 258 617 332 689 q 169 426 183 544 l 710 426 q 626 617 700 544 q 440 689 553 689 m 271 900 q 239 912 251 900 q 226 942 226 924 q 249 979 226 965 l 417 1092 q 438 1097 428 1097 q 458 1092 447 1097 l 626 979 q 649 942 649 965 q 636 912 649 924 q 606 900 624 900 q 579 908 592 900 l 438 1003 l 296 908 q 271 900 283 900 m 436 -275 q 390 -256 408 -275 q 372 -210 372 -237 q 392 -162 372 -179 q 438 -146 411 -146 q 483 -162 464 -146 q 501 -210 501 -179 q 483 -256 501 -237 q 436 -275 464 -275 z "},"ề":{"ha":846,"x_min":83,"x_max":790,"o":"m 440 767 q 622 719 542 767 q 746 586 701 671 q 790 393 790 501 q 779 365 790 375 q 750 354 768 354 l 168 354 q 211 208 172 272 q 315 107 250 143 q 461 71 381 71 q 570 90 515 71 q 657 139 625 108 q 686 150 671 150 q 711 142 701 150 q 726 113 726 129 q 714 86 726 99 q 598 19 669 46 q 461 -7 526 -7 q 266 42 351 -7 q 132 180 181 92 q 83 379 83 268 q 128 580 83 492 q 255 717 174 668 q 440 767 336 767 m 440 689 q 258 617 332 689 q 169 426 183 544 l 710 426 q 626 617 700 544 q 440 689 553 689 m 271 900 q 239 912 251 900 q 226 942 226 924 q 249 979 226 965 l 417 1092 q 438 1097 428 1097 q 458 1092 447 1097 l 626 979 q 649 942 649 965 q 636 912 649 924 q 606 900 624 900 q 579 908 592 900 l 438 1003 l 296 908 q 271 900 283 900 m 565 1146 q 536 1157 551 1146 l 365 1328 q 354 1357 354 1339 q 367 1388 354 1375 q 397 1400 379 1400 q 426 1388 414 1400 l 597 1217 q 607 1189 607 1207 q 595 1158 607 1171 q 565 1146 583 1146 z "},"ể":{"ha":846,"x_min":83,"x_max":790,"o":"m 440 767 q 622 719 542 767 q 746 586 701 671 q 790 393 790 501 q 779 365 790 375 q 750 354 768 354 l 168 354 q 211 208 172 272 q 315 107 250 143 q 461 71 381 71 q 570 90 515 71 q 657 139 625 108 q 686 150 671 150 q 711 142 701 150 q 726 113 726 129 q 714 86 726 99 q 598 19 669 46 q 461 -7 526 -7 q 266 42 351 -7 q 132 180 181 92 q 83 379 83 268 q 128 580 83 492 q 255 717 174 668 q 440 767 336 767 m 440 689 q 258 617 332 689 q 169 426 183 544 l 710 426 q 626 617 700 544 q 440 689 553 689 m 272 900 q 240 912 253 900 q 228 942 228 924 q 250 979 228 965 l 418 1092 q 439 1097 429 1097 q 460 1092 449 1097 l 628 979 q 650 942 650 965 q 638 912 650 924 q 607 900 625 900 q 581 908 593 900 l 439 1003 l 297 908 q 272 900 285 900 m 563 1086 q 534 1098 546 1086 q 522 1126 522 1110 l 522 1172 q 558 1217 522 1208 l 592 1224 q 637 1246 624 1231 q 650 1288 650 1261 q 628 1339 650 1319 q 574 1358 607 1358 q 515 1336 542 1358 q 489 1326 503 1326 q 460 1338 472 1326 q 449 1367 449 1350 q 463 1397 449 1386 q 574 1439 513 1439 q 686 1400 642 1439 q 731 1296 731 1361 q 694 1203 731 1238 q 603 1160 658 1169 l 603 1126 q 591 1098 603 1110 q 563 1086 579 1086 z "},"ễ":{"ha":846,"x_min":83,"x_max":790,"o":"m 440 767 q 622 719 542 767 q 746 586 701 671 q 790 393 790 501 q 779 365 790 375 q 750 354 768 354 l 168 354 q 211 208 172 272 q 315 107 250 143 q 461 71 381 71 q 570 90 515 71 q 657 139 625 108 q 686 150 671 150 q 711 142 701 150 q 726 113 726 129 q 714 86 726 99 q 598 19 669 46 q 461 -7 526 -7 q 266 42 351 -7 q 132 180 181 92 q 83 379 83 268 q 128 580 83 492 q 255 717 174 668 q 440 767 336 767 m 440 689 q 258 617 332 689 q 169 426 183 544 l 710 426 q 626 617 700 544 q 440 689 553 689 m 271 900 q 239 912 251 900 q 226 942 226 924 q 249 979 226 965 l 417 1092 q 438 1097 428 1097 q 458 1092 447 1097 l 626 979 q 649 942 649 965 q 636 912 649 924 q 606 900 624 900 q 579 908 592 900 l 438 1003 l 296 908 q 271 900 283 900 m 521 1136 q 465 1151 492 1136 q 419 1183 438 1165 q 383 1215 397 1206 q 351 1224 368 1224 q 322 1209 335 1224 q 293 1164 310 1194 q 254 1139 281 1139 q 228 1149 238 1139 q 219 1172 219 1158 q 224 1192 219 1182 q 278 1270 247 1246 q 350 1294 308 1294 q 401 1284 382 1294 q 450 1249 421 1274 q 491 1217 478 1225 q 515 1210 504 1210 q 551 1251 536 1210 q 572 1276 557 1268 q 601 1281 586 1285 q 632 1246 632 1272 q 628 1229 632 1238 q 581 1158 607 1179 q 521 1136 556 1136 z "},"ȅ":{"ha":846,"x_min":83,"x_max":790,"o":"m 440 767 q 622 719 542 767 q 746 586 701 671 q 790 393 790 501 q 779 365 790 375 q 750 354 768 354 l 168 354 q 211 208 172 272 q 315 107 250 143 q 461 71 381 71 q 570 90 515 71 q 657 139 625 108 q 686 150 671 150 q 711 142 701 150 q 726 113 726 129 q 714 86 726 99 q 598 19 669 46 q 461 -7 526 -7 q 266 42 351 -7 q 132 180 181 92 q 83 379 83 268 q 128 580 83 492 q 255 717 174 668 q 440 767 336 767 m 440 689 q 258 617 332 689 q 169 426 183 544 l 710 426 q 626 617 700 544 q 440 689 553 689 m 375 874 q 347 893 356 874 l 257 1083 q 254 1099 254 1092 q 266 1128 254 1115 q 297 1140 278 1140 q 320 1133 310 1140 q 335 1114 331 1126 l 400 914 q 401 901 401 911 q 394 881 401 889 q 375 874 386 874 m 593 874 q 565 893 575 874 l 475 1083 q 472 1099 472 1092 q 484 1128 472 1115 q 515 1140 496 1140 q 538 1133 528 1140 q 554 1114 549 1126 l 618 914 q 619 901 619 911 q 612 881 619 889 q 593 874 604 874 z "},"ë":{"ha":846,"x_min":83,"x_max":790,"o":"m 440 767 q 622 719 542 767 q 746 586 701 671 q 790 393 790 501 q 779 365 790 375 q 750 354 768 354 l 168 354 q 211 208 172 272 q 315 107 250 143 q 461 71 381 71 q 570 90 515 71 q 657 139 625 108 q 686 150 671 150 q 711 142 701 150 q 726 113 726 129 q 714 86 726 99 q 598 19 669 46 q 461 -7 526 -7 q 266 42 351 -7 q 132 180 181 92 q 83 379 83 268 q 128 580 83 492 q 255 717 174 668 q 440 767 336 767 m 440 689 q 258 617 332 689 q 169 426 183 544 l 710 426 q 626 617 700 544 q 440 689 553 689 m 299 913 q 247 933 268 913 q 226 985 226 954 q 247 1035 226 1014 q 299 1056 268 1056 q 349 1035 329 1056 q 369 985 369 1014 q 349 933 369 954 q 299 913 329 913 m 576 913 q 525 933 546 913 q 504 985 504 954 q 525 1035 504 1014 q 576 1056 546 1056 q 627 1035 607 1056 q 647 985 647 1014 q 627 933 647 954 q 576 913 607 913 z "},"ė":{"ha":846,"x_min":83,"x_max":790,"o":"m 440 767 q 622 719 542 767 q 746 586 701 671 q 790 393 790 501 q 779 365 790 375 q 750 354 768 354 l 168 354 q 211 208 172 272 q 315 107 250 143 q 461 71 381 71 q 570 90 515 71 q 657 139 625 108 q 686 150 671 150 q 711 142 701 150 q 726 113 726 129 q 714 86 726 99 q 598 19 669 46 q 461 -7 526 -7 q 266 42 351 -7 q 132 180 181 92 q 83 379 83 268 q 128 580 83 492 q 255 717 174 668 q 440 767 336 767 m 440 689 q 258 617 332 689 q 169 426 183 544 l 710 426 q 626 617 700 544 q 440 689 553 689 m 436 919 q 390 938 408 919 q 372 985 372 957 q 392 1032 372 1015 q 438 1049 411 1049 q 483 1032 464 1049 q 501 985 501 1015 q 483 938 501 957 q 436 919 464 919 z "},"ẹ":{"ha":846,"x_min":83,"x_max":790,"o":"m 440 767 q 622 719 542 767 q 746 586 701 671 q 790 393 790 501 q 779 365 790 375 q 750 354 768 354 l 168 354 q 211 208 172 272 q 315 107 250 143 q 461 71 381 71 q 570 90 515 71 q 657 139 625 108 q 686 150 671 150 q 711 142 701 150 q 726 113 726 129 q 714 86 726 99 q 598 19 669 46 q 461 -7 526 -7 q 266 42 351 -7 q 132 180 181 92 q 83 379 83 268 q 128 580 83 492 q 255 717 174 668 q 440 767 336 767 m 440 689 q 258 617 332 689 q 169 426 183 544 l 710 426 q 626 617 700 544 q 440 689 553 689 m 436 -275 q 390 -256 408 -275 q 372 -210 372 -237 q 392 -162 372 -179 q 438 -146 411 -146 q 483 -162 464 -146 q 501 -210 501 -179 q 483 -256 501 -237 q 436 -275 464 -275 z "},"è":{"ha":846,"x_min":83,"x_max":790,"o":"m 440 767 q 622 719 542 767 q 746 586 701 671 q 790 393 790 501 q 779 365 790 375 q 750 354 768 354 l 168 354 q 211 208 172 272 q 315 107 250 143 q 461 71 381 71 q 570 90 515 71 q 657 139 625 108 q 686 150 671 150 q 711 142 701 150 q 726 113 726 129 q 714 86 726 99 q 598 19 669 46 q 461 -7 526 -7 q 266 42 351 -7 q 132 180 181 92 q 83 379 83 268 q 128 580 83 492 q 255 717 174 668 q 440 767 336 767 m 440 689 q 258 617 332 689 q 169 426 183 544 l 710 426 q 626 617 700 544 q 440 689 553 689 m 439 888 q 410 899 425 888 l 239 1069 q 228 1099 228 1081 q 240 1129 228 1117 q 271 1142 253 1142 q 300 1129 288 1142 l 471 958 q 481 931 481 949 q 469 900 481 913 q 439 888 457 888 z "},"ẻ":{"ha":846,"x_min":83,"x_max":790,"o":"m 440 767 q 622 719 542 767 q 746 586 701 671 q 790 393 790 501 q 779 365 790 375 q 750 354 768 354 l 168 354 q 211 208 172 272 q 315 107 250 143 q 461 71 381 71 q 570 90 515 71 q 657 139 625 108 q 686 150 671 150 q 711 142 701 150 q 726 113 726 129 q 714 86 726 99 q 598 19 669 46 q 461 -7 526 -7 q 266 42 351 -7 q 132 180 181 92 q 83 379 83 268 q 128 580 83 492 q 255 717 174 668 q 440 767 336 767 m 440 689 q 258 617 332 689 q 169 426 183 544 l 710 426 q 626 617 700 544 q 440 689 553 689 m 435 828 q 406 840 418 828 q 394 868 394 851 l 394 914 q 431 958 394 950 l 464 965 q 509 988 496 972 q 522 1029 522 1003 q 501 1081 522 1061 q 446 1100 479 1100 q 388 1078 414 1100 q 361 1068 375 1068 q 333 1080 344 1068 q 321 1108 321 1092 q 335 1139 321 1128 q 446 1181 385 1181 q 558 1142 514 1181 q 603 1038 603 1103 q 567 945 603 979 q 475 901 531 911 l 475 868 q 463 840 475 851 q 435 828 451 828 z "},"ȇ":{"ha":846,"x_min":83,"x_max":790,"o":"m 440 767 q 622 719 542 767 q 746 586 701 671 q 790 393 790 501 q 779 365 790 375 q 750 354 768 354 l 168 354 q 211 208 172 272 q 315 107 250 143 q 461 71 381 71 q 570 90 515 71 q 657 139 625 108 q 686 150 671 150 q 711 142 701 150 q 726 113 726 129 q 714 86 726 99 q 598 19 669 46 q 461 -7 526 -7 q 266 42 351 -7 q 132 180 181 92 q 83 379 83 268 q 128 580 83 492 q 255 717 174 668 q 440 767 336 767 m 440 689 q 258 617 332 689 q 169 426 183 544 l 710 426 q 626 617 700 544 q 440 689 553 689 m 436 1097 q 582 1054 521 1097 q 649 942 643 1011 q 635 913 647 925 q 606 900 622 900 q 576 913 588 900 q 564 943 564 925 q 529 999 564 976 q 436 1022 494 1022 q 344 999 378 1022 q 310 943 310 976 q 298 913 310 925 q 268 900 286 900 q 238 913 250 900 q 225 943 225 925 q 253 1020 225 985 q 331 1076 282 1056 q 436 1097 379 1097 z "},"ē":{"ha":846,"x_min":83,"x_max":790,"o":"m 440 767 q 622 719 542 767 q 746 586 701 671 q 790 393 790 501 q 779 365 790 375 q 750 354 768 354 l 168 354 q 211 208 172 272 q 315 107 250 143 q 461 71 381 71 q 570 90 515 71 q 657 139 625 108 q 686 150 671 150 q 711 142 701 150 q 726 113 726 129 q 714 86 726 99 q 598 19 669 46 q 461 -7 526 -7 q 266 42 351 -7 q 132 180 181 92 q 83 379 83 268 q 128 580 83 492 q 255 717 174 668 q 440 767 336 767 m 440 689 q 258 617 332 689 q 169 426 183 544 l 710 426 q 626 617 700 544 q 440 689 553 689 m 253 918 q 223 930 235 918 q 211 960 211 942 q 223 990 211 978 q 253 1003 235 1003 l 621 1003 q 651 990 639 1003 q 663 960 663 978 q 651 930 663 942 q 621 918 639 918 l 253 918 z "},"ę":{"ha":846,"x_min":83,"x_max":790,"o":"m 440 767 q 622 719 542 767 q 746 586 701 671 q 790 393 790 501 q 779 365 790 375 q 750 354 768 354 l 168 354 q 211 208 172 272 q 315 107 250 143 q 461 71 381 71 q 570 90 515 71 q 657 139 625 108 q 686 150 671 150 q 711 142 701 150 q 726 113 726 129 q 714 86 726 99 q 596 18 668 44 q 517 -68 581 -22 q 488 -125 488 -92 q 508 -174 488 -154 q 557 -194 528 -194 q 596 -183 579 -194 l 644 -147 q 669 -139 657 -139 q 700 -151 688 -139 q 713 -182 713 -164 q 699 -214 713 -203 l 642 -253 q 557 -279 603 -279 q 449 -234 494 -279 q 403 -125 403 -189 q 458 -7 403 -58 q 265 43 350 -7 q 131 181 179 93 q 83 379 83 268 q 128 580 83 492 q 255 717 174 668 q 440 767 336 767 m 440 689 q 258 617 332 689 q 169 426 183 544 l 710 426 q 626 617 700 544 q 440 689 553 689 z "},"ẽ":{"ha":846,"x_min":83,"x_max":790,"o":"m 440 767 q 622 719 542 767 q 746 586 701 671 q 790 393 790 501 q 779 365 790 375 q 750 354 768 354 l 168 354 q 211 208 172 272 q 315 107 250 143 q 461 71 381 71 q 570 90 515 71 q 657 139 625 108 q 686 150 671 150 q 711 142 701 150 q 726 113 726 129 q 714 86 726 99 q 598 19 669 46 q 461 -7 526 -7 q 266 42 351 -7 q 132 180 181 92 q 83 379 83 268 q 128 580 83 492 q 255 717 174 668 q 440 767 336 767 m 440 689 q 258 617 332 689 q 169 426 183 544 l 710 426 q 626 617 700 544 q 440 689 553 689 m 583 875 q 515 888 544 875 q 453 924 486 901 q 408 949 425 943 q 374 956 392 956 q 267 899 317 956 q 232 882 254 882 q 211 888 218 882 q 190 919 190 900 q 199 943 190 933 q 281 1012 236 988 q 374 1036 326 1036 q 437 1024 410 1036 q 499 990 464 1013 q 544 963 528 971 q 583 956 560 956 q 660 986 631 956 q 699 1006 676 1006 q 714 1001 708 1006 q 739 968 739 989 q 731 946 739 957 q 583 875 676 875 z "},"ə":{"ha":846,"x_min":56,"x_max":763,"o":"m 385 767 q 580 717 494 767 q 714 580 665 668 q 763 381 763 492 q 717 180 763 268 q 591 42 672 92 q 406 -7 510 -7 q 224 41 304 -7 q 100 174 144 89 q 56 367 56 258 q 67 395 56 385 q 96 406 78 406 l 678 406 q 635 552 674 488 q 531 653 596 617 q 385 689 465 689 q 276 670 331 689 q 189 621 221 651 q 160 610 175 610 q 135 618 146 610 q 119 647 119 631 q 132 674 119 661 q 248 740 176 714 q 385 767 319 767 m 406 71 q 588 143 514 71 q 676 333 663 215 l 136 333 q 219 143 146 215 q 406 71 293 71 z "},"f":{"ha":507,"x_min":42,"x_max":507,"o":"m 465 1010 q 318 942 364 1010 q 272 761 272 875 l 272 732 l 456 732 q 483 722 472 732 q 493 694 493 711 q 483 667 493 678 q 456 657 472 657 l 272 657 l 272 42 q 260 12 272 24 q 229 0 249 0 q 199 12 211 0 q 188 42 188 24 l 188 657 l 79 657 q 52 667 63 657 q 42 694 42 678 q 52 722 42 711 q 79 732 63 732 l 188 732 l 188 761 q 257 997 188 910 q 465 1085 326 1085 q 495 1074 483 1085 q 507 1047 507 1064 q 495 1020 507 1031 q 465 1010 483 1010 z "},"g":{"ha":943,"x_min":83,"x_max":860,"o":"m 472 768 q 673 718 585 768 q 810 580 761 668 q 860 379 860 492 l 860 107 q 810 -95 860 -4 q 672 -238 760 -186 q 478 -290 585 -290 q 285 -249 368 -290 q 147 -137 203 -208 q 136 -110 136 -124 q 150 -83 136 -93 q 175 -75 161 -75 q 211 -93 197 -75 q 324 -181 257 -149 q 478 -212 392 -212 q 631 -171 563 -212 q 738 -56 699 -129 q 776 107 776 17 l 776 168 q 656 39 736 86 q 472 -8 576 -8 q 272 41 360 -8 q 133 178 183 90 q 83 379 83 267 q 135 579 83 490 q 275 718 186 668 q 472 768 364 768 m 472 69 q 629 109 560 69 q 738 219 699 149 q 776 379 776 289 q 738 540 776 469 q 629 651 699 611 q 472 690 560 690 q 314 651 383 690 q 206 540 244 611 q 167 379 167 469 q 206 219 167 289 q 314 109 244 149 q 472 69 383 69 z "},"ğ":{"ha":943,"x_min":83,"x_max":860,"o":"m 472 768 q 673 718 585 768 q 810 580 761 668 q 860 379 860 492 l 860 107 q 810 -95 860 -4 q 672 -238 760 -186 q 478 -290 585 -290 q 285 -249 368 -290 q 147 -137 203 -208 q 136 -110 136 -124 q 150 -83 136 -93 q 175 -75 161 -75 q 211 -93 197 -75 q 324 -181 257 -149 q 478 -212 392 -212 q 631 -171 563 -212 q 738 -56 699 -129 q 776 107 776 17 l 776 168 q 656 39 736 86 q 472 -8 576 -8 q 272 41 360 -8 q 133 178 183 90 q 83 379 83 267 q 135 579 83 490 q 275 718 186 668 q 472 768 364 768 m 472 69 q 629 109 560 69 q 738 219 699 149 q 776 379 776 289 q 738 540 776 469 q 629 651 699 611 q 472 690 560 690 q 314 651 383 690 q 206 540 244 611 q 167 379 167 469 q 206 219 167 289 q 314 109 244 149 q 472 69 383 69 m 471 900 q 365 921 414 900 q 288 977 317 942 q 260 1054 260 1013 q 272 1085 260 1072 q 303 1097 285 1097 q 333 1085 321 1097 q 344 1054 344 1072 q 378 998 344 1021 q 471 975 413 975 q 564 998 529 975 q 599 1054 599 1021 q 610 1085 599 1072 q 640 1097 622 1097 q 669 1085 657 1097 q 683 1056 682 1072 q 617 943 678 986 q 471 900 556 900 z "},"ǧ":{"ha":943,"x_min":83,"x_max":860,"o":"m 472 768 q 673 718 585 768 q 810 580 761 668 q 860 379 860 492 l 860 107 q 810 -95 860 -4 q 672 -238 760 -186 q 478 -290 585 -290 q 285 -249 368 -290 q 147 -137 203 -208 q 136 -110 136 -124 q 150 -83 136 -93 q 175 -75 161 -75 q 211 -93 197 -75 q 324 -181 257 -149 q 478 -212 392 -212 q 631 -171 563 -212 q 738 -56 699 -129 q 776 107 776 17 l 776 168 q 656 39 736 86 q 472 -8 576 -8 q 272 41 360 -8 q 133 178 183 90 q 83 379 83 267 q 135 579 83 490 q 275 718 186 668 q 472 768 364 768 m 472 69 q 629 109 560 69 q 738 219 699 149 q 776 379 776 289 q 738 540 776 469 q 629 651 699 611 q 472 690 560 690 q 314 651 383 690 q 206 540 244 611 q 167 379 167 469 q 206 219 167 289 q 314 109 244 149 q 472 69 383 69 m 472 900 q 451 906 458 900 l 283 1017 q 261 1054 261 1031 q 272 1081 261 1071 q 297 1092 282 1092 q 331 1081 314 1092 l 472 983 l 614 1078 q 649 1090 632 1090 q 674 1080 664 1090 q 683 1054 683 1069 q 661 1017 683 1033 l 493 906 q 472 900 486 900 z "},"ĝ":{"ha":943,"x_min":83,"x_max":860,"o":"m 472 768 q 673 718 585 768 q 810 580 761 668 q 860 379 860 492 l 860 107 q 810 -95 860 -4 q 672 -238 760 -186 q 478 -290 585 -290 q 285 -249 368 -290 q 147 -137 203 -208 q 136 -110 136 -124 q 150 -83 136 -93 q 175 -75 161 -75 q 211 -93 197 -75 q 324 -181 257 -149 q 478 -212 392 -212 q 631 -171 563 -212 q 738 -56 699 -129 q 776 107 776 17 l 776 168 q 656 39 736 86 q 472 -8 576 -8 q 272 41 360 -8 q 133 178 183 90 q 83 379 83 267 q 135 579 83 490 q 275 718 186 668 q 472 768 364 768 m 472 69 q 629 109 560 69 q 738 219 699 149 q 776 379 776 289 q 738 540 776 469 q 629 651 699 611 q 472 690 560 690 q 314 651 383 690 q 206 540 244 611 q 167 379 167 469 q 206 219 167 289 q 314 109 244 149 q 472 69 383 69 m 306 900 q 274 912 286 900 q 261 942 261 924 q 283 979 261 965 l 451 1092 q 472 1097 463 1097 q 493 1092 482 1097 l 661 979 q 683 942 683 965 q 671 912 683 924 q 640 900 658 900 q 614 908 626 900 l 472 1003 l 331 908 q 306 900 318 900 z "}}}
